<ttFont>
    <TTGlyph name=".notdef" xMin="0" yMin="0" xMax="500" yMax="700">
      <contour>
        <pt x="500" y="700" on="1"/>
        <pt x="500" y="0" on="1"/>
        <pt x="0" y="0" on="1"/>
        <pt x="0" y="700" on="1"/>
      </contour>
      <contour>
        <pt x="80" y="650" on="1"/>
        <pt x="250" y="395" on="1"/>
        <pt x="420" y="650" on="1"/>
      </contour>
      <contour>
        <pt x="220" y="350" on="1"/>
        <pt x="50" y="605" on="1"/>
        <pt x="50" y="95" on="1"/>
      </contour>
      <contour>
        <pt x="450" y="605" on="1"/>
        <pt x="280" y="350" on="1"/>
        <pt x="450" y="95" on="1"/>
      </contour>
      <contour>
        <pt x="250" y="305" on="1"/>
        <pt x="80" y="50" on="1"/>
        <pt x="420" y="50" on="1"/>
      </contour>
    </TTGlyph>
    <TTGlyph name="A" xMin="34" yMin="-6" xMax="836" yMax="762">
      <contour>
        <pt x="608" y="-2" on="1"/>
        <pt x="552" y="-2" on="0"/>
        <pt x="495" y="71" on="0"/>
        <pt x="485" y="171" on="1"/>
        <pt x="479" y="223" on="0"/>
        <pt x="473" y="306" on="1"/>
        <pt x="403" y="285" on="0"/>
        <pt x="332" y="262" on="1"/>
        <pt x="298" y="168" on="1"/>
        <pt x="288" y="141" on="0"/>
        <pt x="280" y="118" on="0"/>
        <pt x="259" y="72" on="0"/>
        <pt x="244" y="51" on="0"/>
        <pt x="217" y="19" on="0"/>
        <pt x="203" y="12" on="1"/>
        <pt x="167" y="-6" on="0"/>
        <pt x="85" y="-6" on="0"/>
        <pt x="34" y="53" on="0"/>
        <pt x="34" y="96" on="1"/>
        <pt x="34" y="108" on="0"/>
        <pt x="36" y="121" on="1"/>
        <pt x="49" y="217" on="0"/>
        <pt x="233" y="296" on="1"/>
        <pt x="285" y="429" on="0"/>
        <pt x="406" y="744" on="1"/>
        <pt x="438" y="762" on="0"/>
        <pt x="487" y="762" on="1"/>
        <pt x="498" y="762" on="0"/>
        <pt x="518" y="762" on="0"/>
        <pt x="547" y="762" on="0"/>
        <pt x="569" y="756" on="1"/>
        <pt x="570" y="709" on="0"/>
        <pt x="615" y="173" on="1"/>
        <pt x="619" y="128" on="0"/>
        <pt x="633" y="101" on="0"/>
        <pt x="650" y="101" on="1"/>
        <pt x="678" y="101" on="0"/>
        <pt x="771" y="177" on="0"/>
        <pt x="808" y="234" on="1"/>
        <pt x="836" y="166" on="1"/>
        <pt x="812" y="134" on="1"/>
        <pt x="707" y="-2" on="0"/>
      </contour>
      <contour>
        <pt x="449" y="588" on="1"/>
        <pt x="362" y="345" on="1"/>
        <pt x="432" y="369" on="0"/>
        <pt x="466" y="380" on="1"/>
      </contour>
      <contour>
        <pt x="105" y="162" on="0"/>
        <pt x="105" y="117" on="1"/>
        <pt x="105" y="85" on="0"/>
        <pt x="129" y="85" on="1"/>
        <pt x="147" y="85" on="0"/>
        <pt x="158" y="111" on="1"/>
        <pt x="171" y="139" on="0"/>
        <pt x="198" y="209" on="1"/>
      </contour>
    </TTGlyph>
    <TTGlyph name="AE" xMin="35" yMin="-6" xMax="1098" yMax="763">
      <contour>
        <pt x="679" y="349" on="1"/>
        <pt x="621" y="308" on="0"/>
        <pt x="621" y="227" on="1"/>
        <pt x="621" y="176" on="0"/>
        <pt x="694" y="86" on="0"/>
        <pt x="868" y="86" on="0"/>
        <pt x="1024" y="204" on="0"/>
        <pt x="1064" y="274" on="1"/>
        <pt x="1098" y="213" on="1"/>
        <pt x="969" y="-6" on="0"/>
        <pt x="739" y="-6" on="1"/>
        <pt x="625" y="-6" on="0"/>
        <pt x="467" y="117" on="0"/>
        <pt x="467" y="200" on="1"/>
        <pt x="467" y="242" on="0"/>
        <pt x="477" y="273" on="1"/>
        <pt x="474" y="306" on="1"/>
        <pt x="404" y="285" on="0"/>
        <pt x="333" y="262" on="1"/>
        <pt x="299" y="168" on="1"/>
        <pt x="289" y="141" on="0"/>
        <pt x="281" y="118" on="0"/>
        <pt x="260" y="72" on="0"/>
        <pt x="245" y="51" on="0"/>
        <pt x="218" y="19" on="0"/>
        <pt x="204" y="12" on="1"/>
        <pt x="168" y="-6" on="0"/>
        <pt x="86" y="-6" on="0"/>
        <pt x="35" y="53" on="0"/>
        <pt x="35" y="96" on="1"/>
        <pt x="35" y="108" on="0"/>
        <pt x="37" y="121" on="1"/>
        <pt x="50" y="217" on="0"/>
        <pt x="234" y="296" on="1"/>
        <pt x="286" y="429" on="0"/>
        <pt x="407" y="744" on="1"/>
        <pt x="440" y="762" on="0"/>
        <pt x="491" y="762" on="1"/>
        <pt x="521" y="760" on="1"/>
        <pt x="526" y="760" on="0"/>
        <pt x="540" y="756" on="1"/>
        <pt x="542" y="689" on="0"/>
        <pt x="554" y="552" on="1"/>
        <pt x="562" y="641" on="0"/>
        <pt x="723" y="761" on="0"/>
        <pt x="926" y="761" on="0"/>
        <pt x="1041" y="653" on="0"/>
        <pt x="1041" y="565" on="1"/>
        <pt x="946" y="565" on="1"/>
        <pt x="947" y="619" on="0"/>
        <pt x="888" y="674" on="0"/>
        <pt x="783" y="674" on="0"/>
        <pt x="741" y="636" on="1"/>
        <pt x="694" y="595" on="0"/>
        <pt x="694" y="485" on="0"/>
        <pt x="724" y="445" on="1"/>
        <pt x="824" y="457" on="0"/>
        <pt x="876" y="432" on="1"/>
        <pt x="908" y="417" on="0"/>
        <pt x="908" y="352" on="0"/>
        <pt x="835" y="326" on="0"/>
        <pt x="733" y="326" on="0"/>
      </contour>
      <contour>
        <pt x="450" y="588" on="1"/>
        <pt x="363" y="345" on="1"/>
        <pt x="433" y="369" on="0"/>
        <pt x="468" y="380" on="1"/>
      </contour>
      <contour>
        <pt x="559" y="481" on="1"/>
        <pt x="567" y="393" on="1"/>
        <pt x="572" y="396" on="0"/>
        <pt x="593" y="408" on="0"/>
        <pt x="596" y="410" on="1"/>
        <pt x="571" y="442" on="0"/>
      </contour>
      <contour>
        <pt x="106" y="117" on="1"/>
        <pt x="106" y="85" on="0"/>
        <pt x="130" y="85" on="1"/>
        <pt x="148" y="85" on="0"/>
        <pt x="159" y="111" on="1"/>
        <pt x="172" y="139" on="0"/>
        <pt x="199" y="209" on="1"/>
        <pt x="106" y="162" on="0"/>
      </contour>
    </TTGlyph>
    <TTGlyph name="Aacute" xMin="34" yMin="-6" xMax="836" yMax="1017">
      <contour>
        <pt x="430" y="830" on="1"/>
        <pt x="557" y="1017" on="1"/>
        <pt x="577" y="1007" on="0"/>
        <pt x="631" y="950" on="0"/>
        <pt x="648" y="926" on="1"/>
        <pt x="468" y="793" on="1"/>
        <pt x="456" y="800" on="0"/>
      </contour>
      <contour>
        <pt x="608" y="-2" on="1"/>
        <pt x="552" y="-2" on="0"/>
        <pt x="495" y="71" on="0"/>
        <pt x="485" y="171" on="1"/>
        <pt x="479" y="223" on="0"/>
        <pt x="473" y="306" on="1"/>
        <pt x="403" y="285" on="0"/>
        <pt x="332" y="262" on="1"/>
        <pt x="298" y="168" on="1"/>
        <pt x="288" y="141" on="0"/>
        <pt x="280" y="118" on="0"/>
        <pt x="259" y="72" on="0"/>
        <pt x="244" y="51" on="0"/>
        <pt x="217" y="19" on="0"/>
        <pt x="203" y="12" on="1"/>
        <pt x="167" y="-6" on="0"/>
        <pt x="85" y="-6" on="0"/>
        <pt x="34" y="53" on="0"/>
        <pt x="34" y="96" on="1"/>
        <pt x="34" y="108" on="0"/>
        <pt x="36" y="121" on="1"/>
        <pt x="49" y="217" on="0"/>
        <pt x="233" y="296" on="1"/>
        <pt x="285" y="429" on="0"/>
        <pt x="406" y="744" on="1"/>
        <pt x="438" y="762" on="0"/>
        <pt x="487" y="762" on="1"/>
        <pt x="498" y="762" on="0"/>
        <pt x="518" y="762" on="0"/>
        <pt x="547" y="762" on="0"/>
        <pt x="569" y="756" on="1"/>
        <pt x="570" y="709" on="0"/>
        <pt x="615" y="173" on="1"/>
        <pt x="619" y="128" on="0"/>
        <pt x="633" y="101" on="0"/>
        <pt x="650" y="101" on="1"/>
        <pt x="678" y="101" on="0"/>
        <pt x="771" y="177" on="0"/>
        <pt x="808" y="234" on="1"/>
        <pt x="836" y="166" on="1"/>
        <pt x="812" y="134" on="1"/>
        <pt x="707" y="-2" on="0"/>
      </contour>
      <contour>
        <pt x="449" y="588" on="1"/>
        <pt x="362" y="345" on="1"/>
        <pt x="432" y="369" on="0"/>
        <pt x="466" y="380" on="1"/>
      </contour>
      <contour>
        <pt x="105" y="162" on="0"/>
        <pt x="105" y="117" on="1"/>
        <pt x="105" y="85" on="0"/>
        <pt x="129" y="85" on="1"/>
        <pt x="147" y="85" on="0"/>
        <pt x="158" y="111" on="1"/>
        <pt x="171" y="139" on="0"/>
        <pt x="198" y="209" on="1"/>
      </contour>
    </TTGlyph>
    <TTGlyph name="Acircumflex" xMin="34" yMin="-6" xMax="836" yMax="980">
      <contour>
        <pt x="499" y="980" on="1"/>
        <pt x="673" y="859" on="1"/>
        <pt x="652" y="820" on="0"/>
        <pt x="640" y="801" on="1"/>
        <pt x="499" y="874" on="1"/>
        <pt x="358" y="801" on="1"/>
        <pt x="346" y="820" on="0"/>
        <pt x="325" y="859" on="1"/>
      </contour>
      <contour>
        <pt x="608" y="-2" on="1"/>
        <pt x="552" y="-2" on="0"/>
        <pt x="495" y="71" on="0"/>
        <pt x="485" y="171" on="1"/>
        <pt x="479" y="223" on="0"/>
        <pt x="473" y="306" on="1"/>
        <pt x="403" y="285" on="0"/>
        <pt x="332" y="262" on="1"/>
        <pt x="298" y="168" on="1"/>
        <pt x="288" y="141" on="0"/>
        <pt x="280" y="118" on="0"/>
        <pt x="259" y="72" on="0"/>
        <pt x="244" y="51" on="0"/>
        <pt x="217" y="19" on="0"/>
        <pt x="203" y="12" on="1"/>
        <pt x="167" y="-6" on="0"/>
        <pt x="85" y="-6" on="0"/>
        <pt x="34" y="53" on="0"/>
        <pt x="34" y="96" on="1"/>
        <pt x="34" y="108" on="0"/>
        <pt x="36" y="121" on="1"/>
        <pt x="49" y="217" on="0"/>
        <pt x="233" y="296" on="1"/>
        <pt x="285" y="429" on="0"/>
        <pt x="406" y="744" on="1"/>
        <pt x="438" y="762" on="0"/>
        <pt x="487" y="762" on="1"/>
        <pt x="498" y="762" on="0"/>
        <pt x="518" y="762" on="0"/>
        <pt x="547" y="762" on="0"/>
        <pt x="569" y="756" on="1"/>
        <pt x="570" y="709" on="0"/>
        <pt x="615" y="173" on="1"/>
        <pt x="619" y="128" on="0"/>
        <pt x="633" y="101" on="0"/>
        <pt x="650" y="101" on="1"/>
        <pt x="678" y="101" on="0"/>
        <pt x="771" y="177" on="0"/>
        <pt x="808" y="234" on="1"/>
        <pt x="836" y="166" on="1"/>
        <pt x="812" y="134" on="1"/>
        <pt x="707" y="-2" on="0"/>
      </contour>
      <contour>
        <pt x="449" y="588" on="1"/>
        <pt x="362" y="345" on="1"/>
        <pt x="432" y="369" on="0"/>
        <pt x="466" y="380" on="1"/>
      </contour>
      <contour>
        <pt x="105" y="162" on="0"/>
        <pt x="105" y="117" on="1"/>
        <pt x="105" y="85" on="0"/>
        <pt x="129" y="85" on="1"/>
        <pt x="147" y="85" on="0"/>
        <pt x="158" y="111" on="1"/>
        <pt x="171" y="139" on="0"/>
        <pt x="198" y="209" on="1"/>
      </contour>
    </TTGlyph>
    <TTGlyph name="Adieresis" xMin="34" yMin="-6" xMax="836" yMax="957">
      <contour>
        <pt x="305" y="914" on="0"/>
        <pt x="346" y="957" on="0"/>
        <pt x="406" y="957" on="0"/>
        <pt x="448" y="914" on="0"/>
        <pt x="448" y="854" on="0"/>
        <pt x="406" y="812" on="0"/>
        <pt x="346" y="812" on="0"/>
        <pt x="305" y="854" on="0"/>
      </contour>
      <contour>
        <pt x="587" y="957" on="0"/>
        <pt x="647" y="957" on="0"/>
        <pt x="689" y="914" on="0"/>
        <pt x="689" y="854" on="0"/>
        <pt x="648" y="812" on="0"/>
        <pt x="587" y="812" on="0"/>
        <pt x="544" y="854" on="0"/>
        <pt x="544" y="914" on="0"/>
      </contour>
      <contour>
        <pt x="608" y="-2" on="1"/>
        <pt x="552" y="-2" on="0"/>
        <pt x="495" y="71" on="0"/>
        <pt x="485" y="171" on="1"/>
        <pt x="479" y="223" on="0"/>
        <pt x="473" y="306" on="1"/>
        <pt x="403" y="285" on="0"/>
        <pt x="332" y="262" on="1"/>
        <pt x="298" y="168" on="1"/>
        <pt x="288" y="141" on="0"/>
        <pt x="280" y="118" on="0"/>
        <pt x="259" y="72" on="0"/>
        <pt x="244" y="51" on="0"/>
        <pt x="217" y="19" on="0"/>
        <pt x="203" y="12" on="1"/>
        <pt x="167" y="-6" on="0"/>
        <pt x="85" y="-6" on="0"/>
        <pt x="34" y="53" on="0"/>
        <pt x="34" y="96" on="1"/>
        <pt x="34" y="108" on="0"/>
        <pt x="36" y="121" on="1"/>
        <pt x="49" y="217" on="0"/>
        <pt x="233" y="296" on="1"/>
        <pt x="285" y="429" on="0"/>
        <pt x="406" y="744" on="1"/>
        <pt x="438" y="762" on="0"/>
        <pt x="487" y="762" on="1"/>
        <pt x="498" y="762" on="0"/>
        <pt x="518" y="762" on="0"/>
        <pt x="547" y="762" on="0"/>
        <pt x="569" y="756" on="1"/>
        <pt x="570" y="709" on="0"/>
        <pt x="615" y="173" on="1"/>
        <pt x="619" y="128" on="0"/>
        <pt x="633" y="101" on="0"/>
        <pt x="650" y="101" on="1"/>
        <pt x="678" y="101" on="0"/>
        <pt x="771" y="177" on="0"/>
        <pt x="808" y="234" on="1"/>
        <pt x="836" y="166" on="1"/>
        <pt x="812" y="134" on="1"/>
        <pt x="707" y="-2" on="0"/>
      </contour>
      <contour>
        <pt x="449" y="588" on="1"/>
        <pt x="362" y="345" on="1"/>
        <pt x="432" y="369" on="0"/>
        <pt x="466" y="380" on="1"/>
      </contour>
      <contour>
        <pt x="105" y="117" on="1"/>
        <pt x="105" y="85" on="0"/>
        <pt x="129" y="85" on="1"/>
        <pt x="147" y="85" on="0"/>
        <pt x="158" y="111" on="1"/>
        <pt x="171" y="139" on="0"/>
        <pt x="198" y="209" on="1"/>
        <pt x="105" y="162" on="0"/>
      </contour>
    </TTGlyph>
    <TTGlyph name="Agrave" xMin="34" yMin="-6" xMax="836" yMax="1017">
      <contour>
        <pt x="469" y="1017" on="1"/>
        <pt x="596" y="830" on="1"/>
        <pt x="570" y="800" on="0"/>
        <pt x="558" y="793" on="1"/>
        <pt x="378" y="926" on="1"/>
        <pt x="395" y="950" on="0"/>
        <pt x="449" y="1007" on="0"/>
      </contour>
      <contour>
        <pt x="608" y="-2" on="1"/>
        <pt x="552" y="-2" on="0"/>
        <pt x="495" y="71" on="0"/>
        <pt x="485" y="171" on="1"/>
        <pt x="479" y="223" on="0"/>
        <pt x="473" y="306" on="1"/>
        <pt x="403" y="285" on="0"/>
        <pt x="332" y="262" on="1"/>
        <pt x="298" y="168" on="1"/>
        <pt x="288" y="141" on="0"/>
        <pt x="280" y="118" on="0"/>
        <pt x="259" y="72" on="0"/>
        <pt x="244" y="51" on="0"/>
        <pt x="217" y="19" on="0"/>
        <pt x="203" y="12" on="1"/>
        <pt x="167" y="-6" on="0"/>
        <pt x="85" y="-6" on="0"/>
        <pt x="34" y="53" on="0"/>
        <pt x="34" y="96" on="1"/>
        <pt x="34" y="108" on="0"/>
        <pt x="36" y="121" on="1"/>
        <pt x="49" y="217" on="0"/>
        <pt x="233" y="296" on="1"/>
        <pt x="285" y="429" on="0"/>
        <pt x="406" y="744" on="1"/>
        <pt x="438" y="762" on="0"/>
        <pt x="487" y="762" on="1"/>
        <pt x="498" y="762" on="0"/>
        <pt x="518" y="762" on="0"/>
        <pt x="547" y="762" on="0"/>
        <pt x="569" y="756" on="1"/>
        <pt x="570" y="709" on="0"/>
        <pt x="615" y="173" on="1"/>
        <pt x="619" y="128" on="0"/>
        <pt x="633" y="101" on="0"/>
        <pt x="650" y="101" on="1"/>
        <pt x="678" y="101" on="0"/>
        <pt x="771" y="177" on="0"/>
        <pt x="808" y="234" on="1"/>
        <pt x="836" y="166" on="1"/>
        <pt x="812" y="134" on="1"/>
        <pt x="707" y="-2" on="0"/>
      </contour>
      <contour>
        <pt x="449" y="588" on="1"/>
        <pt x="362" y="345" on="1"/>
        <pt x="432" y="369" on="0"/>
        <pt x="466" y="380" on="1"/>
      </contour>
      <contour>
        <pt x="105" y="162" on="0"/>
        <pt x="105" y="117" on="1"/>
        <pt x="105" y="85" on="0"/>
        <pt x="129" y="85" on="1"/>
        <pt x="147" y="85" on="0"/>
        <pt x="158" y="111" on="1"/>
        <pt x="171" y="139" on="0"/>
        <pt x="198" y="209" on="1"/>
      </contour>
    </TTGlyph>
    <TTGlyph name="Aring" xMin="34" yMin="-6" xMax="836" yMax="945">
      <contour>
        <pt x="608" y="-2" on="1"/>
        <pt x="552" y="-2" on="0"/>
        <pt x="495" y="71" on="0"/>
        <pt x="485" y="171" on="1"/>
        <pt x="479" y="223" on="0"/>
        <pt x="473" y="306" on="1"/>
        <pt x="403" y="285" on="0"/>
        <pt x="332" y="262" on="1"/>
        <pt x="298" y="168" on="1"/>
        <pt x="288" y="141" on="0"/>
        <pt x="280" y="118" on="0"/>
        <pt x="259" y="72" on="0"/>
        <pt x="244" y="51" on="0"/>
        <pt x="217" y="19" on="0"/>
        <pt x="203" y="12" on="1"/>
        <pt x="167" y="-6" on="0"/>
        <pt x="85" y="-6" on="0"/>
        <pt x="34" y="53" on="0"/>
        <pt x="34" y="96" on="1"/>
        <pt x="34" y="108" on="0"/>
        <pt x="36" y="121" on="1"/>
        <pt x="49" y="217" on="0"/>
        <pt x="233" y="296" on="1"/>
        <pt x="285" y="429" on="0"/>
        <pt x="406" y="744" on="1"/>
        <pt x="426" y="753" on="1"/>
        <pt x="379" y="783" on="0"/>
        <pt x="379" y="884" on="0"/>
        <pt x="440" y="945" on="0"/>
        <pt x="528" y="945" on="0"/>
        <pt x="589" y="884" on="0"/>
        <pt x="589" y="792" on="0"/>
        <pt x="552" y="760" on="1"/>
        <pt x="569" y="756" on="1"/>
        <pt x="570" y="709" on="0"/>
        <pt x="615" y="173" on="1"/>
        <pt x="619" y="128" on="0"/>
        <pt x="633" y="101" on="0"/>
        <pt x="650" y="101" on="1"/>
        <pt x="678" y="101" on="0"/>
        <pt x="771" y="177" on="0"/>
        <pt x="808" y="234" on="1"/>
        <pt x="836" y="166" on="1"/>
        <pt x="812" y="134" on="1"/>
        <pt x="707" y="-2" on="0"/>
      </contour>
      <contour>
        <pt x="504" y="889" on="0"/>
        <pt x="464" y="889" on="0"/>
        <pt x="435" y="860" on="0"/>
        <pt x="435" y="820" on="0"/>
        <pt x="464" y="791" on="0"/>
        <pt x="504" y="791" on="0"/>
        <pt x="533" y="820" on="0"/>
        <pt x="533" y="860" on="0"/>
      </contour>
      <contour>
        <pt x="449" y="588" on="1"/>
        <pt x="362" y="345" on="1"/>
        <pt x="432" y="369" on="0"/>
        <pt x="466" y="380" on="1"/>
      </contour>
      <contour>
        <pt x="105" y="117" on="1"/>
        <pt x="105" y="85" on="0"/>
        <pt x="129" y="85" on="1"/>
        <pt x="147" y="85" on="0"/>
        <pt x="158" y="111" on="1"/>
        <pt x="171" y="139" on="0"/>
        <pt x="198" y="209" on="1"/>
        <pt x="105" y="162" on="0"/>
      </contour>
    </TTGlyph>
    <TTGlyph name="Atilde" xMin="34" yMin="-6" xMax="836" yMax="980">
      <contour>
        <pt x="474" y="979" on="0"/>
        <pt x="584" y="909" on="0"/>
        <pt x="607" y="909" on="1"/>
        <pt x="653" y="909" on="0"/>
        <pt x="681" y="977" on="1"/>
        <pt x="725" y="952" on="1"/>
        <pt x="716" y="887" on="0"/>
        <pt x="647" y="804" on="0"/>
        <pt x="553" y="804" on="0"/>
        <pt x="500" y="841" on="1"/>
        <pt x="446" y="879" on="0"/>
        <pt x="402" y="879" on="0"/>
        <pt x="370" y="854" on="0"/>
        <pt x="354" y="820" on="1"/>
        <pt x="310" y="846" on="1"/>
        <pt x="323" y="904" on="0"/>
        <pt x="387" y="979" on="0"/>
      </contour>
      <contour>
        <pt x="608" y="-2" on="1"/>
        <pt x="552" y="-2" on="0"/>
        <pt x="495" y="71" on="0"/>
        <pt x="485" y="171" on="1"/>
        <pt x="479" y="223" on="0"/>
        <pt x="473" y="306" on="1"/>
        <pt x="403" y="285" on="0"/>
        <pt x="332" y="262" on="1"/>
        <pt x="298" y="168" on="1"/>
        <pt x="288" y="141" on="0"/>
        <pt x="280" y="118" on="0"/>
        <pt x="259" y="72" on="0"/>
        <pt x="244" y="51" on="0"/>
        <pt x="217" y="19" on="0"/>
        <pt x="203" y="12" on="1"/>
        <pt x="167" y="-6" on="0"/>
        <pt x="85" y="-6" on="0"/>
        <pt x="34" y="53" on="0"/>
        <pt x="34" y="96" on="1"/>
        <pt x="34" y="108" on="0"/>
        <pt x="36" y="121" on="1"/>
        <pt x="49" y="217" on="0"/>
        <pt x="233" y="296" on="1"/>
        <pt x="285" y="429" on="0"/>
        <pt x="406" y="744" on="1"/>
        <pt x="438" y="762" on="0"/>
        <pt x="487" y="762" on="1"/>
        <pt x="498" y="762" on="0"/>
        <pt x="518" y="762" on="0"/>
        <pt x="547" y="762" on="0"/>
        <pt x="569" y="756" on="1"/>
        <pt x="570" y="709" on="0"/>
        <pt x="615" y="173" on="1"/>
        <pt x="619" y="128" on="0"/>
        <pt x="633" y="101" on="0"/>
        <pt x="650" y="101" on="1"/>
        <pt x="678" y="101" on="0"/>
        <pt x="771" y="177" on="0"/>
        <pt x="808" y="234" on="1"/>
        <pt x="836" y="166" on="1"/>
        <pt x="812" y="134" on="1"/>
        <pt x="707" y="-2" on="0"/>
      </contour>
      <contour>
        <pt x="449" y="588" on="1"/>
        <pt x="362" y="345" on="1"/>
        <pt x="432" y="369" on="0"/>
        <pt x="466" y="380" on="1"/>
      </contour>
      <contour>
        <pt x="105" y="117" on="1"/>
        <pt x="105" y="85" on="0"/>
        <pt x="129" y="85" on="1"/>
        <pt x="147" y="85" on="0"/>
        <pt x="158" y="111" on="1"/>
        <pt x="171" y="139" on="0"/>
        <pt x="198" y="209" on="1"/>
        <pt x="105" y="162" on="0"/>
      </contour>
    </TTGlyph>
    <TTGlyph name="B" xMin="32" yMin="-6" xMax="711" yMax="761">
      <contour>
        <pt x="42" y="541" on="1"/>
        <pt x="42" y="636" on="0"/>
        <pt x="210" y="761" on="0"/>
        <pt x="348" y="761" on="1"/>
        <pt x="421" y="761" on="0"/>
        <pt x="537" y="732" on="0"/>
        <pt x="605" y="688" on="0"/>
        <pt x="628" y="659" on="1"/>
        <pt x="666" y="609" on="0"/>
        <pt x="665" y="486" on="0"/>
        <pt x="569" y="390" on="0"/>
        <pt x="501" y="388" on="1"/>
        <pt x="586" y="382" on="0"/>
        <pt x="711" y="282" on="0"/>
        <pt x="711" y="206" on="1"/>
        <pt x="711" y="106" on="0"/>
        <pt x="557" y="-6" on="0"/>
        <pt x="336" y="-6" on="0"/>
        <pt x="296" y="23" on="1"/>
        <pt x="327" y="107" on="1"/>
        <pt x="371" y="84" on="0"/>
        <pt x="488" y="84" on="0"/>
        <pt x="562" y="153" on="0"/>
        <pt x="562" y="267" on="0"/>
        <pt x="461" y="345" on="0"/>
        <pt x="374" y="345" on="1"/>
        <pt x="383" y="419" on="1"/>
        <pt x="443" y="419" on="0"/>
        <pt x="526" y="476" on="0"/>
        <pt x="529" y="590" on="0"/>
        <pt x="476" y="629" on="1"/>
        <pt x="419" y="670" on="0"/>
        <pt x="320" y="670" on="1"/>
        <pt x="255" y="670" on="0"/>
        <pt x="131" y="603" on="0"/>
        <pt x="131" y="547" on="1"/>
        <pt x="131" y="520" on="0"/>
        <pt x="175" y="483" on="0"/>
        <pt x="211" y="479" on="1"/>
        <pt x="200" y="405" on="1"/>
        <pt x="124" y="408" on="0"/>
        <pt x="42" y="488" on="0"/>
      </contour>
      <contour>
        <pt x="312" y="85" on="0"/>
        <pt x="220" y="-4" on="0"/>
        <pt x="96" y="-4" on="0"/>
        <pt x="32" y="60" on="0"/>
        <pt x="32" y="110" on="1"/>
        <pt x="32" y="228" on="0"/>
        <pt x="211" y="311" on="1"/>
        <pt x="216" y="353" on="0"/>
        <pt x="235" y="496" on="0"/>
        <pt x="246" y="584" on="0"/>
        <pt x="248" y="598" on="1"/>
        <pt x="289" y="624" on="0"/>
        <pt x="343" y="624" on="1"/>
        <pt x="368" y="624" on="0"/>
        <pt x="391" y="619" on="1"/>
        <pt x="328" y="192" on="1"/>
      </contour>
      <contour>
        <pt x="106" y="123" on="1"/>
        <pt x="106" y="87" on="0"/>
        <pt x="140" y="87" on="1"/>
        <pt x="154" y="87" on="0"/>
        <pt x="185" y="124" on="0"/>
        <pt x="191" y="164" on="1"/>
        <pt x="200" y="226" on="1"/>
        <pt x="106" y="173" on="0"/>
      </contour>
    </TTGlyph>
    <TTGlyph name="C" xMin="30" yMin="-6" xMax="675" yMax="761">
      <contour>
        <pt x="330" y="-6" on="1"/>
        <pt x="175" y="-6" on="0"/>
        <pt x="30" y="152" on="0"/>
        <pt x="30" y="411" on="0"/>
        <pt x="119" y="624" on="0"/>
        <pt x="295" y="761" on="0"/>
        <pt x="500" y="761" on="0"/>
        <pt x="617" y="662" on="0"/>
        <pt x="617" y="495" on="0"/>
        <pt x="514" y="385" on="0"/>
        <pt x="376" y="385" on="0"/>
        <pt x="300" y="446" on="0"/>
        <pt x="300" y="515" on="0"/>
        <pt x="355" y="554" on="0"/>
        <pt x="408" y="554" on="1"/>
        <pt x="395" y="541" on="0"/>
        <pt x="395" y="498" on="0"/>
        <pt x="421" y="466" on="0"/>
        <pt x="475" y="466" on="0"/>
        <pt x="529" y="523" on="0"/>
        <pt x="529" y="617" on="0"/>
        <pt x="472" y="673" on="0"/>
        <pt x="420" y="673" on="1"/>
        <pt x="352" y="673" on="0"/>
        <pt x="241" y="563" on="0"/>
        <pt x="183" y="393" on="0"/>
        <pt x="183" y="299" on="1"/>
        <pt x="183" y="218" on="0"/>
        <pt x="218" y="156" on="1"/>
        <pt x="236" y="124" on="0"/>
        <pt x="307" y="86" on="0"/>
        <pt x="355" y="86" on="1"/>
        <pt x="437" y="86" on="0"/>
        <pt x="589" y="191" on="0"/>
        <pt x="641" y="274" on="1"/>
        <pt x="675" y="213" on="1"/>
        <pt x="616" y="117" on="0"/>
        <pt x="438" y="-6" on="0"/>
      </contour>
    </TTGlyph>
    <TTGlyph name="Ccedilla" xMin="30" yMin="-230" xMax="675" yMax="761">
      <contour>
        <pt x="382" y="-32" on="0"/>
        <pt x="441" y="-80" on="0"/>
        <pt x="441" y="-172" on="0"/>
        <pt x="372" y="-230" on="0"/>
        <pt x="328" y="-230" on="1"/>
        <pt x="257" y="-230" on="0"/>
        <pt x="223" y="-182" on="1"/>
        <pt x="241" y="-144" on="1"/>
        <pt x="250" y="-158" on="0"/>
        <pt x="295" y="-184" on="0"/>
        <pt x="339" y="-184" on="0"/>
        <pt x="368" y="-151" on="0"/>
        <pt x="368" y="-100" on="0"/>
        <pt x="329" y="-70" on="0"/>
        <pt x="273" y="-70" on="0"/>
        <pt x="268" y="-71" on="1"/>
        <pt x="293" y="-5" on="1"/>
        <pt x="157" y="5" on="0"/>
        <pt x="30" y="161" on="0"/>
        <pt x="30" y="411" on="0"/>
        <pt x="119" y="624" on="0"/>
        <pt x="295" y="761" on="0"/>
        <pt x="500" y="761" on="0"/>
        <pt x="617" y="662" on="0"/>
        <pt x="617" y="495" on="0"/>
        <pt x="514" y="385" on="0"/>
        <pt x="376" y="385" on="0"/>
        <pt x="300" y="446" on="0"/>
        <pt x="300" y="515" on="0"/>
        <pt x="355" y="554" on="0"/>
        <pt x="408" y="554" on="1"/>
        <pt x="395" y="541" on="0"/>
        <pt x="395" y="498" on="0"/>
        <pt x="421" y="466" on="0"/>
        <pt x="475" y="466" on="0"/>
        <pt x="529" y="523" on="0"/>
        <pt x="529" y="617" on="0"/>
        <pt x="472" y="673" on="0"/>
        <pt x="420" y="673" on="1"/>
        <pt x="352" y="673" on="0"/>
        <pt x="241" y="563" on="0"/>
        <pt x="183" y="393" on="0"/>
        <pt x="183" y="299" on="1"/>
        <pt x="183" y="218" on="0"/>
        <pt x="218" y="156" on="1"/>
        <pt x="236" y="124" on="0"/>
        <pt x="307" y="86" on="0"/>
        <pt x="355" y="86" on="1"/>
        <pt x="437" y="86" on="0"/>
        <pt x="589" y="191" on="0"/>
        <pt x="641" y="274" on="1"/>
        <pt x="675" y="213" on="1"/>
        <pt x="619" y="121" on="0"/>
        <pt x="451" y="1" on="0"/>
        <pt x="349" y="-5" on="1"/>
        <pt x="339" y="-33" on="1"/>
        <pt x="345" y="-32" on="1"/>
      </contour>
    </TTGlyph>
    <TTGlyph name="D" xMin="30" yMin="-10" xMax="747" yMax="766">
      <contour>
        <pt x="45" y="536" on="1"/>
        <pt x="45" y="643" on="0"/>
        <pt x="231" y="765" on="0"/>
        <pt x="352" y="765" on="1"/>
        <pt x="507" y="765" on="0"/>
        <pt x="624" y="676" on="1"/>
        <pt x="682" y="631" on="0"/>
        <pt x="746" y="482" on="0"/>
        <pt x="746" y="392" on="1"/>
        <pt x="746" y="215" on="0"/>
        <pt x="645" y="104" on="1"/>
        <pt x="540" y="-9" on="0"/>
        <pt x="382" y="-9" on="1"/>
        <pt x="347" y="-9" on="0"/>
        <pt x="269" y="9" on="0"/>
        <pt x="246" y="24" on="1"/>
        <pt x="209" y="-4" on="0"/>
        <pt x="94" y="-4" on="0"/>
        <pt x="30" y="60" on="0"/>
        <pt x="30" y="110" on="1"/>
        <pt x="30" y="228" on="0"/>
        <pt x="209" y="311" on="1"/>
        <pt x="214" y="353" on="0"/>
        <pt x="233" y="496" on="0"/>
        <pt x="244" y="584" on="0"/>
        <pt x="246" y="598" on="1"/>
        <pt x="287" y="624" on="0"/>
        <pt x="341" y="624" on="1"/>
        <pt x="366" y="624" on="0"/>
        <pt x="389" y="619" on="1"/>
        <pt x="326" y="192" on="1"/>
        <pt x="317" y="135" on="0"/>
        <pt x="301" y="97" on="1"/>
        <pt x="332" y="89" on="0"/>
        <pt x="351" y="89" on="1"/>
        <pt x="466" y="89" on="0"/>
        <pt x="529" y="176" on="1"/>
        <pt x="594" y="267" on="0"/>
        <pt x="594" y="396" on="1"/>
        <pt x="594" y="561" on="0"/>
        <pt x="475" y="633" on="1"/>
        <pt x="409" y="673" on="0"/>
        <pt x="330" y="673" on="1"/>
        <pt x="229" y="673" on="0"/>
        <pt x="170" y="618" on="1"/>
        <pt x="136" y="587" on="0"/>
        <pt x="136" y="543" on="1"/>
        <pt x="136" y="520" on="0"/>
        <pt x="164" y="479" on="0"/>
        <pt x="199" y="476" on="1"/>
        <pt x="189" y="411" on="1"/>
        <pt x="116" y="415" on="0"/>
        <pt x="45" y="488" on="0"/>
      </contour>
      <contour>
        <pt x="104" y="123" on="1"/>
        <pt x="104" y="87" on="0"/>
        <pt x="138" y="87" on="1"/>
        <pt x="152" y="87" on="0"/>
        <pt x="183" y="124" on="0"/>
        <pt x="189" y="164" on="1"/>
        <pt x="198" y="226" on="1"/>
        <pt x="104" y="173" on="0"/>
      </contour>
    </TTGlyph>
    <TTGlyph name="E" xMin="22" yMin="-6" xMax="653" yMax="761">
      <contour>
        <pt x="234" y="349" on="1"/>
        <pt x="176" y="308" on="0"/>
        <pt x="176" y="227" on="1"/>
        <pt x="176" y="176" on="0"/>
        <pt x="249" y="86" on="0"/>
        <pt x="423" y="86" on="0"/>
        <pt x="579" y="204" on="0"/>
        <pt x="619" y="274" on="1"/>
        <pt x="653" y="213" on="1"/>
        <pt x="524" y="-6" on="0"/>
        <pt x="294" y="-6" on="1"/>
        <pt x="180" y="-6" on="0"/>
        <pt x="22" y="117" on="0"/>
        <pt x="22" y="200" on="1"/>
        <pt x="22" y="345" on="0"/>
        <pt x="151" y="410" on="1"/>
        <pt x="108" y="463" on="0"/>
        <pt x="108" y="534" on="1"/>
        <pt x="108" y="627" on="0"/>
        <pt x="269" y="761" on="0"/>
        <pt x="481" y="761" on="0"/>
        <pt x="596" y="653" on="0"/>
        <pt x="596" y="565" on="1"/>
        <pt x="501" y="565" on="1"/>
        <pt x="502" y="619" on="0"/>
        <pt x="443" y="674" on="0"/>
        <pt x="338" y="674" on="0"/>
        <pt x="296" y="636" on="1"/>
        <pt x="249" y="595" on="0"/>
        <pt x="249" y="485" on="0"/>
        <pt x="279" y="445" on="1"/>
        <pt x="379" y="457" on="0"/>
        <pt x="431" y="432" on="1"/>
        <pt x="463" y="417" on="0"/>
        <pt x="463" y="352" on="0"/>
        <pt x="390" y="326" on="0"/>
        <pt x="288" y="326" on="0"/>
      </contour>
    </TTGlyph>
    <TTGlyph name="Eacute" xMin="22" yMin="-6" xMax="653" yMax="1017">
      <contour>
        <pt x="323" y="830" on="1"/>
        <pt x="450" y="1017" on="1"/>
        <pt x="470" y="1007" on="0"/>
        <pt x="524" y="950" on="0"/>
        <pt x="541" y="926" on="1"/>
        <pt x="361" y="793" on="1"/>
        <pt x="349" y="800" on="0"/>
      </contour>
      <contour>
        <pt x="234" y="349" on="1"/>
        <pt x="176" y="308" on="0"/>
        <pt x="176" y="227" on="1"/>
        <pt x="176" y="176" on="0"/>
        <pt x="249" y="86" on="0"/>
        <pt x="423" y="86" on="0"/>
        <pt x="579" y="204" on="0"/>
        <pt x="619" y="274" on="1"/>
        <pt x="653" y="213" on="1"/>
        <pt x="524" y="-6" on="0"/>
        <pt x="294" y="-6" on="1"/>
        <pt x="180" y="-6" on="0"/>
        <pt x="22" y="117" on="0"/>
        <pt x="22" y="200" on="1"/>
        <pt x="22" y="345" on="0"/>
        <pt x="151" y="410" on="1"/>
        <pt x="108" y="463" on="0"/>
        <pt x="108" y="534" on="1"/>
        <pt x="108" y="627" on="0"/>
        <pt x="269" y="761" on="0"/>
        <pt x="481" y="761" on="0"/>
        <pt x="596" y="653" on="0"/>
        <pt x="596" y="565" on="1"/>
        <pt x="501" y="565" on="1"/>
        <pt x="502" y="619" on="0"/>
        <pt x="443" y="674" on="0"/>
        <pt x="338" y="674" on="0"/>
        <pt x="296" y="636" on="1"/>
        <pt x="249" y="595" on="0"/>
        <pt x="249" y="485" on="0"/>
        <pt x="279" y="445" on="1"/>
        <pt x="379" y="457" on="0"/>
        <pt x="431" y="432" on="1"/>
        <pt x="463" y="417" on="0"/>
        <pt x="463" y="352" on="0"/>
        <pt x="390" y="326" on="0"/>
        <pt x="288" y="326" on="0"/>
      </contour>
    </TTGlyph>
    <TTGlyph name="Ecircumflex" xMin="22" yMin="-6" xMax="653" yMax="980">
      <contour>
        <pt x="392" y="980" on="1"/>
        <pt x="566" y="859" on="1"/>
        <pt x="545" y="820" on="0"/>
        <pt x="533" y="801" on="1"/>
        <pt x="392" y="874" on="1"/>
        <pt x="251" y="801" on="1"/>
        <pt x="239" y="820" on="0"/>
        <pt x="218" y="859" on="1"/>
      </contour>
      <contour>
        <pt x="234" y="349" on="1"/>
        <pt x="176" y="308" on="0"/>
        <pt x="176" y="227" on="1"/>
        <pt x="176" y="176" on="0"/>
        <pt x="249" y="86" on="0"/>
        <pt x="423" y="86" on="0"/>
        <pt x="579" y="204" on="0"/>
        <pt x="619" y="274" on="1"/>
        <pt x="653" y="213" on="1"/>
        <pt x="524" y="-6" on="0"/>
        <pt x="294" y="-6" on="1"/>
        <pt x="180" y="-6" on="0"/>
        <pt x="22" y="117" on="0"/>
        <pt x="22" y="200" on="1"/>
        <pt x="22" y="345" on="0"/>
        <pt x="151" y="410" on="1"/>
        <pt x="108" y="463" on="0"/>
        <pt x="108" y="534" on="1"/>
        <pt x="108" y="627" on="0"/>
        <pt x="269" y="761" on="0"/>
        <pt x="481" y="761" on="0"/>
        <pt x="596" y="653" on="0"/>
        <pt x="596" y="565" on="1"/>
        <pt x="501" y="565" on="1"/>
        <pt x="502" y="619" on="0"/>
        <pt x="443" y="674" on="0"/>
        <pt x="338" y="674" on="0"/>
        <pt x="296" y="636" on="1"/>
        <pt x="249" y="595" on="0"/>
        <pt x="249" y="485" on="0"/>
        <pt x="279" y="445" on="1"/>
        <pt x="379" y="457" on="0"/>
        <pt x="431" y="432" on="1"/>
        <pt x="463" y="417" on="0"/>
        <pt x="463" y="352" on="0"/>
        <pt x="390" y="326" on="0"/>
        <pt x="288" y="326" on="0"/>
      </contour>
    </TTGlyph>
    <TTGlyph name="Edieresis" xMin="22" yMin="-6" xMax="653" yMax="957">
      <contour>
        <pt x="198" y="914" on="0"/>
        <pt x="239" y="957" on="0"/>
        <pt x="299" y="957" on="0"/>
        <pt x="341" y="914" on="0"/>
        <pt x="341" y="854" on="0"/>
        <pt x="299" y="812" on="0"/>
        <pt x="239" y="812" on="0"/>
        <pt x="198" y="854" on="0"/>
      </contour>
      <contour>
        <pt x="480" y="957" on="0"/>
        <pt x="540" y="957" on="0"/>
        <pt x="582" y="914" on="0"/>
        <pt x="582" y="854" on="0"/>
        <pt x="541" y="812" on="0"/>
        <pt x="480" y="812" on="0"/>
        <pt x="437" y="854" on="0"/>
        <pt x="437" y="914" on="0"/>
      </contour>
      <contour>
        <pt x="234" y="349" on="1"/>
        <pt x="176" y="308" on="0"/>
        <pt x="176" y="227" on="1"/>
        <pt x="176" y="176" on="0"/>
        <pt x="249" y="86" on="0"/>
        <pt x="423" y="86" on="0"/>
        <pt x="579" y="204" on="0"/>
        <pt x="619" y="274" on="1"/>
        <pt x="653" y="213" on="1"/>
        <pt x="524" y="-6" on="0"/>
        <pt x="294" y="-6" on="1"/>
        <pt x="180" y="-6" on="0"/>
        <pt x="22" y="117" on="0"/>
        <pt x="22" y="200" on="1"/>
        <pt x="22" y="345" on="0"/>
        <pt x="151" y="410" on="1"/>
        <pt x="108" y="463" on="0"/>
        <pt x="108" y="534" on="1"/>
        <pt x="108" y="627" on="0"/>
        <pt x="269" y="761" on="0"/>
        <pt x="481" y="761" on="0"/>
        <pt x="596" y="653" on="0"/>
        <pt x="596" y="565" on="1"/>
        <pt x="501" y="565" on="1"/>
        <pt x="502" y="619" on="0"/>
        <pt x="443" y="674" on="0"/>
        <pt x="338" y="674" on="0"/>
        <pt x="296" y="636" on="1"/>
        <pt x="249" y="595" on="0"/>
        <pt x="249" y="485" on="0"/>
        <pt x="279" y="445" on="1"/>
        <pt x="379" y="457" on="0"/>
        <pt x="431" y="432" on="1"/>
        <pt x="463" y="417" on="0"/>
        <pt x="463" y="352" on="0"/>
        <pt x="390" y="326" on="0"/>
        <pt x="288" y="326" on="0"/>
      </contour>
    </TTGlyph>
    <TTGlyph name="Egrave" xMin="22" yMin="-6" xMax="653" yMax="1017">
      <contour>
        <pt x="362" y="1017" on="1"/>
        <pt x="489" y="830" on="1"/>
        <pt x="463" y="800" on="0"/>
        <pt x="451" y="793" on="1"/>
        <pt x="271" y="926" on="1"/>
        <pt x="288" y="950" on="0"/>
        <pt x="342" y="1007" on="0"/>
      </contour>
      <contour>
        <pt x="234" y="349" on="1"/>
        <pt x="176" y="308" on="0"/>
        <pt x="176" y="227" on="1"/>
        <pt x="176" y="176" on="0"/>
        <pt x="249" y="86" on="0"/>
        <pt x="423" y="86" on="0"/>
        <pt x="579" y="204" on="0"/>
        <pt x="619" y="274" on="1"/>
        <pt x="653" y="213" on="1"/>
        <pt x="524" y="-6" on="0"/>
        <pt x="294" y="-6" on="1"/>
        <pt x="180" y="-6" on="0"/>
        <pt x="22" y="117" on="0"/>
        <pt x="22" y="200" on="1"/>
        <pt x="22" y="345" on="0"/>
        <pt x="151" y="410" on="1"/>
        <pt x="108" y="463" on="0"/>
        <pt x="108" y="534" on="1"/>
        <pt x="108" y="627" on="0"/>
        <pt x="269" y="761" on="0"/>
        <pt x="481" y="761" on="0"/>
        <pt x="596" y="653" on="0"/>
        <pt x="596" y="565" on="1"/>
        <pt x="501" y="565" on="1"/>
        <pt x="502" y="619" on="0"/>
        <pt x="443" y="674" on="0"/>
        <pt x="338" y="674" on="0"/>
        <pt x="296" y="636" on="1"/>
        <pt x="249" y="595" on="0"/>
        <pt x="249" y="485" on="0"/>
        <pt x="279" y="445" on="1"/>
        <pt x="379" y="457" on="0"/>
        <pt x="431" y="432" on="1"/>
        <pt x="463" y="417" on="0"/>
        <pt x="463" y="352" on="0"/>
        <pt x="390" y="326" on="0"/>
        <pt x="288" y="326" on="0"/>
      </contour>
    </TTGlyph>
    <TTGlyph name="Eth" xMin="30" yMin="-10" xMax="747" yMax="766">
      <contour>
        <pt x="45" y="534" on="1"/>
        <pt x="45" y="643" on="0"/>
        <pt x="231" y="765" on="0"/>
        <pt x="352" y="765" on="1"/>
        <pt x="507" y="765" on="0"/>
        <pt x="624" y="676" on="1"/>
        <pt x="682" y="631" on="0"/>
        <pt x="746" y="482" on="0"/>
        <pt x="746" y="392" on="1"/>
        <pt x="746" y="215" on="0"/>
        <pt x="645" y="104" on="1"/>
        <pt x="540" y="-9" on="0"/>
        <pt x="382" y="-9" on="1"/>
        <pt x="347" y="-9" on="0"/>
        <pt x="269" y="9" on="0"/>
        <pt x="246" y="24" on="1"/>
        <pt x="209" y="-4" on="0"/>
        <pt x="94" y="-4" on="0"/>
        <pt x="30" y="60" on="0"/>
        <pt x="30" y="110" on="1"/>
        <pt x="30" y="228" on="0"/>
        <pt x="209" y="311" on="1"/>
        <pt x="219" y="391" on="1"/>
        <pt x="43" y="391" on="1"/>
        <pt x="52" y="477" on="1"/>
        <pt x="60" y="477" on="1"/>
        <pt x="45" y="504" on="0"/>
      </contour>
      <contour>
        <pt x="301" y="97" on="1"/>
        <pt x="332" y="89" on="0"/>
        <pt x="351" y="89" on="1"/>
        <pt x="466" y="89" on="0"/>
        <pt x="529" y="176" on="1"/>
        <pt x="594" y="267" on="0"/>
        <pt x="594" y="396" on="1"/>
        <pt x="594" y="561" on="0"/>
        <pt x="475" y="633" on="1"/>
        <pt x="409" y="673" on="0"/>
        <pt x="330" y="673" on="1"/>
        <pt x="229" y="673" on="0"/>
        <pt x="170" y="618" on="1"/>
        <pt x="136" y="587" on="0"/>
        <pt x="136" y="543" on="1"/>
        <pt x="136" y="522" on="0"/>
        <pt x="161" y="482" on="0"/>
        <pt x="192" y="477" on="1"/>
        <pt x="230" y="477" on="1"/>
        <pt x="242" y="577" on="0"/>
        <pt x="246" y="598" on="1"/>
        <pt x="287" y="624" on="0"/>
        <pt x="341" y="624" on="1"/>
        <pt x="366" y="624" on="0"/>
        <pt x="389" y="619" on="1"/>
        <pt x="368" y="477" on="1"/>
        <pt x="434" y="477" on="1"/>
        <pt x="425" y="391" on="1"/>
        <pt x="355" y="391" on="1"/>
        <pt x="326" y="192" on="1"/>
        <pt x="317" y="135" on="0"/>
      </contour>
      <contour>
        <pt x="104" y="123" on="1"/>
        <pt x="104" y="87" on="0"/>
        <pt x="138" y="87" on="1"/>
        <pt x="152" y="87" on="0"/>
        <pt x="183" y="124" on="0"/>
        <pt x="189" y="164" on="1"/>
        <pt x="198" y="226" on="1"/>
        <pt x="104" y="173" on="0"/>
      </contour>
    </TTGlyph>
    <TTGlyph name="Euro" xMin="-29" yMin="-6" xMax="675" yMax="761">
      <contour>
        <pt x="523" y="579" on="1"/>
        <pt x="522" y="592" on="1"/>
        <pt x="522" y="595" on="0"/>
        <pt x="521" y="599" on="1"/>
        <pt x="516" y="634" on="0"/>
        <pt x="496" y="651" on="1"/>
        <pt x="498" y="652" on="1"/>
        <pt x="472" y="671" on="0"/>
        <pt x="421" y="673" on="1"/>
        <pt x="420" y="673" on="1"/>
        <pt x="347" y="673" on="0"/>
        <pt x="233" y="550" on="0"/>
        <pt x="205" y="453" on="1"/>
        <pt x="439" y="453" on="1"/>
        <pt x="418" y="382" on="1"/>
        <pt x="189" y="382" on="1"/>
        <pt x="187" y="369" on="0"/>
        <pt x="185" y="343" on="1"/>
        <pt x="399" y="343" on="1"/>
        <pt x="378" y="272" on="1"/>
        <pt x="184" y="272" on="1"/>
        <pt x="189" y="192" on="0"/>
        <pt x="270" y="86" on="0"/>
        <pt x="437" y="86" on="0"/>
        <pt x="589" y="191" on="0"/>
        <pt x="641" y="274" on="1"/>
        <pt x="675" y="213" on="1"/>
        <pt x="616" y="117" on="0"/>
        <pt x="438" y="-6" on="0"/>
        <pt x="330" y="-6" on="1"/>
        <pt x="200" y="-6" on="0"/>
        <pt x="37" y="146" on="0"/>
        <pt x="30" y="272" on="1"/>
        <pt x="-29" y="272" on="1"/>
        <pt x="-29" y="343" on="1"/>
        <pt x="32" y="343" on="1"/>
        <pt x="33" y="356" on="0"/>
        <pt x="37" y="382" on="1"/>
        <pt x="-28" y="382" on="1"/>
        <pt x="-28" y="453" on="1"/>
        <pt x="53" y="453" on="1"/>
        <pt x="92" y="588" on="0"/>
        <pt x="278" y="761" on="0"/>
        <pt x="407" y="761" on="1"/>
        <pt x="507" y="761" on="0"/>
        <pt x="610" y="685" on="0"/>
        <pt x="612" y="626" on="1"/>
        <pt x="616" y="602" on="0"/>
        <pt x="616" y="579" on="1"/>
      </contour>
    </TTGlyph>
    <TTGlyph name="F" xMin="25" yMin="-6" xMax="611" yMax="761">
      <contour>
        <pt x="457" y="589" on="1"/>
        <pt x="417" y="589" on="0"/>
        <pt x="346" y="602" on="1"/>
        <pt x="246" y="526" on="0"/>
        <pt x="161" y="526" on="1"/>
        <pt x="158" y="526" on="0"/>
        <pt x="155" y="526" on="1"/>
        <pt x="94" y="527" on="0"/>
        <pt x="25" y="590" on="0"/>
        <pt x="25" y="695" on="0"/>
        <pt x="94" y="761" on="0"/>
        <pt x="162" y="761" on="1"/>
        <pt x="207" y="761" on="0"/>
        <pt x="306" y="731" on="1"/>
        <pt x="410" y="700" on="0"/>
        <pt x="461" y="700" on="1"/>
        <pt x="545" y="700" on="0"/>
        <pt x="572" y="760" on="1"/>
        <pt x="611" y="733" on="1"/>
        <pt x="589" y="589" on="0"/>
      </contour>
      <contour>
        <pt x="124" y="612" on="1"/>
        <pt x="124" y="587" on="0"/>
        <pt x="210" y="587" on="0"/>
        <pt x="272" y="619" on="1"/>
        <pt x="184" y="641" on="0"/>
        <pt x="151" y="641" on="1"/>
        <pt x="140" y="641" on="0"/>
        <pt x="124" y="624" on="0"/>
      </contour>
      <contour>
        <pt x="397" y="538" on="1"/>
        <pt x="381" y="431" on="1"/>
        <pt x="530" y="431" on="1"/>
        <pt x="539" y="410" on="0"/>
        <pt x="539" y="370" on="0"/>
        <pt x="501" y="343" on="0"/>
        <pt x="472" y="343" on="1"/>
        <pt x="367" y="343" on="1"/>
        <pt x="366" y="334" on="1"/>
        <pt x="492" y="274" on="0"/>
        <pt x="492" y="156" on="1"/>
        <pt x="492" y="67" on="0"/>
        <pt x="398" y="-6" on="0"/>
        <pt x="270" y="-6" on="0"/>
        <pt x="200" y="59" on="0"/>
        <pt x="200" y="113" on="1"/>
        <pt x="200" y="122" on="0"/>
        <pt x="202" y="136" on="1"/>
        <pt x="229" y="343" on="1"/>
        <pt x="135" y="343" on="1"/>
        <pt x="141" y="400" on="0"/>
        <pt x="145" y="431" on="1"/>
        <pt x="241" y="431" on="1"/>
        <pt x="252" y="519" on="1"/>
        <pt x="304" y="544" on="0"/>
        <pt x="374" y="544" on="0"/>
      </contour>
      <contour>
        <pt x="365" y="85" on="1"/>
        <pt x="389" y="85" on="0"/>
        <pt x="425" y="120" on="0"/>
        <pt x="425" y="158" on="1"/>
        <pt x="425" y="233" on="0"/>
        <pt x="357" y="273" on="1"/>
        <pt x="341" y="162" on="0"/>
        <pt x="340" y="107" on="0"/>
        <pt x="355" y="85" on="0"/>
      </contour>
    </TTGlyph>
    <TTGlyph name="G" xMin="29" yMin="-275" xMax="720" yMax="761">
      <contour>
        <pt x="331" y="-275" on="1"/>
        <pt x="275" y="-275" on="0"/>
        <pt x="196" y="-206" on="0"/>
        <pt x="196" y="-64" on="0"/>
        <pt x="264" y="-2" on="1"/>
        <pt x="143" y="15" on="0"/>
        <pt x="29" y="168" on="0"/>
        <pt x="29" y="411" on="0"/>
        <pt x="118" y="624" on="0"/>
        <pt x="294" y="761" on="0"/>
        <pt x="499" y="761" on="0"/>
        <pt x="616" y="662" on="0"/>
        <pt x="616" y="490" on="0"/>
        <pt x="514" y="385" on="0"/>
        <pt x="375" y="385" on="0"/>
        <pt x="299" y="446" on="0"/>
        <pt x="299" y="515" on="0"/>
        <pt x="354" y="554" on="0"/>
        <pt x="407" y="554" on="1"/>
        <pt x="394" y="541" on="0"/>
        <pt x="394" y="498" on="0"/>
        <pt x="420" y="466" on="0"/>
        <pt x="473" y="466" on="0"/>
        <pt x="520" y="522" on="0"/>
        <pt x="520" y="619" on="0"/>
        <pt x="470" y="673" on="0"/>
        <pt x="419" y="673" on="1"/>
        <pt x="351" y="673" on="0"/>
        <pt x="240" y="563" on="0"/>
        <pt x="182" y="393" on="0"/>
        <pt x="182" y="299" on="1"/>
        <pt x="182" y="218" on="0"/>
        <pt x="217" y="156" on="1"/>
        <pt x="235" y="124" on="0"/>
        <pt x="306" y="86" on="0"/>
        <pt x="375" y="86" on="0"/>
        <pt x="396" y="89" on="1"/>
        <pt x="421" y="307" on="1"/>
        <pt x="561" y="307" on="1"/>
        <pt x="539" y="144" on="1"/>
        <pt x="647" y="201" on="0"/>
        <pt x="681" y="268" on="1"/>
        <pt x="720" y="213" on="1"/>
        <pt x="655" y="113" on="0"/>
        <pt x="528" y="61" on="1"/>
        <pt x="515" y="-47" on="1"/>
        <pt x="507" y="-120" on="0"/>
        <pt x="465" y="-218" on="0"/>
        <pt x="408" y="-261" on="0"/>
        <pt x="360" y="-275" on="0"/>
      </contour>
      <contour>
        <pt x="285" y="-132" on="1"/>
        <pt x="285" y="-150" on="0"/>
        <pt x="307" y="-176" on="0"/>
        <pt x="336" y="-176" on="0"/>
        <pt x="352" y="-166" on="0"/>
        <pt x="370" y="-124" on="0"/>
        <pt x="375" y="-86" on="1"/>
        <pt x="385" y="-4" on="1"/>
        <pt x="285" y="-66" on="0"/>
      </contour>
    </TTGlyph>
    <TTGlyph name="H" xMin="45" yMin="-6" xMax="707" yMax="761">
      <contour>
        <pt x="565" y="746" on="0"/>
        <pt x="630" y="761" on="0"/>
        <pt x="688" y="761" on="0"/>
        <pt x="707" y="753" on="1"/>
        <pt x="609" y="0" on="1"/>
        <pt x="473" y="0" on="1"/>
        <pt x="512" y="338" on="1"/>
        <pt x="499" y="334" on="1"/>
        <pt x="407" y="307" on="0"/>
        <pt x="332" y="281" on="1"/>
        <pt x="318" y="171" on="1"/>
        <pt x="294" y="-6" on="0"/>
        <pt x="152" y="-6" on="1"/>
        <pt x="101" y="-6" on="0"/>
        <pt x="45" y="55" on="0"/>
        <pt x="45" y="103" on="1"/>
        <pt x="45" y="210" on="0"/>
        <pt x="196" y="296" on="1"/>
        <pt x="247" y="730" on="1"/>
        <pt x="266" y="743" on="0"/>
        <pt x="328" y="761" on="0"/>
        <pt x="386" y="761" on="0"/>
        <pt x="395" y="760" on="1"/>
        <pt x="343" y="362" on="1"/>
        <pt x="404" y="384" on="0"/>
        <pt x="497" y="409" on="1"/>
        <pt x="521" y="415" on="1"/>
        <pt x="559" y="738" on="1"/>
      </contour>
      <contour>
        <pt x="115" y="118" on="1"/>
        <pt x="115" y="86" on="0"/>
        <pt x="144" y="86" on="1"/>
        <pt x="160" y="86" on="0"/>
        <pt x="170" y="105" on="0"/>
        <pt x="175" y="118" on="0"/>
        <pt x="179" y="140" on="0"/>
        <pt x="181" y="157" on="0"/>
        <pt x="183" y="185" on="0"/>
        <pt x="184" y="193" on="1"/>
        <pt x="186" y="208" on="1"/>
        <pt x="115" y="159" on="0"/>
      </contour>
    </TTGlyph>
    <TTGlyph name="I" xMin="40" yMin="-7" xMax="557" yMax="762">
      <contour>
        <pt x="556" y="648" on="1"/>
        <pt x="540" y="655" on="0"/>
        <pt x="509" y="655" on="0"/>
        <pt x="480" y="617" on="0"/>
        <pt x="475" y="581" on="1"/>
        <pt x="423" y="210" on="1"/>
        <pt x="409" y="109" on="0"/>
        <pt x="298" y="-7" on="0"/>
        <pt x="215" y="-7" on="1"/>
        <pt x="132" y="-7" on="0"/>
        <pt x="41" y="86" on="0"/>
        <pt x="41" y="215" on="0"/>
        <pt x="130" y="305" on="0"/>
        <pt x="198" y="305" on="1"/>
        <pt x="240" y="305" on="0"/>
        <pt x="264" y="299" on="1"/>
        <pt x="259" y="238" on="1"/>
        <pt x="242" y="242" on="0"/>
        <pt x="171" y="242" on="0"/>
        <pt x="116" y="194" on="0"/>
        <pt x="116" y="122" on="0"/>
        <pt x="156" y="83" on="0"/>
        <pt x="184" y="83" on="1"/>
        <pt x="268" y="83" on="0"/>
        <pt x="282" y="207" on="1"/>
        <pt x="309" y="455" on="0"/>
        <pt x="321" y="542" on="1"/>
        <pt x="261" y="521" on="0"/>
        <pt x="215" y="521" on="1"/>
        <pt x="142" y="521" on="0"/>
        <pt x="65" y="589" on="0"/>
        <pt x="65" y="699" on="0"/>
        <pt x="144" y="762" on="0"/>
        <pt x="204" y="762" on="1"/>
        <pt x="241" y="762" on="0"/>
        <pt x="380" y="716" on="0"/>
        <pt x="418" y="716" on="1"/>
        <pt x="486" y="716" on="0"/>
        <pt x="532" y="751" on="1"/>
        <pt x="557" y="716" on="0"/>
        <pt x="557" y="668" on="1"/>
        <pt x="557" y="658" on="0"/>
      </contour>
      <contour>
        <pt x="164" y="617" on="1"/>
        <pt x="164" y="602" on="0"/>
        <pt x="197" y="580" on="0"/>
        <pt x="264" y="580" on="0"/>
        <pt x="318" y="610" on="1"/>
        <pt x="279" y="619" on="0"/>
        <pt x="197" y="642" on="0"/>
        <pt x="189" y="642" on="1"/>
        <pt x="164" y="642" on="0"/>
      </contour>
    </TTGlyph>
    <TTGlyph name="Iacute" xMin="40" yMin="-7" xMax="557" yMax="1017">
      <contour>
        <pt x="275" y="830" on="1"/>
        <pt x="402" y="1017" on="1"/>
        <pt x="422" y="1007" on="0"/>
        <pt x="476" y="950" on="0"/>
        <pt x="493" y="926" on="1"/>
        <pt x="313" y="793" on="1"/>
        <pt x="301" y="800" on="0"/>
      </contour>
      <contour>
        <pt x="556" y="648" on="1"/>
        <pt x="540" y="655" on="0"/>
        <pt x="509" y="655" on="0"/>
        <pt x="480" y="617" on="0"/>
        <pt x="475" y="581" on="1"/>
        <pt x="423" y="210" on="1"/>
        <pt x="409" y="109" on="0"/>
        <pt x="298" y="-7" on="0"/>
        <pt x="215" y="-7" on="1"/>
        <pt x="132" y="-7" on="0"/>
        <pt x="41" y="86" on="0"/>
        <pt x="41" y="215" on="0"/>
        <pt x="130" y="305" on="0"/>
        <pt x="198" y="305" on="1"/>
        <pt x="240" y="305" on="0"/>
        <pt x="264" y="299" on="1"/>
        <pt x="259" y="238" on="1"/>
        <pt x="242" y="242" on="0"/>
        <pt x="171" y="242" on="0"/>
        <pt x="116" y="194" on="0"/>
        <pt x="116" y="122" on="0"/>
        <pt x="156" y="83" on="0"/>
        <pt x="184" y="83" on="1"/>
        <pt x="268" y="83" on="0"/>
        <pt x="282" y="207" on="1"/>
        <pt x="309" y="455" on="0"/>
        <pt x="321" y="542" on="1"/>
        <pt x="261" y="521" on="0"/>
        <pt x="215" y="521" on="1"/>
        <pt x="142" y="521" on="0"/>
        <pt x="65" y="589" on="0"/>
        <pt x="65" y="699" on="0"/>
        <pt x="144" y="762" on="0"/>
        <pt x="204" y="762" on="1"/>
        <pt x="241" y="762" on="0"/>
        <pt x="380" y="716" on="0"/>
        <pt x="418" y="716" on="1"/>
        <pt x="486" y="716" on="0"/>
        <pt x="532" y="751" on="1"/>
        <pt x="557" y="716" on="0"/>
        <pt x="557" y="668" on="1"/>
        <pt x="557" y="658" on="0"/>
      </contour>
      <contour>
        <pt x="164" y="617" on="1"/>
        <pt x="164" y="602" on="0"/>
        <pt x="197" y="580" on="0"/>
        <pt x="264" y="580" on="0"/>
        <pt x="318" y="610" on="1"/>
        <pt x="279" y="619" on="0"/>
        <pt x="197" y="642" on="0"/>
        <pt x="189" y="642" on="1"/>
        <pt x="164" y="642" on="0"/>
      </contour>
    </TTGlyph>
    <TTGlyph name="Icircumflex" xMin="40" yMin="-7" xMax="557" yMax="980">
      <contour>
        <pt x="344" y="980" on="1"/>
        <pt x="518" y="859" on="1"/>
        <pt x="497" y="820" on="0"/>
        <pt x="485" y="801" on="1"/>
        <pt x="344" y="874" on="1"/>
        <pt x="203" y="801" on="1"/>
        <pt x="191" y="820" on="0"/>
        <pt x="170" y="859" on="1"/>
      </contour>
      <contour>
        <pt x="556" y="648" on="1"/>
        <pt x="540" y="655" on="0"/>
        <pt x="509" y="655" on="0"/>
        <pt x="480" y="617" on="0"/>
        <pt x="475" y="581" on="1"/>
        <pt x="423" y="210" on="1"/>
        <pt x="409" y="109" on="0"/>
        <pt x="298" y="-7" on="0"/>
        <pt x="215" y="-7" on="1"/>
        <pt x="132" y="-7" on="0"/>
        <pt x="41" y="86" on="0"/>
        <pt x="41" y="215" on="0"/>
        <pt x="130" y="305" on="0"/>
        <pt x="198" y="305" on="1"/>
        <pt x="240" y="305" on="0"/>
        <pt x="264" y="299" on="1"/>
        <pt x="259" y="238" on="1"/>
        <pt x="242" y="242" on="0"/>
        <pt x="171" y="242" on="0"/>
        <pt x="116" y="194" on="0"/>
        <pt x="116" y="122" on="0"/>
        <pt x="156" y="83" on="0"/>
        <pt x="184" y="83" on="1"/>
        <pt x="268" y="83" on="0"/>
        <pt x="282" y="207" on="1"/>
        <pt x="309" y="455" on="0"/>
        <pt x="321" y="542" on="1"/>
        <pt x="261" y="521" on="0"/>
        <pt x="215" y="521" on="1"/>
        <pt x="142" y="521" on="0"/>
        <pt x="65" y="589" on="0"/>
        <pt x="65" y="699" on="0"/>
        <pt x="144" y="762" on="0"/>
        <pt x="204" y="762" on="1"/>
        <pt x="241" y="762" on="0"/>
        <pt x="380" y="716" on="0"/>
        <pt x="418" y="716" on="1"/>
        <pt x="486" y="716" on="0"/>
        <pt x="532" y="751" on="1"/>
        <pt x="557" y="716" on="0"/>
        <pt x="557" y="668" on="1"/>
        <pt x="557" y="658" on="0"/>
      </contour>
      <contour>
        <pt x="164" y="617" on="1"/>
        <pt x="164" y="602" on="0"/>
        <pt x="197" y="580" on="0"/>
        <pt x="264" y="580" on="0"/>
        <pt x="318" y="610" on="1"/>
        <pt x="279" y="619" on="0"/>
        <pt x="197" y="642" on="0"/>
        <pt x="189" y="642" on="1"/>
        <pt x="164" y="642" on="0"/>
      </contour>
    </TTGlyph>
    <TTGlyph name="Idieresis" xMin="40" yMin="-7" xMax="557" yMax="957">
      <contour>
        <pt x="150" y="914" on="0"/>
        <pt x="191" y="957" on="0"/>
        <pt x="251" y="957" on="0"/>
        <pt x="293" y="914" on="0"/>
        <pt x="293" y="854" on="0"/>
        <pt x="251" y="812" on="0"/>
        <pt x="191" y="812" on="0"/>
        <pt x="150" y="854" on="0"/>
      </contour>
      <contour>
        <pt x="432" y="957" on="0"/>
        <pt x="492" y="957" on="0"/>
        <pt x="534" y="914" on="0"/>
        <pt x="534" y="854" on="0"/>
        <pt x="493" y="812" on="0"/>
        <pt x="432" y="812" on="0"/>
        <pt x="389" y="854" on="0"/>
        <pt x="389" y="914" on="0"/>
      </contour>
      <contour>
        <pt x="556" y="648" on="1"/>
        <pt x="540" y="655" on="0"/>
        <pt x="509" y="655" on="0"/>
        <pt x="480" y="617" on="0"/>
        <pt x="475" y="581" on="1"/>
        <pt x="423" y="210" on="1"/>
        <pt x="409" y="109" on="0"/>
        <pt x="298" y="-7" on="0"/>
        <pt x="215" y="-7" on="1"/>
        <pt x="132" y="-7" on="0"/>
        <pt x="41" y="86" on="0"/>
        <pt x="41" y="215" on="0"/>
        <pt x="130" y="305" on="0"/>
        <pt x="198" y="305" on="1"/>
        <pt x="240" y="305" on="0"/>
        <pt x="264" y="299" on="1"/>
        <pt x="259" y="238" on="1"/>
        <pt x="242" y="242" on="0"/>
        <pt x="171" y="242" on="0"/>
        <pt x="116" y="194" on="0"/>
        <pt x="116" y="122" on="0"/>
        <pt x="156" y="83" on="0"/>
        <pt x="184" y="83" on="1"/>
        <pt x="268" y="83" on="0"/>
        <pt x="282" y="207" on="1"/>
        <pt x="309" y="455" on="0"/>
        <pt x="321" y="542" on="1"/>
        <pt x="261" y="521" on="0"/>
        <pt x="215" y="521" on="1"/>
        <pt x="142" y="521" on="0"/>
        <pt x="65" y="589" on="0"/>
        <pt x="65" y="699" on="0"/>
        <pt x="144" y="762" on="0"/>
        <pt x="204" y="762" on="1"/>
        <pt x="241" y="762" on="0"/>
        <pt x="380" y="716" on="0"/>
        <pt x="418" y="716" on="1"/>
        <pt x="486" y="716" on="0"/>
        <pt x="532" y="751" on="1"/>
        <pt x="557" y="716" on="0"/>
        <pt x="557" y="668" on="1"/>
        <pt x="557" y="658" on="0"/>
      </contour>
      <contour>
        <pt x="164" y="617" on="1"/>
        <pt x="164" y="602" on="0"/>
        <pt x="197" y="580" on="0"/>
        <pt x="264" y="580" on="0"/>
        <pt x="318" y="610" on="1"/>
        <pt x="279" y="619" on="0"/>
        <pt x="197" y="642" on="0"/>
        <pt x="189" y="642" on="1"/>
        <pt x="164" y="642" on="0"/>
      </contour>
    </TTGlyph>
    <TTGlyph name="Igrave" xMin="40" yMin="-7" xMax="557" yMax="1017">
      <contour>
        <pt x="314" y="1017" on="1"/>
        <pt x="441" y="830" on="1"/>
        <pt x="415" y="800" on="0"/>
        <pt x="403" y="793" on="1"/>
        <pt x="223" y="926" on="1"/>
        <pt x="240" y="950" on="0"/>
        <pt x="294" y="1007" on="0"/>
      </contour>
      <contour>
        <pt x="556" y="648" on="1"/>
        <pt x="540" y="655" on="0"/>
        <pt x="509" y="655" on="0"/>
        <pt x="480" y="617" on="0"/>
        <pt x="475" y="581" on="1"/>
        <pt x="423" y="210" on="1"/>
        <pt x="409" y="109" on="0"/>
        <pt x="298" y="-7" on="0"/>
        <pt x="215" y="-7" on="1"/>
        <pt x="132" y="-7" on="0"/>
        <pt x="41" y="86" on="0"/>
        <pt x="41" y="215" on="0"/>
        <pt x="130" y="305" on="0"/>
        <pt x="198" y="305" on="1"/>
        <pt x="240" y="305" on="0"/>
        <pt x="264" y="299" on="1"/>
        <pt x="259" y="238" on="1"/>
        <pt x="242" y="242" on="0"/>
        <pt x="171" y="242" on="0"/>
        <pt x="116" y="194" on="0"/>
        <pt x="116" y="122" on="0"/>
        <pt x="156" y="83" on="0"/>
        <pt x="184" y="83" on="1"/>
        <pt x="268" y="83" on="0"/>
        <pt x="282" y="207" on="1"/>
        <pt x="309" y="455" on="0"/>
        <pt x="321" y="542" on="1"/>
        <pt x="261" y="521" on="0"/>
        <pt x="215" y="521" on="1"/>
        <pt x="142" y="521" on="0"/>
        <pt x="65" y="589" on="0"/>
        <pt x="65" y="699" on="0"/>
        <pt x="144" y="762" on="0"/>
        <pt x="204" y="762" on="1"/>
        <pt x="241" y="762" on="0"/>
        <pt x="380" y="716" on="0"/>
        <pt x="418" y="716" on="1"/>
        <pt x="486" y="716" on="0"/>
        <pt x="532" y="751" on="1"/>
        <pt x="557" y="716" on="0"/>
        <pt x="557" y="668" on="1"/>
        <pt x="557" y="658" on="0"/>
      </contour>
      <contour>
        <pt x="164" y="617" on="1"/>
        <pt x="164" y="602" on="0"/>
        <pt x="197" y="580" on="0"/>
        <pt x="264" y="580" on="0"/>
        <pt x="318" y="610" on="1"/>
        <pt x="279" y="619" on="0"/>
        <pt x="197" y="642" on="0"/>
        <pt x="189" y="642" on="1"/>
        <pt x="164" y="642" on="0"/>
      </contour>
    </TTGlyph>
    <TTGlyph name="J" xMin="1" yMin="-274" xMax="580" yMax="760">
      <contour>
        <pt x="512" y="646" on="1"/>
        <pt x="496" y="653" on="0"/>
        <pt x="466" y="653" on="0"/>
        <pt x="436" y="615" on="0"/>
        <pt x="431" y="579" on="1"/>
        <pt x="381" y="229" on="1"/>
        <pt x="507" y="284" on="0"/>
        <pt x="542" y="311" on="1"/>
        <pt x="580" y="245" on="1"/>
        <pt x="550" y="222" on="0"/>
        <pt x="466" y="186" on="0"/>
        <pt x="388" y="155" on="0"/>
        <pt x="369" y="147" on="1"/>
        <pt x="336" y="-87" on="1"/>
        <pt x="323" y="-183" on="0"/>
        <pt x="212" y="-274" on="0"/>
        <pt x="79" y="-274" on="0"/>
        <pt x="1" y="-177" on="0"/>
        <pt x="1" y="-117" on="1"/>
        <pt x="1" y="40" on="0"/>
        <pt x="231" y="162" on="1"/>
        <pt x="241" y="243" on="1"/>
        <pt x="260" y="415" on="0"/>
        <pt x="280" y="542" on="1"/>
        <pt x="223" y="519" on="0"/>
        <pt x="98" y="519" on="0"/>
        <pt x="21" y="587" on="0"/>
        <pt x="21" y="697" on="0"/>
        <pt x="100" y="760" on="0"/>
        <pt x="160" y="760" on="1"/>
        <pt x="197" y="760" on="0"/>
        <pt x="336" y="714" on="0"/>
        <pt x="374" y="714" on="1"/>
        <pt x="442" y="714" on="0"/>
        <pt x="488" y="749" on="1"/>
        <pt x="513" y="714" on="0"/>
        <pt x="513" y="666" on="1"/>
        <pt x="513" y="656" on="0"/>
      </contour>
      <contour>
        <pt x="120" y="615" on="1"/>
        <pt x="120" y="600" on="0"/>
        <pt x="153" y="578" on="0"/>
        <pt x="220" y="578" on="0"/>
        <pt x="274" y="608" on="1"/>
        <pt x="235" y="617" on="0"/>
        <pt x="153" y="640" on="0"/>
        <pt x="145" y="640" on="1"/>
        <pt x="120" y="640" on="0"/>
      </contour>
      <contour>
        <pt x="220" y="75" on="1"/>
        <pt x="77" y="-11" on="0"/>
        <pt x="77" y="-107" on="1"/>
        <pt x="77" y="-134" on="0"/>
        <pt x="91" y="-153" on="1"/>
        <pt x="107" y="-175" on="0"/>
        <pt x="156" y="-175" on="0"/>
        <pt x="192" y="-145" on="0"/>
        <pt x="196" y="-112" on="1"/>
      </contour>
    </TTGlyph>
    <TTGlyph name="K" xMin="5" yMin="-6" xMax="777" yMax="761">
      <contour>
        <pt x="745" y="215" on="1"/>
        <pt x="777" y="166" on="1"/>
        <pt x="762" y="112" on="0"/>
        <pt x="710" y="38" on="0"/>
        <pt x="681" y="22" on="1"/>
        <pt x="630" y="-6" on="0"/>
        <pt x="584" y="-6" on="1"/>
        <pt x="504" y="-6" on="0"/>
        <pt x="427" y="87" on="0"/>
        <pt x="425" y="165" on="1"/>
        <pt x="422" y="291" on="0"/>
        <pt x="398" y="353" on="0"/>
        <pt x="355" y="357" on="1"/>
        <pt x="362" y="432" on="1"/>
        <pt x="380" y="435" on="0"/>
        <pt x="400" y="445" on="0"/>
        <pt x="416" y="460" on="1"/>
        <pt x="450" y="490" on="0"/>
        <pt x="466" y="601" on="1"/>
        <pt x="479" y="685" on="0"/>
        <pt x="560" y="761" on="0"/>
        <pt x="654" y="761" on="0"/>
        <pt x="726" y="706" on="0"/>
        <pt x="726" y="645" on="1"/>
        <pt x="726" y="564" on="0"/>
        <pt x="609" y="446" on="0"/>
        <pt x="505" y="398" on="1"/>
        <pt x="541" y="381" on="0"/>
        <pt x="575" y="301" on="0"/>
        <pt x="579" y="213" on="0"/>
        <pt x="580" y="172" on="1"/>
        <pt x="584" y="76" on="0"/>
        <pt x="637" y="76" on="1"/>
        <pt x="699" y="76" on="0"/>
      </contour>
      <contour>
        <pt x="122" y="-6" on="1"/>
        <pt x="69" y="-6" on="0"/>
        <pt x="5" y="58" on="0"/>
        <pt x="5" y="108" on="1"/>
        <pt x="5" y="225" on="0"/>
        <pt x="182" y="309" on="1"/>
        <pt x="189" y="368" on="0"/>
        <pt x="202" y="476" on="1"/>
        <pt x="227" y="698" on="0"/>
        <pt x="232" y="734" on="1"/>
        <pt x="273" y="760" on="0"/>
        <pt x="362" y="760" on="0"/>
        <pt x="385" y="755" on="1"/>
        <pt x="311" y="190" on="1"/>
        <pt x="281" y="-6" on="0"/>
      </contour>
      <contour>
        <pt x="656" y="637" on="0"/>
        <pt x="639" y="653" on="0"/>
        <pt x="623" y="653" on="0"/>
        <pt x="614" y="649" on="0"/>
        <pt x="607" y="640" on="0"/>
        <pt x="603" y="631" on="0"/>
        <pt x="598" y="613" on="0"/>
        <pt x="595" y="600" on="0"/>
        <pt x="589" y="576" on="0"/>
        <pt x="579" y="535" on="0"/>
        <pt x="572" y="514" on="1"/>
        <pt x="656" y="568" on="0"/>
        <pt x="656" y="622" on="1"/>
      </contour>
      <contour>
        <pt x="79" y="121" on="1"/>
        <pt x="79" y="85" on="0"/>
        <pt x="113" y="85" on="1"/>
        <pt x="127" y="85" on="0"/>
        <pt x="158" y="122" on="0"/>
        <pt x="164" y="162" on="1"/>
        <pt x="172" y="224" on="1"/>
        <pt x="79" y="170" on="0"/>
      </contour>
    </TTGlyph>
    <TTGlyph name="L" xMin="0" yMin="-6" xMax="569" yMax="761">
      <contour>
        <pt x="387" y="87" on="1"/>
        <pt x="398" y="83" on="0"/>
        <pt x="425" y="83" on="0"/>
        <pt x="450" y="89" on="0"/>
        <pt x="471" y="112" on="0"/>
        <pt x="483" y="126" on="0"/>
        <pt x="492" y="150" on="1"/>
        <pt x="503" y="178" on="0"/>
        <pt x="519" y="229" on="1"/>
        <pt x="561" y="190" on="0"/>
        <pt x="569" y="170" on="1"/>
        <pt x="521" y="-6" on="0"/>
        <pt x="400" y="-6" on="1"/>
        <pt x="343" y="-6" on="0"/>
        <pt x="255" y="68" on="1"/>
        <pt x="209" y="-6" on="0"/>
        <pt x="112" y="-6" on="1"/>
        <pt x="69" y="-6" on="0"/>
        <pt x="0" y="52" on="0"/>
        <pt x="0" y="160" on="0"/>
        <pt x="72" y="229" on="0"/>
        <pt x="129" y="229" on="1"/>
        <pt x="140" y="229" on="0"/>
        <pt x="160" y="227" on="1"/>
        <pt x="174" y="354" on="1"/>
        <pt x="130" y="340" on="0"/>
        <pt x="38" y="318" on="1"/>
        <pt x="38" y="393" on="1"/>
        <pt x="113" y="410" on="0"/>
        <pt x="182" y="431" on="1"/>
        <pt x="202" y="594" on="1"/>
        <pt x="223" y="761" on="0"/>
        <pt x="372" y="761" on="1"/>
        <pt x="431" y="761" on="0"/>
        <pt x="502" y="696" on="0"/>
        <pt x="502" y="637" on="1"/>
        <pt x="502" y="495" on="0"/>
        <pt x="319" y="408" on="1"/>
        <pt x="289" y="172" on="1"/>
        <pt x="288" y="162" on="1"/>
        <pt x="362" y="96" on="0"/>
      </contour>
      <contour>
        <pt x="427" y="629" on="1"/>
        <pt x="427" y="671" on="0"/>
        <pt x="392" y="671" on="1"/>
        <pt x="350" y="671" on="0"/>
        <pt x="339" y="572" on="1"/>
        <pt x="329" y="493" on="1"/>
        <pt x="427" y="551" on="0"/>
      </contour>
      <contour>
        <pt x="76" y="113" on="1"/>
        <pt x="76" y="83" on="0"/>
        <pt x="110" y="83" on="1"/>
        <pt x="143" y="83" on="0"/>
        <pt x="151" y="142" on="1"/>
        <pt x="132" y="150" on="0"/>
        <pt x="99" y="150" on="0"/>
        <pt x="76" y="128" on="0"/>
      </contour>
    </TTGlyph>
    <TTGlyph name="Lslash" xMin="0" yMin="-6" xMax="569" yMax="761">
      <contour>
        <pt x="387" y="87" on="1"/>
        <pt x="398" y="83" on="0"/>
        <pt x="425" y="83" on="0"/>
        <pt x="450" y="89" on="0"/>
        <pt x="471" y="112" on="0"/>
        <pt x="483" y="126" on="0"/>
        <pt x="492" y="150" on="1"/>
        <pt x="503" y="178" on="0"/>
        <pt x="519" y="229" on="1"/>
        <pt x="561" y="190" on="0"/>
        <pt x="569" y="170" on="1"/>
        <pt x="521" y="-6" on="0"/>
        <pt x="400" y="-6" on="1"/>
        <pt x="343" y="-6" on="0"/>
        <pt x="255" y="68" on="1"/>
        <pt x="209" y="-6" on="0"/>
        <pt x="112" y="-6" on="1"/>
        <pt x="69" y="-6" on="0"/>
        <pt x="0" y="52" on="0"/>
        <pt x="0" y="160" on="0"/>
        <pt x="72" y="229" on="0"/>
        <pt x="129" y="229" on="1"/>
        <pt x="140" y="229" on="0"/>
        <pt x="160" y="227" on="1"/>
        <pt x="174" y="354" on="1"/>
        <pt x="130" y="340" on="0"/>
        <pt x="38" y="318" on="1"/>
        <pt x="38" y="393" on="1"/>
        <pt x="113" y="410" on="0"/>
        <pt x="182" y="431" on="1"/>
        <pt x="202" y="594" on="1"/>
        <pt x="223" y="761" on="0"/>
        <pt x="372" y="761" on="1"/>
        <pt x="431" y="761" on="0"/>
        <pt x="502" y="696" on="0"/>
        <pt x="502" y="637" on="1"/>
        <pt x="502" y="527" on="0"/>
        <pt x="393" y="451" on="1"/>
        <pt x="509" y="451" on="1"/>
        <pt x="509" y="374" on="1"/>
        <pt x="314" y="374" on="1"/>
        <pt x="289" y="172" on="1"/>
        <pt x="288" y="162" on="1"/>
        <pt x="362" y="96" on="0"/>
      </contour>
      <contour>
        <pt x="427" y="629" on="1"/>
        <pt x="427" y="671" on="0"/>
        <pt x="392" y="671" on="1"/>
        <pt x="350" y="671" on="0"/>
        <pt x="339" y="572" on="1"/>
        <pt x="329" y="493" on="1"/>
        <pt x="427" y="551" on="0"/>
      </contour>
      <contour>
        <pt x="76" y="113" on="1"/>
        <pt x="76" y="83" on="0"/>
        <pt x="110" y="83" on="1"/>
        <pt x="143" y="83" on="0"/>
        <pt x="151" y="142" on="1"/>
        <pt x="132" y="150" on="0"/>
        <pt x="99" y="150" on="0"/>
        <pt x="76" y="128" on="0"/>
      </contour>
    </TTGlyph>
    <TTGlyph name="M" xMin="10" yMin="-7" xMax="932" yMax="762">
      <contour>
        <pt x="660" y="754" on="1"/>
        <pt x="681" y="762" on="0"/>
        <pt x="757" y="762" on="0"/>
        <pt x="787" y="757" on="1"/>
        <pt x="756" y="527" on="0"/>
        <pt x="721" y="154" on="0"/>
        <pt x="718" y="134" on="0"/>
        <pt x="718" y="126" on="1"/>
        <pt x="719" y="100" on="0"/>
        <pt x="743" y="100" on="1"/>
        <pt x="803" y="100" on="0"/>
        <pt x="910" y="238" on="1"/>
        <pt x="929" y="185" on="0"/>
        <pt x="932" y="167" on="1"/>
        <pt x="884" y="91" on="0"/>
        <pt x="749" y="-6" on="0"/>
        <pt x="629" y="-6" on="0"/>
        <pt x="583" y="56" on="0"/>
        <pt x="583" y="94" on="1"/>
        <pt x="583" y="103" on="0"/>
        <pt x="588" y="155" on="0"/>
        <pt x="625" y="453" on="1"/>
        <pt x="461" y="74" on="1"/>
        <pt x="376" y="74" on="1"/>
        <pt x="327" y="447" on="1"/>
        <pt x="257" y="137" on="1"/>
        <pt x="240" y="63" on="0"/>
        <pt x="163" y="-7" on="0"/>
        <pt x="71" y="-7" on="0"/>
        <pt x="42" y="20" on="1"/>
        <pt x="11" y="49" on="0"/>
        <pt x="11" y="102" on="1"/>
        <pt x="11" y="208" on="0"/>
        <pt x="175" y="283" on="1"/>
        <pt x="264" y="710" on="0"/>
        <pt x="271" y="756" on="1"/>
        <pt x="295" y="762" on="0"/>
        <pt x="376" y="762" on="0"/>
        <pt x="391" y="760" on="1"/>
        <pt x="398" y="760" on="1"/>
        <pt x="460" y="295" on="1"/>
        <pt x="660" y="749" on="1"/>
      </contour>
      <contour>
        <pt x="82" y="119" on="1"/>
        <pt x="82" y="87" on="0"/>
        <pt x="107" y="87" on="1"/>
        <pt x="124" y="87" on="0"/>
        <pt x="135" y="114" on="1"/>
        <pt x="149" y="147" on="0"/>
        <pt x="158" y="201" on="1"/>
        <pt x="82" y="158" on="0"/>
      </contour>
    </TTGlyph>
    <TTGlyph name="N" xMin="26" yMin="-7" xMax="829" yMax="762">
      <contour>
        <pt x="603" y="693" on="0"/>
        <pt x="669" y="761" on="0"/>
        <pt x="777" y="761" on="0"/>
        <pt x="828" y="698" on="0"/>
        <pt x="828" y="666" on="1"/>
        <pt x="828" y="656" on="0"/>
        <pt x="826" y="646" on="1"/>
        <pt x="804" y="535" on="0"/>
        <pt x="679" y="473" on="1"/>
        <pt x="609" y="0" on="1"/>
        <pt x="441" y="0" on="1"/>
        <pt x="322" y="527" on="1"/>
        <pt x="267" y="137" on="1"/>
        <pt x="256" y="63" on="0"/>
        <pt x="187" y="-7" on="0"/>
        <pt x="95" y="-7" on="0"/>
        <pt x="34" y="47" on="0"/>
        <pt x="27" y="97" on="1"/>
        <pt x="26" y="105" on="0"/>
        <pt x="26" y="113" on="1"/>
        <pt x="26" y="212" on="0"/>
        <pt x="175" y="283" on="1"/>
        <pt x="218" y="605" on="1"/>
        <pt x="243" y="616" on="0"/>
        <pt x="280" y="616" on="0"/>
        <pt x="293" y="613" on="1"/>
        <pt x="270" y="649" on="0"/>
        <pt x="170" y="649" on="0"/>
        <pt x="132" y="597" on="1"/>
        <pt x="113" y="683" on="1"/>
        <pt x="132" y="709" on="0"/>
        <pt x="227" y="762" on="0"/>
        <pt x="342" y="762" on="0"/>
        <pt x="422" y="693" on="0"/>
        <pt x="440" y="612" on="1"/>
        <pt x="534" y="216" on="1"/>
        <pt x="592" y="616" on="1"/>
      </contour>
      <contour>
        <pt x="692" y="559" on="1"/>
        <pt x="754" y="603" on="0"/>
        <pt x="754" y="641" on="1"/>
        <pt x="754" y="648" on="0"/>
        <pt x="744" y="666" on="0"/>
        <pt x="734" y="666" on="1"/>
        <pt x="715" y="666" on="0"/>
        <pt x="708" y="645" on="1"/>
        <pt x="698" y="616" on="0"/>
      </contour>
      <contour>
        <pt x="96" y="161" on="0"/>
        <pt x="96" y="87" on="0"/>
        <pt x="123" y="87" on="1"/>
        <pt x="141" y="87" on="0"/>
        <pt x="157" y="134" on="0"/>
        <pt x="164" y="195" on="1"/>
        <pt x="165" y="200" on="1"/>
      </contour>
    </TTGlyph>
    <TTGlyph name="Ntilde" xMin="26" yMin="-7" xMax="829" yMax="980">
      <contour>
        <pt x="452" y="979" on="0"/>
        <pt x="562" y="909" on="0"/>
        <pt x="585" y="909" on="1"/>
        <pt x="631" y="909" on="0"/>
        <pt x="659" y="977" on="1"/>
        <pt x="703" y="952" on="1"/>
        <pt x="694" y="887" on="0"/>
        <pt x="625" y="804" on="0"/>
        <pt x="531" y="804" on="0"/>
        <pt x="478" y="841" on="1"/>
        <pt x="424" y="879" on="0"/>
        <pt x="380" y="879" on="0"/>
        <pt x="348" y="854" on="0"/>
        <pt x="332" y="820" on="1"/>
        <pt x="288" y="846" on="1"/>
        <pt x="301" y="904" on="0"/>
        <pt x="365" y="979" on="0"/>
      </contour>
      <contour>
        <pt x="603" y="693" on="0"/>
        <pt x="669" y="761" on="0"/>
        <pt x="777" y="761" on="0"/>
        <pt x="828" y="698" on="0"/>
        <pt x="828" y="666" on="1"/>
        <pt x="828" y="656" on="0"/>
        <pt x="826" y="646" on="1"/>
        <pt x="804" y="535" on="0"/>
        <pt x="679" y="473" on="1"/>
        <pt x="609" y="0" on="1"/>
        <pt x="441" y="0" on="1"/>
        <pt x="322" y="527" on="1"/>
        <pt x="267" y="137" on="1"/>
        <pt x="256" y="63" on="0"/>
        <pt x="187" y="-7" on="0"/>
        <pt x="95" y="-7" on="0"/>
        <pt x="34" y="47" on="0"/>
        <pt x="27" y="97" on="1"/>
        <pt x="26" y="105" on="0"/>
        <pt x="26" y="113" on="1"/>
        <pt x="26" y="212" on="0"/>
        <pt x="175" y="283" on="1"/>
        <pt x="218" y="605" on="1"/>
        <pt x="243" y="616" on="0"/>
        <pt x="280" y="616" on="0"/>
        <pt x="293" y="613" on="1"/>
        <pt x="270" y="649" on="0"/>
        <pt x="170" y="649" on="0"/>
        <pt x="132" y="597" on="1"/>
        <pt x="113" y="683" on="1"/>
        <pt x="132" y="709" on="0"/>
        <pt x="227" y="762" on="0"/>
        <pt x="342" y="762" on="0"/>
        <pt x="422" y="693" on="0"/>
        <pt x="440" y="612" on="1"/>
        <pt x="534" y="216" on="1"/>
        <pt x="592" y="616" on="1"/>
      </contour>
      <contour>
        <pt x="692" y="559" on="1"/>
        <pt x="754" y="603" on="0"/>
        <pt x="754" y="641" on="1"/>
        <pt x="754" y="648" on="0"/>
        <pt x="744" y="666" on="0"/>
        <pt x="734" y="666" on="1"/>
        <pt x="715" y="666" on="0"/>
        <pt x="708" y="645" on="1"/>
        <pt x="698" y="616" on="0"/>
      </contour>
      <contour>
        <pt x="96" y="161" on="0"/>
        <pt x="96" y="87" on="0"/>
        <pt x="123" y="87" on="1"/>
        <pt x="141" y="87" on="0"/>
        <pt x="157" y="134" on="0"/>
        <pt x="164" y="195" on="1"/>
        <pt x="165" y="200" on="1"/>
      </contour>
    </TTGlyph>
    <TTGlyph name="O" xMin="80" yMin="-6" xMax="925" yMax="761">
      <contour>
        <pt x="925" y="402" on="1"/>
        <pt x="902" y="377" on="0"/>
        <pt x="796" y="338" on="0"/>
        <pt x="733" y="338" on="0"/>
        <pt x="718" y="340" on="1"/>
        <pt x="693" y="192" on="0"/>
        <pt x="488" y="-6" on="0"/>
        <pt x="217" y="-6" on="0"/>
        <pt x="80" y="162" on="0"/>
        <pt x="80" y="297" on="1"/>
        <pt x="80" y="385" on="0"/>
        <pt x="134" y="552" on="0"/>
        <pt x="229" y="682" on="0"/>
        <pt x="373" y="761" on="0"/>
        <pt x="530" y="761" on="0"/>
        <pt x="631" y="690" on="0"/>
        <pt x="631" y="627" on="1"/>
        <pt x="631" y="579" on="0"/>
        <pt x="564" y="504" on="0"/>
        <pt x="505" y="504" on="1"/>
        <pt x="474" y="504" on="0"/>
        <pt x="426" y="535" on="0"/>
        <pt x="426" y="569" on="1"/>
        <pt x="426" y="585" on="0"/>
        <pt x="442" y="609" on="0"/>
        <pt x="450" y="612" on="1"/>
        <pt x="459" y="616" on="1"/>
        <pt x="459" y="576" on="0"/>
        <pt x="491" y="576" on="1"/>
        <pt x="506" y="576" on="0"/>
        <pt x="528" y="597" on="0"/>
        <pt x="530" y="623" on="0"/>
        <pt x="526" y="638" on="0"/>
        <pt x="520" y="648" on="1"/>
        <pt x="506" y="673" on="0"/>
        <pt x="461" y="673" on="1"/>
        <pt x="402" y="673" on="0"/>
        <pt x="296" y="561" on="0"/>
        <pt x="233" y="385" on="0"/>
        <pt x="233" y="293" on="1"/>
        <pt x="233" y="216" on="0"/>
        <pt x="258" y="156" on="1"/>
        <pt x="272" y="124" on="0"/>
        <pt x="326" y="87" on="0"/>
        <pt x="364" y="87" on="1"/>
        <pt x="427" y="87" on="0"/>
        <pt x="526" y="193" on="0"/>
        <pt x="573" y="343" on="0"/>
        <pt x="573" y="420" on="1"/>
        <pt x="573" y="432" on="1"/>
        <pt x="570" y="443" on="0"/>
        <pt x="570" y="453" on="1"/>
        <pt x="570" y="501" on="0"/>
        <pt x="604" y="526" on="1"/>
        <pt x="626" y="542" on="0"/>
        <pt x="659" y="542" on="1"/>
        <pt x="668" y="542" on="0"/>
        <pt x="708" y="536" on="0"/>
        <pt x="716" y="530" on="1"/>
        <pt x="695" y="529" on="0"/>
        <pt x="672" y="503" on="0"/>
        <pt x="672" y="459" on="0"/>
        <pt x="692" y="440" on="1"/>
        <pt x="720" y="413" on="0"/>
        <pt x="839" y="413" on="0"/>
        <pt x="903" y="462" on="1"/>
      </contour>
    </TTGlyph>
    <TTGlyph name="OE" xMin="80" yMin="-6" xMax="1268" yMax="761">
      <contour>
        <pt x="849" y="349" on="1"/>
        <pt x="791" y="308" on="0"/>
        <pt x="791" y="227" on="1"/>
        <pt x="791" y="176" on="0"/>
        <pt x="864" y="86" on="0"/>
        <pt x="1038" y="86" on="0"/>
        <pt x="1194" y="204" on="0"/>
        <pt x="1234" y="274" on="1"/>
        <pt x="1268" y="213" on="1"/>
        <pt x="1139" y="-6" on="0"/>
        <pt x="909" y="-6" on="1"/>
        <pt x="798" y="-6" on="0"/>
        <pt x="641" y="112" on="0"/>
        <pt x="637" y="193" on="1"/>
        <pt x="595" y="102" on="0"/>
        <pt x="446" y="-6" on="0"/>
        <pt x="346" y="-6" on="1"/>
        <pt x="217" y="-6" on="0"/>
        <pt x="80" y="162" on="0"/>
        <pt x="80" y="297" on="1"/>
        <pt x="80" y="385" on="0"/>
        <pt x="134" y="552" on="0"/>
        <pt x="229" y="682" on="0"/>
        <pt x="373" y="761" on="0"/>
        <pt x="530" y="761" on="0"/>
        <pt x="631" y="690" on="0"/>
        <pt x="631" y="572" on="0"/>
        <pt x="592" y="536" on="1"/>
        <pt x="609" y="542" on="0"/>
        <pt x="639" y="542" on="0"/>
        <pt x="678" y="536" on="0"/>
        <pt x="686" y="530" on="1"/>
        <pt x="665" y="529" on="0"/>
        <pt x="642" y="503" on="0"/>
        <pt x="642" y="459" on="0"/>
        <pt x="662" y="440" on="1"/>
        <pt x="690" y="414" on="0"/>
        <pt x="741" y="414" on="1"/>
        <pt x="762" y="415" on="1"/>
        <pt x="723" y="467" on="0"/>
        <pt x="723" y="534" on="1"/>
        <pt x="723" y="627" on="0"/>
        <pt x="884" y="761" on="0"/>
        <pt x="1096" y="761" on="0"/>
        <pt x="1211" y="653" on="0"/>
        <pt x="1211" y="565" on="1"/>
        <pt x="1116" y="565" on="1"/>
        <pt x="1117" y="619" on="0"/>
        <pt x="1058" y="674" on="0"/>
        <pt x="953" y="674" on="0"/>
        <pt x="911" y="636" on="1"/>
        <pt x="864" y="595" on="0"/>
        <pt x="864" y="485" on="0"/>
        <pt x="894" y="445" on="1"/>
        <pt x="994" y="457" on="0"/>
        <pt x="1046" y="432" on="1"/>
        <pt x="1078" y="417" on="0"/>
        <pt x="1078" y="352" on="0"/>
        <pt x="1005" y="326" on="0"/>
        <pt x="903" y="326" on="0"/>
      </contour>
      <contour>
        <pt x="364" y="87" on="1"/>
        <pt x="450" y="87" on="0"/>
        <pt x="563" y="269" on="0"/>
        <pt x="572" y="386" on="1"/>
        <pt x="540" y="416" on="0"/>
        <pt x="540" y="454" on="1"/>
        <pt x="540" y="491" on="0"/>
        <pt x="562" y="516" on="1"/>
        <pt x="538" y="504" on="0"/>
        <pt x="474" y="504" on="0"/>
        <pt x="426" y="535" on="0"/>
        <pt x="426" y="569" on="1"/>
        <pt x="426" y="585" on="0"/>
        <pt x="442" y="609" on="0"/>
        <pt x="450" y="612" on="1"/>
        <pt x="459" y="616" on="1"/>
        <pt x="459" y="576" on="0"/>
        <pt x="491" y="576" on="1"/>
        <pt x="506" y="576" on="0"/>
        <pt x="528" y="597" on="0"/>
        <pt x="530" y="623" on="0"/>
        <pt x="526" y="638" on="0"/>
        <pt x="520" y="648" on="1"/>
        <pt x="506" y="673" on="0"/>
        <pt x="461" y="673" on="1"/>
        <pt x="402" y="673" on="0"/>
        <pt x="296" y="561" on="0"/>
        <pt x="233" y="385" on="0"/>
        <pt x="233" y="293" on="1"/>
        <pt x="233" y="216" on="0"/>
        <pt x="258" y="156" on="1"/>
        <pt x="272" y="124" on="0"/>
        <pt x="326" y="87" on="0"/>
      </contour>
      <contour>
        <pt x="679" y="341" on="1"/>
        <pt x="679" y="338" on="1"/>
        <pt x="680" y="340" on="1"/>
      </contour>
    </TTGlyph>
    <TTGlyph name="Oacute" xMin="80" yMin="-6" xMax="925" yMax="1017">
      <contour>
        <pt x="403" y="830" on="1"/>
        <pt x="530" y="1017" on="1"/>
        <pt x="550" y="1007" on="0"/>
        <pt x="604" y="950" on="0"/>
        <pt x="621" y="926" on="1"/>
        <pt x="441" y="793" on="1"/>
        <pt x="429" y="800" on="0"/>
      </contour>
      <contour>
        <pt x="925" y="402" on="1"/>
        <pt x="902" y="377" on="0"/>
        <pt x="796" y="338" on="0"/>
        <pt x="733" y="338" on="0"/>
        <pt x="718" y="340" on="1"/>
        <pt x="693" y="192" on="0"/>
        <pt x="488" y="-6" on="0"/>
        <pt x="217" y="-6" on="0"/>
        <pt x="80" y="162" on="0"/>
        <pt x="80" y="297" on="1"/>
        <pt x="80" y="385" on="0"/>
        <pt x="134" y="552" on="0"/>
        <pt x="229" y="682" on="0"/>
        <pt x="373" y="761" on="0"/>
        <pt x="530" y="761" on="0"/>
        <pt x="631" y="690" on="0"/>
        <pt x="631" y="627" on="1"/>
        <pt x="631" y="579" on="0"/>
        <pt x="564" y="504" on="0"/>
        <pt x="505" y="504" on="1"/>
        <pt x="474" y="504" on="0"/>
        <pt x="426" y="535" on="0"/>
        <pt x="426" y="569" on="1"/>
        <pt x="426" y="585" on="0"/>
        <pt x="442" y="609" on="0"/>
        <pt x="450" y="612" on="1"/>
        <pt x="459" y="616" on="1"/>
        <pt x="459" y="576" on="0"/>
        <pt x="491" y="576" on="1"/>
        <pt x="506" y="576" on="0"/>
        <pt x="528" y="597" on="0"/>
        <pt x="530" y="623" on="0"/>
        <pt x="526" y="638" on="0"/>
        <pt x="520" y="648" on="1"/>
        <pt x="506" y="673" on="0"/>
        <pt x="461" y="673" on="1"/>
        <pt x="402" y="673" on="0"/>
        <pt x="296" y="561" on="0"/>
        <pt x="233" y="385" on="0"/>
        <pt x="233" y="293" on="1"/>
        <pt x="233" y="216" on="0"/>
        <pt x="258" y="156" on="1"/>
        <pt x="272" y="124" on="0"/>
        <pt x="326" y="87" on="0"/>
        <pt x="364" y="87" on="1"/>
        <pt x="427" y="87" on="0"/>
        <pt x="526" y="193" on="0"/>
        <pt x="573" y="343" on="0"/>
        <pt x="573" y="420" on="1"/>
        <pt x="573" y="432" on="1"/>
        <pt x="570" y="443" on="0"/>
        <pt x="570" y="453" on="1"/>
        <pt x="570" y="501" on="0"/>
        <pt x="604" y="526" on="1"/>
        <pt x="626" y="542" on="0"/>
        <pt x="659" y="542" on="1"/>
        <pt x="668" y="542" on="0"/>
        <pt x="708" y="536" on="0"/>
        <pt x="716" y="530" on="1"/>
        <pt x="695" y="529" on="0"/>
        <pt x="672" y="503" on="0"/>
        <pt x="672" y="459" on="0"/>
        <pt x="692" y="440" on="1"/>
        <pt x="720" y="413" on="0"/>
        <pt x="839" y="413" on="0"/>
        <pt x="903" y="462" on="1"/>
      </contour>
    </TTGlyph>
    <TTGlyph name="Ocircumflex" xMin="80" yMin="-6" xMax="925" yMax="980">
      <contour>
        <pt x="472" y="980" on="1"/>
        <pt x="646" y="859" on="1"/>
        <pt x="625" y="820" on="0"/>
        <pt x="613" y="801" on="1"/>
        <pt x="472" y="874" on="1"/>
        <pt x="331" y="801" on="1"/>
        <pt x="319" y="820" on="0"/>
        <pt x="298" y="859" on="1"/>
      </contour>
      <contour>
        <pt x="925" y="402" on="1"/>
        <pt x="902" y="377" on="0"/>
        <pt x="796" y="338" on="0"/>
        <pt x="733" y="338" on="0"/>
        <pt x="718" y="340" on="1"/>
        <pt x="693" y="192" on="0"/>
        <pt x="488" y="-6" on="0"/>
        <pt x="217" y="-6" on="0"/>
        <pt x="80" y="162" on="0"/>
        <pt x="80" y="297" on="1"/>
        <pt x="80" y="385" on="0"/>
        <pt x="134" y="552" on="0"/>
        <pt x="229" y="682" on="0"/>
        <pt x="373" y="761" on="0"/>
        <pt x="530" y="761" on="0"/>
        <pt x="631" y="690" on="0"/>
        <pt x="631" y="627" on="1"/>
        <pt x="631" y="579" on="0"/>
        <pt x="564" y="504" on="0"/>
        <pt x="505" y="504" on="1"/>
        <pt x="474" y="504" on="0"/>
        <pt x="426" y="535" on="0"/>
        <pt x="426" y="569" on="1"/>
        <pt x="426" y="585" on="0"/>
        <pt x="442" y="609" on="0"/>
        <pt x="450" y="612" on="1"/>
        <pt x="459" y="616" on="1"/>
        <pt x="459" y="576" on="0"/>
        <pt x="491" y="576" on="1"/>
        <pt x="506" y="576" on="0"/>
        <pt x="528" y="597" on="0"/>
        <pt x="530" y="623" on="0"/>
        <pt x="526" y="638" on="0"/>
        <pt x="520" y="648" on="1"/>
        <pt x="506" y="673" on="0"/>
        <pt x="461" y="673" on="1"/>
        <pt x="402" y="673" on="0"/>
        <pt x="296" y="561" on="0"/>
        <pt x="233" y="385" on="0"/>
        <pt x="233" y="293" on="1"/>
        <pt x="233" y="216" on="0"/>
        <pt x="258" y="156" on="1"/>
        <pt x="272" y="124" on="0"/>
        <pt x="326" y="87" on="0"/>
        <pt x="364" y="87" on="1"/>
        <pt x="427" y="87" on="0"/>
        <pt x="526" y="193" on="0"/>
        <pt x="573" y="343" on="0"/>
        <pt x="573" y="420" on="1"/>
        <pt x="573" y="432" on="1"/>
        <pt x="570" y="443" on="0"/>
        <pt x="570" y="453" on="1"/>
        <pt x="570" y="501" on="0"/>
        <pt x="604" y="526" on="1"/>
        <pt x="626" y="542" on="0"/>
        <pt x="659" y="542" on="1"/>
        <pt x="668" y="542" on="0"/>
        <pt x="708" y="536" on="0"/>
        <pt x="716" y="530" on="1"/>
        <pt x="695" y="529" on="0"/>
        <pt x="672" y="503" on="0"/>
        <pt x="672" y="459" on="0"/>
        <pt x="692" y="440" on="1"/>
        <pt x="720" y="413" on="0"/>
        <pt x="839" y="413" on="0"/>
        <pt x="903" y="462" on="1"/>
      </contour>
    </TTGlyph>
    <TTGlyph name="Odieresis" xMin="80" yMin="-6" xMax="925" yMax="957">
      <contour>
        <pt x="278" y="914" on="0"/>
        <pt x="319" y="957" on="0"/>
        <pt x="379" y="957" on="0"/>
        <pt x="421" y="914" on="0"/>
        <pt x="421" y="854" on="0"/>
        <pt x="379" y="812" on="0"/>
        <pt x="319" y="812" on="0"/>
        <pt x="278" y="854" on="0"/>
      </contour>
      <contour>
        <pt x="560" y="957" on="0"/>
        <pt x="620" y="957" on="0"/>
        <pt x="662" y="914" on="0"/>
        <pt x="662" y="854" on="0"/>
        <pt x="621" y="812" on="0"/>
        <pt x="560" y="812" on="0"/>
        <pt x="517" y="854" on="0"/>
        <pt x="517" y="914" on="0"/>
      </contour>
      <contour>
        <pt x="925" y="402" on="1"/>
        <pt x="902" y="377" on="0"/>
        <pt x="796" y="338" on="0"/>
        <pt x="733" y="338" on="0"/>
        <pt x="718" y="340" on="1"/>
        <pt x="693" y="192" on="0"/>
        <pt x="488" y="-6" on="0"/>
        <pt x="217" y="-6" on="0"/>
        <pt x="80" y="162" on="0"/>
        <pt x="80" y="297" on="1"/>
        <pt x="80" y="385" on="0"/>
        <pt x="134" y="552" on="0"/>
        <pt x="229" y="682" on="0"/>
        <pt x="373" y="761" on="0"/>
        <pt x="530" y="761" on="0"/>
        <pt x="631" y="690" on="0"/>
        <pt x="631" y="627" on="1"/>
        <pt x="631" y="579" on="0"/>
        <pt x="564" y="504" on="0"/>
        <pt x="505" y="504" on="1"/>
        <pt x="474" y="504" on="0"/>
        <pt x="426" y="535" on="0"/>
        <pt x="426" y="569" on="1"/>
        <pt x="426" y="585" on="0"/>
        <pt x="442" y="609" on="0"/>
        <pt x="450" y="612" on="1"/>
        <pt x="459" y="616" on="1"/>
        <pt x="459" y="576" on="0"/>
        <pt x="491" y="576" on="1"/>
        <pt x="506" y="576" on="0"/>
        <pt x="528" y="597" on="0"/>
        <pt x="530" y="623" on="0"/>
        <pt x="526" y="638" on="0"/>
        <pt x="520" y="648" on="1"/>
        <pt x="506" y="673" on="0"/>
        <pt x="461" y="673" on="1"/>
        <pt x="402" y="673" on="0"/>
        <pt x="296" y="561" on="0"/>
        <pt x="233" y="385" on="0"/>
        <pt x="233" y="293" on="1"/>
        <pt x="233" y="216" on="0"/>
        <pt x="258" y="156" on="1"/>
        <pt x="272" y="124" on="0"/>
        <pt x="326" y="87" on="0"/>
        <pt x="364" y="87" on="1"/>
        <pt x="427" y="87" on="0"/>
        <pt x="526" y="193" on="0"/>
        <pt x="573" y="343" on="0"/>
        <pt x="573" y="420" on="1"/>
        <pt x="573" y="432" on="1"/>
        <pt x="570" y="443" on="0"/>
        <pt x="570" y="453" on="1"/>
        <pt x="570" y="501" on="0"/>
        <pt x="604" y="526" on="1"/>
        <pt x="626" y="542" on="0"/>
        <pt x="659" y="542" on="1"/>
        <pt x="668" y="542" on="0"/>
        <pt x="708" y="536" on="0"/>
        <pt x="716" y="530" on="1"/>
        <pt x="695" y="529" on="0"/>
        <pt x="672" y="503" on="0"/>
        <pt x="672" y="459" on="0"/>
        <pt x="692" y="440" on="1"/>
        <pt x="720" y="413" on="0"/>
        <pt x="839" y="413" on="0"/>
        <pt x="903" y="462" on="1"/>
      </contour>
    </TTGlyph>
    <TTGlyph name="Ograve" xMin="80" yMin="-6" xMax="925" yMax="1017">
      <contour>
        <pt x="442" y="1017" on="1"/>
        <pt x="569" y="830" on="1"/>
        <pt x="543" y="800" on="0"/>
        <pt x="531" y="793" on="1"/>
        <pt x="351" y="926" on="1"/>
        <pt x="368" y="950" on="0"/>
        <pt x="422" y="1007" on="0"/>
      </contour>
      <contour>
        <pt x="925" y="402" on="1"/>
        <pt x="902" y="377" on="0"/>
        <pt x="796" y="338" on="0"/>
        <pt x="733" y="338" on="0"/>
        <pt x="718" y="340" on="1"/>
        <pt x="693" y="192" on="0"/>
        <pt x="488" y="-6" on="0"/>
        <pt x="217" y="-6" on="0"/>
        <pt x="80" y="162" on="0"/>
        <pt x="80" y="297" on="1"/>
        <pt x="80" y="385" on="0"/>
        <pt x="134" y="552" on="0"/>
        <pt x="229" y="682" on="0"/>
        <pt x="373" y="761" on="0"/>
        <pt x="530" y="761" on="0"/>
        <pt x="631" y="690" on="0"/>
        <pt x="631" y="627" on="1"/>
        <pt x="631" y="579" on="0"/>
        <pt x="564" y="504" on="0"/>
        <pt x="505" y="504" on="1"/>
        <pt x="474" y="504" on="0"/>
        <pt x="426" y="535" on="0"/>
        <pt x="426" y="569" on="1"/>
        <pt x="426" y="585" on="0"/>
        <pt x="442" y="609" on="0"/>
        <pt x="450" y="612" on="1"/>
        <pt x="459" y="616" on="1"/>
        <pt x="459" y="576" on="0"/>
        <pt x="491" y="576" on="1"/>
        <pt x="506" y="576" on="0"/>
        <pt x="528" y="597" on="0"/>
        <pt x="530" y="623" on="0"/>
        <pt x="526" y="638" on="0"/>
        <pt x="520" y="648" on="1"/>
        <pt x="506" y="673" on="0"/>
        <pt x="461" y="673" on="1"/>
        <pt x="402" y="673" on="0"/>
        <pt x="296" y="561" on="0"/>
        <pt x="233" y="385" on="0"/>
        <pt x="233" y="293" on="1"/>
        <pt x="233" y="216" on="0"/>
        <pt x="258" y="156" on="1"/>
        <pt x="272" y="124" on="0"/>
        <pt x="326" y="87" on="0"/>
        <pt x="364" y="87" on="1"/>
        <pt x="427" y="87" on="0"/>
        <pt x="526" y="193" on="0"/>
        <pt x="573" y="343" on="0"/>
        <pt x="573" y="420" on="1"/>
        <pt x="573" y="432" on="1"/>
        <pt x="570" y="443" on="0"/>
        <pt x="570" y="453" on="1"/>
        <pt x="570" y="501" on="0"/>
        <pt x="604" y="526" on="1"/>
        <pt x="626" y="542" on="0"/>
        <pt x="659" y="542" on="1"/>
        <pt x="668" y="542" on="0"/>
        <pt x="708" y="536" on="0"/>
        <pt x="716" y="530" on="1"/>
        <pt x="695" y="529" on="0"/>
        <pt x="672" y="503" on="0"/>
        <pt x="672" y="459" on="0"/>
        <pt x="692" y="440" on="1"/>
        <pt x="720" y="413" on="0"/>
        <pt x="839" y="413" on="0"/>
        <pt x="903" y="462" on="1"/>
      </contour>
    </TTGlyph>
    <TTGlyph name="Oslash" xMin="80" yMin="-60" xMax="925" yMax="801">
      <contour>
        <pt x="925" y="402" on="1"/>
        <pt x="902" y="377" on="0"/>
        <pt x="796" y="338" on="0"/>
        <pt x="733" y="338" on="0"/>
        <pt x="718" y="340" on="1"/>
        <pt x="693" y="192" on="0"/>
        <pt x="488" y="-6" on="0"/>
        <pt x="346" y="-6" on="1"/>
        <pt x="327" y="-6" on="1"/>
        <pt x="311" y="-60" on="1"/>
        <pt x="228" y="-60" on="1"/>
        <pt x="249" y="9" on="1"/>
        <pt x="166" y="38" on="0"/>
        <pt x="80" y="191" on="0"/>
        <pt x="80" y="385" on="0"/>
        <pt x="134" y="552" on="0"/>
        <pt x="229" y="682" on="0"/>
        <pt x="373" y="761" on="0"/>
        <pt x="457" y="761" on="1"/>
        <pt x="474" y="760" on="1"/>
        <pt x="486" y="801" on="1"/>
        <pt x="569" y="801" on="1"/>
        <pt x="551" y="742" on="1"/>
        <pt x="631" y="706" on="0"/>
        <pt x="631" y="627" on="1"/>
        <pt x="631" y="579" on="0"/>
        <pt x="564" y="504" on="0"/>
        <pt x="505" y="504" on="1"/>
        <pt x="493" y="504" on="0"/>
        <pt x="481" y="507" on="1"/>
        <pt x="355" y="87" on="1"/>
        <pt x="364" y="87" on="1"/>
        <pt x="427" y="87" on="0"/>
        <pt x="526" y="193" on="0"/>
        <pt x="573" y="343" on="0"/>
        <pt x="573" y="420" on="1"/>
        <pt x="573" y="432" on="1"/>
        <pt x="570" y="443" on="0"/>
        <pt x="570" y="453" on="1"/>
        <pt x="570" y="501" on="0"/>
        <pt x="604" y="526" on="1"/>
        <pt x="626" y="542" on="0"/>
        <pt x="659" y="542" on="1"/>
        <pt x="668" y="542" on="0"/>
        <pt x="708" y="536" on="0"/>
        <pt x="716" y="530" on="1"/>
        <pt x="695" y="529" on="0"/>
        <pt x="672" y="503" on="0"/>
        <pt x="672" y="459" on="0"/>
        <pt x="692" y="440" on="1"/>
        <pt x="720" y="413" on="0"/>
        <pt x="839" y="413" on="0"/>
        <pt x="903" y="462" on="1"/>
      </contour>
      <contour>
        <pt x="233" y="293" on="1"/>
        <pt x="233" y="173" on="0"/>
        <pt x="282" y="121" on="1"/>
        <pt x="447" y="672" on="1"/>
        <pt x="391" y="665" on="0"/>
        <pt x="291" y="552" on="0"/>
        <pt x="233" y="382" on="0"/>
      </contour>
      <contour>
        <pt x="522" y="645" on="1"/>
        <pt x="502" y="578" on="1"/>
        <pt x="527" y="585" on="0"/>
        <pt x="530" y="617" on="1"/>
        <pt x="530" y="631" on="0"/>
      </contour>
    </TTGlyph>
    <TTGlyph name="Otilde" xMin="80" yMin="-6" xMax="925" yMax="980">
      <contour>
        <pt x="447" y="979" on="0"/>
        <pt x="557" y="909" on="0"/>
        <pt x="580" y="909" on="1"/>
        <pt x="626" y="909" on="0"/>
        <pt x="654" y="977" on="1"/>
        <pt x="698" y="952" on="1"/>
        <pt x="689" y="887" on="0"/>
        <pt x="620" y="804" on="0"/>
        <pt x="526" y="804" on="0"/>
        <pt x="474" y="841" on="1"/>
        <pt x="419" y="879" on="0"/>
        <pt x="375" y="879" on="0"/>
        <pt x="343" y="854" on="0"/>
        <pt x="327" y="820" on="1"/>
        <pt x="283" y="846" on="1"/>
        <pt x="296" y="904" on="0"/>
        <pt x="360" y="979" on="0"/>
      </contour>
      <contour>
        <pt x="925" y="402" on="1"/>
        <pt x="902" y="377" on="0"/>
        <pt x="796" y="338" on="0"/>
        <pt x="733" y="338" on="0"/>
        <pt x="718" y="340" on="1"/>
        <pt x="693" y="192" on="0"/>
        <pt x="488" y="-6" on="0"/>
        <pt x="217" y="-6" on="0"/>
        <pt x="80" y="162" on="0"/>
        <pt x="80" y="297" on="1"/>
        <pt x="80" y="385" on="0"/>
        <pt x="134" y="552" on="0"/>
        <pt x="229" y="682" on="0"/>
        <pt x="373" y="761" on="0"/>
        <pt x="530" y="761" on="0"/>
        <pt x="631" y="690" on="0"/>
        <pt x="631" y="627" on="1"/>
        <pt x="631" y="579" on="0"/>
        <pt x="564" y="504" on="0"/>
        <pt x="505" y="504" on="1"/>
        <pt x="474" y="504" on="0"/>
        <pt x="426" y="535" on="0"/>
        <pt x="426" y="569" on="1"/>
        <pt x="426" y="585" on="0"/>
        <pt x="442" y="609" on="0"/>
        <pt x="450" y="612" on="1"/>
        <pt x="459" y="616" on="1"/>
        <pt x="459" y="576" on="0"/>
        <pt x="491" y="576" on="1"/>
        <pt x="506" y="576" on="0"/>
        <pt x="528" y="597" on="0"/>
        <pt x="530" y="623" on="0"/>
        <pt x="526" y="638" on="0"/>
        <pt x="520" y="648" on="1"/>
        <pt x="506" y="673" on="0"/>
        <pt x="461" y="673" on="1"/>
        <pt x="402" y="673" on="0"/>
        <pt x="296" y="561" on="0"/>
        <pt x="233" y="385" on="0"/>
        <pt x="233" y="293" on="1"/>
        <pt x="233" y="216" on="0"/>
        <pt x="258" y="156" on="1"/>
        <pt x="272" y="124" on="0"/>
        <pt x="326" y="87" on="0"/>
        <pt x="364" y="87" on="1"/>
        <pt x="427" y="87" on="0"/>
        <pt x="526" y="193" on="0"/>
        <pt x="573" y="343" on="0"/>
        <pt x="573" y="420" on="1"/>
        <pt x="573" y="432" on="1"/>
        <pt x="570" y="443" on="0"/>
        <pt x="570" y="453" on="1"/>
        <pt x="570" y="501" on="0"/>
        <pt x="604" y="526" on="1"/>
        <pt x="626" y="542" on="0"/>
        <pt x="659" y="542" on="1"/>
        <pt x="668" y="542" on="0"/>
        <pt x="708" y="536" on="0"/>
        <pt x="716" y="530" on="1"/>
        <pt x="695" y="529" on="0"/>
        <pt x="672" y="503" on="0"/>
        <pt x="672" y="459" on="0"/>
        <pt x="692" y="440" on="1"/>
        <pt x="720" y="413" on="0"/>
        <pt x="839" y="413" on="0"/>
        <pt x="903" y="462" on="1"/>
      </contour>
    </TTGlyph>
    <TTGlyph name="P" xMin="19" yMin="-6" xMax="646" yMax="761">
      <contour>
        <pt x="19" y="545" on="1"/>
        <pt x="19" y="641" on="0"/>
        <pt x="189" y="761" on="0"/>
        <pt x="331" y="761" on="1"/>
        <pt x="416" y="761" on="0"/>
        <pt x="544" y="722" on="0"/>
        <pt x="578" y="688" on="1"/>
        <pt x="646" y="621" on="0"/>
        <pt x="646" y="447" on="0"/>
        <pt x="507" y="330" on="0"/>
        <pt x="399" y="330" on="1"/>
        <pt x="387" y="330" on="0"/>
        <pt x="363" y="332" on="1"/>
        <pt x="372" y="405" on="1"/>
        <pt x="505" y="405" on="0"/>
        <pt x="505" y="530" on="1"/>
        <pt x="505" y="588" on="0"/>
        <pt x="456" y="628" on="1"/>
        <pt x="405" y="670" on="0"/>
        <pt x="304" y="670" on="1"/>
        <pt x="203" y="670" on="0"/>
        <pt x="144" y="618" on="1"/>
        <pt x="109" y="588" on="0"/>
        <pt x="109" y="553" on="1"/>
        <pt x="109" y="487" on="0"/>
        <pt x="188" y="478" on="1"/>
        <pt x="176" y="404" on="1"/>
        <pt x="107" y="407" on="0"/>
        <pt x="19" y="489" on="0"/>
      </contour>
      <contour>
        <pt x="371" y="618" on="1"/>
        <pt x="327" y="332" on="1"/>
        <pt x="454" y="271" on="0"/>
        <pt x="454" y="152" on="1"/>
        <pt x="454" y="65" on="0"/>
        <pt x="363" y="-6" on="0"/>
        <pt x="235" y="-6" on="0"/>
        <pt x="163" y="60" on="0"/>
        <pt x="163" y="116" on="1"/>
        <pt x="163" y="129" on="0"/>
        <pt x="164" y="136" on="1"/>
        <pt x="224" y="599" on="1"/>
        <pt x="276" y="624" on="0"/>
        <pt x="348" y="624" on="0"/>
      </contour>
      <contour>
        <pt x="328" y="85" on="1"/>
        <pt x="352" y="85" on="0"/>
        <pt x="387" y="119" on="0"/>
        <pt x="387" y="159" on="1"/>
        <pt x="387" y="230" on="0"/>
        <pt x="319" y="271" on="1"/>
        <pt x="303" y="154" on="0"/>
        <pt x="303" y="107" on="0"/>
        <pt x="318" y="85" on="0"/>
      </contour>
    </TTGlyph>
    <TTGlyph name="Q" xMin="50" yMin="-10" xMax="715" yMax="761">
      <contour>
        <pt x="543" y="425" on="1"/>
        <pt x="543" y="452" on="0"/>
        <pt x="536" y="469" on="1"/>
        <pt x="546" y="484" on="0"/>
        <pt x="589" y="503" on="0"/>
        <pt x="628" y="503" on="0"/>
        <pt x="643" y="497" on="1"/>
        <pt x="694" y="472" on="0"/>
        <pt x="694" y="407" on="1"/>
        <pt x="694" y="234" on="0"/>
        <pt x="575" y="108" on="1"/>
        <pt x="604" y="77" on="0"/>
        <pt x="629" y="77" on="1"/>
        <pt x="671" y="77" on="0"/>
        <pt x="671" y="118" on="1"/>
        <pt x="671" y="129" on="0"/>
        <pt x="668" y="141" on="1"/>
        <pt x="715" y="119" on="0"/>
        <pt x="715" y="32" on="0"/>
        <pt x="659" y="-10" on="0"/>
        <pt x="620" y="-10" on="1"/>
        <pt x="562" y="-10" on="0"/>
        <pt x="509" y="53" on="1"/>
        <pt x="418" y="-6" on="0"/>
        <pt x="316" y="-6" on="1"/>
        <pt x="187" y="-6" on="0"/>
        <pt x="50" y="162" on="0"/>
        <pt x="50" y="297" on="1"/>
        <pt x="50" y="385" on="0"/>
        <pt x="104" y="552" on="0"/>
        <pt x="199" y="682" on="0"/>
        <pt x="343" y="761" on="0"/>
        <pt x="500" y="761" on="0"/>
        <pt x="601" y="690" on="0"/>
        <pt x="601" y="627" on="1"/>
        <pt x="601" y="579" on="0"/>
        <pt x="534" y="504" on="0"/>
        <pt x="475" y="504" on="1"/>
        <pt x="444" y="504" on="0"/>
        <pt x="396" y="535" on="0"/>
        <pt x="396" y="569" on="1"/>
        <pt x="396" y="585" on="0"/>
        <pt x="412" y="609" on="0"/>
        <pt x="420" y="612" on="1"/>
        <pt x="429" y="616" on="1"/>
        <pt x="429" y="576" on="0"/>
        <pt x="461" y="576" on="1"/>
        <pt x="476" y="576" on="0"/>
        <pt x="498" y="597" on="0"/>
        <pt x="500" y="623" on="0"/>
        <pt x="496" y="638" on="0"/>
        <pt x="490" y="648" on="1"/>
        <pt x="476" y="673" on="0"/>
        <pt x="431" y="673" on="1"/>
        <pt x="372" y="673" on="0"/>
        <pt x="266" y="561" on="0"/>
        <pt x="203" y="385" on="0"/>
        <pt x="203" y="293" on="1"/>
        <pt x="203" y="216" on="0"/>
        <pt x="228" y="156" on="1"/>
        <pt x="242" y="124" on="0"/>
        <pt x="296" y="87" on="0"/>
        <pt x="334" y="87" on="1"/>
        <pt x="397" y="87" on="0"/>
        <pt x="446" y="141" on="1"/>
        <pt x="393" y="222" on="0"/>
        <pt x="356" y="222" on="1"/>
        <pt x="351" y="222" on="0"/>
        <pt x="330" y="215" on="1"/>
        <pt x="345" y="268" on="1"/>
        <pt x="365" y="285" on="0"/>
        <pt x="392" y="285" on="1"/>
        <pt x="441" y="285" on="0"/>
        <pt x="496" y="215" on="1"/>
        <pt x="543" y="311" on="0"/>
      </contour>
    </TTGlyph>
    <TTGlyph name="R" xMin="16" yMin="-6" xMax="779" yMax="761">
      <contour>
        <pt x="747" y="215" on="1"/>
        <pt x="779" y="166" on="1"/>
        <pt x="730" y="-6" on="0"/>
        <pt x="576" y="-6" on="1"/>
        <pt x="541" y="-6" on="0"/>
        <pt x="490" y="20" on="0"/>
        <pt x="464" y="56" on="0"/>
        <pt x="456" y="84" on="1"/>
        <pt x="445" y="126" on="0"/>
        <pt x="444" y="264" on="0"/>
        <pt x="411" y="316" on="0"/>
        <pt x="365" y="319" on="1"/>
        <pt x="376" y="404" on="1"/>
        <pt x="378" y="404" on="0"/>
        <pt x="379" y="404" on="1"/>
        <pt x="437" y="404" on="0"/>
        <pt x="475" y="437" on="1"/>
        <pt x="516" y="474" on="0"/>
        <pt x="516" y="590" on="0"/>
        <pt x="407" y="670" on="0"/>
        <pt x="321" y="670" on="1"/>
        <pt x="210" y="670" on="0"/>
        <pt x="150" y="615" on="1"/>
        <pt x="118" y="585" on="0"/>
        <pt x="118" y="543" on="1"/>
        <pt x="118" y="490" on="0"/>
        <pt x="199" y="479" on="1"/>
        <pt x="185" y="404" on="1"/>
        <pt x="124" y="407" on="0"/>
        <pt x="30" y="483" on="0"/>
        <pt x="30" y="543" on="1"/>
        <pt x="30" y="648" on="0"/>
        <pt x="206" y="761" on="0"/>
        <pt x="341" y="761" on="1"/>
        <pt x="428" y="761" on="0"/>
        <pt x="494" y="740" on="1"/>
        <pt x="607" y="702" on="0"/>
        <pt x="644" y="608" on="1"/>
        <pt x="656" y="575" on="0"/>
        <pt x="656" y="534" on="0"/>
        <pt x="656" y="527" on="1"/>
        <pt x="652" y="472" on="0"/>
        <pt x="579" y="366" on="0"/>
        <pt x="506" y="346" on="1"/>
        <pt x="550" y="337" on="0"/>
        <pt x="582" y="279" on="0"/>
        <pt x="583" y="220" on="1"/>
        <pt x="584" y="119" on="0"/>
        <pt x="601" y="76" on="0"/>
        <pt x="628" y="76" on="1"/>
        <pt x="701" y="76" on="0"/>
      </contour>
      <contour>
        <pt x="134" y="-6" on="1"/>
        <pt x="81" y="-6" on="0"/>
        <pt x="17" y="58" on="0"/>
        <pt x="17" y="105" on="1"/>
        <pt x="17" y="227" on="0"/>
        <pt x="196" y="309" on="1"/>
        <pt x="232" y="589" on="0"/>
        <pt x="233" y="596" on="1"/>
        <pt x="275" y="623" on="0"/>
        <pt x="328" y="623" on="1"/>
        <pt x="350" y="623" on="0"/>
        <pt x="378" y="617" on="1"/>
        <pt x="315" y="190" on="1"/>
        <pt x="285" y="-6" on="0"/>
      </contour>
      <contour>
        <pt x="91" y="117" on="1"/>
        <pt x="91" y="85" on="0"/>
        <pt x="125" y="85" on="1"/>
        <pt x="165" y="85" on="0"/>
        <pt x="176" y="157" on="1"/>
        <pt x="185" y="225" on="1"/>
        <pt x="91" y="170" on="0"/>
      </contour>
    </TTGlyph>
    <TTGlyph name="S" xMin="40" yMin="-6" xMax="523" yMax="763">
      <contour>
        <pt x="418" y="504" on="1"/>
        <pt x="448" y="549" on="0"/>
        <pt x="448" y="627" on="0"/>
        <pt x="404" y="673" on="0"/>
        <pt x="332" y="673" on="0"/>
        <pt x="288" y="638" on="0"/>
        <pt x="288" y="563" on="0"/>
        <pt x="392" y="369" on="0"/>
        <pt x="406" y="341" on="1"/>
        <pt x="444" y="265" on="0"/>
        <pt x="444" y="194" on="1"/>
        <pt x="444" y="105" on="0"/>
        <pt x="315" y="-6" on="0"/>
        <pt x="140" y="-6" on="0"/>
        <pt x="40" y="103" on="0"/>
        <pt x="40" y="176" on="1"/>
        <pt x="40" y="311" on="0"/>
        <pt x="207" y="399" on="1"/>
        <pt x="139" y="533" on="0"/>
        <pt x="139" y="586" on="1"/>
        <pt x="139" y="660" on="0"/>
        <pt x="258" y="763" on="0"/>
        <pt x="431" y="763" on="0"/>
        <pt x="523" y="675" on="0"/>
        <pt x="523" y="607" on="1"/>
        <pt x="523" y="562" on="0"/>
        <pt x="493" y="504" on="1"/>
      </contour>
      <contour>
        <pt x="183" y="85" on="0"/>
        <pt x="260" y="85" on="0"/>
        <pt x="303" y="130" on="0"/>
        <pt x="303" y="174" on="1"/>
        <pt x="303" y="214" on="0"/>
        <pt x="272" y="272" on="1"/>
        <pt x="268" y="280" on="0"/>
        <pt x="246" y="323" on="0"/>
        <pt x="241" y="332" on="1"/>
        <pt x="129" y="274" on="0"/>
        <pt x="129" y="186" on="1"/>
        <pt x="129" y="141" on="0"/>
        <pt x="156" y="114" on="1"/>
      </contour>
    </TTGlyph>
    <TTGlyph name="Scaron" xMin="40" yMin="-6" xMax="524" yMax="980">
      <contour>
        <pt x="190" y="980" on="1"/>
        <pt x="270" y="980" on="1"/>
        <pt x="357" y="897" on="1"/>
        <pt x="444" y="980" on="1"/>
        <pt x="524" y="980" on="1"/>
        <pt x="405" y="822" on="1"/>
        <pt x="299" y="822" on="1"/>
      </contour>
      <contour>
        <pt x="418" y="504" on="1"/>
        <pt x="448" y="549" on="0"/>
        <pt x="448" y="627" on="0"/>
        <pt x="404" y="673" on="0"/>
        <pt x="332" y="673" on="0"/>
        <pt x="288" y="638" on="0"/>
        <pt x="288" y="563" on="0"/>
        <pt x="392" y="369" on="0"/>
        <pt x="406" y="341" on="1"/>
        <pt x="444" y="265" on="0"/>
        <pt x="444" y="194" on="1"/>
        <pt x="444" y="105" on="0"/>
        <pt x="315" y="-6" on="0"/>
        <pt x="140" y="-6" on="0"/>
        <pt x="40" y="103" on="0"/>
        <pt x="40" y="176" on="1"/>
        <pt x="40" y="311" on="0"/>
        <pt x="207" y="399" on="1"/>
        <pt x="139" y="533" on="0"/>
        <pt x="139" y="586" on="1"/>
        <pt x="139" y="660" on="0"/>
        <pt x="258" y="763" on="0"/>
        <pt x="431" y="763" on="0"/>
        <pt x="523" y="675" on="0"/>
        <pt x="523" y="607" on="1"/>
        <pt x="523" y="562" on="0"/>
        <pt x="493" y="504" on="1"/>
      </contour>
      <contour>
        <pt x="183" y="85" on="0"/>
        <pt x="260" y="85" on="0"/>
        <pt x="303" y="130" on="0"/>
        <pt x="303" y="174" on="1"/>
        <pt x="303" y="214" on="0"/>
        <pt x="272" y="272" on="1"/>
        <pt x="268" y="280" on="0"/>
        <pt x="246" y="323" on="0"/>
        <pt x="241" y="332" on="1"/>
        <pt x="129" y="274" on="0"/>
        <pt x="129" y="186" on="1"/>
        <pt x="129" y="141" on="0"/>
        <pt x="156" y="114" on="1"/>
      </contour>
    </TTGlyph>
    <TTGlyph name="T" xMin="0" yMin="-4" xMax="564" yMax="761">
      <contour>
        <pt x="239" y="596" on="0"/>
        <pt x="157" y="536" on="0"/>
        <pt x="61" y="536" on="0"/>
        <pt x="0" y="592" on="0"/>
        <pt x="0" y="702" on="0"/>
        <pt x="98" y="761" on="0"/>
        <pt x="164" y="761" on="1"/>
        <pt x="561" y="761" on="1"/>
        <pt x="564" y="747" on="0"/>
        <pt x="564" y="734" on="1"/>
        <pt x="564" y="700" on="0"/>
        <pt x="520" y="642" on="0"/>
        <pt x="475" y="642" on="1"/>
        <pt x="473" y="642" on="0"/>
        <pt x="472" y="642" on="1"/>
        <pt x="260" y="642" on="1"/>
      </contour>
      <contour>
        <pt x="130" y="642" on="1"/>
        <pt x="93" y="642" on="0"/>
        <pt x="93" y="616" on="1"/>
        <pt x="93" y="595" on="0"/>
        <pt x="125" y="595" on="1"/>
        <pt x="140" y="595" on="0"/>
        <pt x="181" y="621" on="0"/>
        <pt x="195" y="642" on="1"/>
      </contour>
      <contour>
        <pt x="312" y="-4" on="0"/>
        <pt x="160" y="-4" on="1"/>
        <pt x="106" y="-4" on="0"/>
        <pt x="41" y="62" on="0"/>
        <pt x="41" y="112" on="1"/>
        <pt x="41" y="229" on="0"/>
        <pt x="219" y="312" on="1"/>
        <pt x="254" y="578" on="1"/>
        <pt x="295" y="604" on="0"/>
        <pt x="349" y="604" on="1"/>
        <pt x="374" y="604" on="0"/>
        <pt x="397" y="599" on="1"/>
        <pt x="337" y="192" on="1"/>
      </contour>
      <contour>
        <pt x="115" y="173" on="0"/>
        <pt x="115" y="123" on="1"/>
        <pt x="115" y="87" on="0"/>
        <pt x="150" y="87" on="1"/>
        <pt x="190" y="87" on="0"/>
        <pt x="200" y="164" on="1"/>
        <pt x="208" y="227" on="1"/>
      </contour>
    </TTGlyph>
    <TTGlyph name="Thorn" xMin="-41" yMin="-274" xMax="597" yMax="761">
      <contour>
        <pt x="597" y="377" on="1"/>
        <pt x="597" y="313" on="0"/>
        <pt x="529" y="218" on="0"/>
        <pt x="482" y="195" on="1"/>
        <pt x="394" y="151" on="0"/>
        <pt x="295" y="151" on="1"/>
        <pt x="274" y="151" on="1"/>
        <pt x="359" y="30" on="0"/>
        <pt x="359" y="-91" on="1"/>
        <pt x="359" y="-172" on="0"/>
        <pt x="275" y="-274" on="0"/>
        <pt x="197" y="-274" on="1"/>
        <pt x="141" y="-274" on="0"/>
        <pt x="62" y="-197" on="0"/>
        <pt x="62" y="-136" on="1"/>
        <pt x="67" y="-86" on="1"/>
        <pt x="97" y="151" on="1"/>
        <pt x="97" y="155" on="1"/>
        <pt x="98" y="188" on="0"/>
        <pt x="104" y="227" on="1"/>
        <pt x="43" y="238" on="0"/>
        <pt x="-41" y="316" on="0"/>
        <pt x="-41" y="365" on="1"/>
        <pt x="-41" y="436" on="0"/>
        <pt x="57" y="543" on="0"/>
        <pt x="144" y="566" on="1"/>
        <pt x="162" y="727" on="0"/>
        <pt x="166" y="753" on="1"/>
        <pt x="187" y="761" on="0"/>
        <pt x="222" y="761" on="1"/>
        <pt x="302" y="761" on="0"/>
        <pt x="302" y="715" on="1"/>
        <pt x="285" y="581" on="1"/>
        <pt x="446" y="578" on="0"/>
        <pt x="597" y="457" on="0"/>
      </contour>
      <contour>
        <pt x="277" y="225" on="1"/>
        <pt x="353" y="225" on="0"/>
        <pt x="455" y="288" on="0"/>
        <pt x="455" y="360" on="1"/>
        <pt x="455" y="414" on="0"/>
        <pt x="359" y="485" on="0"/>
        <pt x="273" y="489" on="1"/>
        <pt x="237" y="198" on="1"/>
        <pt x="248" y="186" on="0"/>
        <pt x="264" y="164" on="1"/>
        <pt x="272" y="225" on="1"/>
        <pt x="274" y="225" on="0"/>
      </contour>
      <contour>
        <pt x="49" y="366" on="1"/>
        <pt x="49" y="342" on="0"/>
        <pt x="84" y="308" on="0"/>
        <pt x="113" y="301" on="1"/>
        <pt x="133" y="469" on="1"/>
        <pt x="49" y="435" on="0"/>
      </contour>
      <contour>
        <pt x="200" y="-112" on="1"/>
        <pt x="199" y="-118" on="0"/>
        <pt x="199" y="-152" on="0"/>
        <pt x="220" y="-182" on="0"/>
        <pt x="254" y="-182" on="0"/>
        <pt x="288" y="-141" on="0"/>
        <pt x="288" y="-93" on="1"/>
        <pt x="288" y="-8" on="0"/>
        <pt x="223" y="84" on="1"/>
      </contour>
    </TTGlyph>
    <TTGlyph name="U" xMin="0" yMin="-6" xMax="742" yMax="761">
      <contour>
        <pt x="447" y="746" on="0"/>
        <pt x="512" y="761" on="0"/>
        <pt x="570" y="761" on="0"/>
        <pt x="589" y="753" on="1"/>
        <pt x="516" y="169" on="0"/>
        <pt x="516" y="129" on="0"/>
        <pt x="541" y="98" on="0"/>
        <pt x="565" y="98" on="1"/>
        <pt x="631" y="98" on="0"/>
        <pt x="683" y="279" on="1"/>
        <pt x="683" y="281" on="0"/>
        <pt x="685" y="287" on="0"/>
        <pt x="685" y="288" on="1"/>
        <pt x="729" y="260" on="0"/>
        <pt x="742" y="253" on="1"/>
        <pt x="709" y="127" on="0"/>
        <pt x="611" y="-6" on="0"/>
        <pt x="457" y="-6" on="0"/>
        <pt x="430" y="67" on="1"/>
        <pt x="427" y="67" on="1"/>
        <pt x="396" y="28" on="0"/>
        <pt x="320" y="-6" on="0"/>
        <pt x="263" y="-6" on="1"/>
        <pt x="169" y="-6" on="0"/>
        <pt x="68" y="92" on="0"/>
        <pt x="68" y="183" on="1"/>
        <pt x="68" y="202" on="0"/>
        <pt x="71" y="225" on="1"/>
        <pt x="99" y="459" on="1"/>
        <pt x="0" y="529" on="0"/>
        <pt x="0" y="624" on="1"/>
        <pt x="0" y="687" on="0"/>
        <pt x="76" y="761" on="0"/>
        <pt x="135" y="761" on="1"/>
        <pt x="258" y="761" on="0"/>
        <pt x="258" y="631" on="1"/>
        <pt x="258" y="610" on="0"/>
        <pt x="255" y="584" on="1"/>
        <pt x="204" y="193" on="1"/>
        <pt x="203" y="186" on="0"/>
        <pt x="203" y="172" on="1"/>
        <pt x="203" y="133" on="0"/>
        <pt x="239" y="85" on="0"/>
        <pt x="276" y="85" on="1"/>
        <pt x="365" y="85" on="0"/>
        <pt x="381" y="223" on="1"/>
        <pt x="441" y="738" on="1"/>
      </contour>
      <contour>
        <pt x="98" y="669" on="1"/>
        <pt x="64" y="669" on="0"/>
        <pt x="64" y="586" on="0"/>
        <pt x="110" y="546" on="1"/>
        <pt x="113" y="572" on="1"/>
        <pt x="119" y="624" on="0"/>
        <pt x="120" y="637" on="1"/>
        <pt x="120" y="669" on="0"/>
      </contour>
    </TTGlyph>
    <TTGlyph name="Uacute" xMin="0" yMin="-6" xMax="742" yMax="1017">
      <contour>
        <pt x="274" y="830" on="1"/>
        <pt x="401" y="1017" on="1"/>
        <pt x="421" y="1007" on="0"/>
        <pt x="475" y="950" on="0"/>
        <pt x="492" y="926" on="1"/>
        <pt x="312" y="793" on="1"/>
        <pt x="300" y="800" on="0"/>
      </contour>
      <contour>
        <pt x="447" y="746" on="0"/>
        <pt x="512" y="761" on="0"/>
        <pt x="570" y="761" on="0"/>
        <pt x="589" y="753" on="1"/>
        <pt x="516" y="169" on="0"/>
        <pt x="516" y="129" on="0"/>
        <pt x="541" y="98" on="0"/>
        <pt x="565" y="98" on="1"/>
        <pt x="631" y="98" on="0"/>
        <pt x="683" y="279" on="1"/>
        <pt x="683" y="281" on="0"/>
        <pt x="685" y="287" on="0"/>
        <pt x="685" y="288" on="1"/>
        <pt x="729" y="260" on="0"/>
        <pt x="742" y="253" on="1"/>
        <pt x="709" y="127" on="0"/>
        <pt x="611" y="-6" on="0"/>
        <pt x="457" y="-6" on="0"/>
        <pt x="430" y="67" on="1"/>
        <pt x="427" y="67" on="1"/>
        <pt x="396" y="28" on="0"/>
        <pt x="320" y="-6" on="0"/>
        <pt x="263" y="-6" on="1"/>
        <pt x="169" y="-6" on="0"/>
        <pt x="68" y="92" on="0"/>
        <pt x="68" y="183" on="1"/>
        <pt x="68" y="202" on="0"/>
        <pt x="71" y="225" on="1"/>
        <pt x="99" y="459" on="1"/>
        <pt x="0" y="529" on="0"/>
        <pt x="0" y="624" on="1"/>
        <pt x="0" y="687" on="0"/>
        <pt x="76" y="761" on="0"/>
        <pt x="135" y="761" on="1"/>
        <pt x="258" y="761" on="0"/>
        <pt x="258" y="631" on="1"/>
        <pt x="258" y="610" on="0"/>
        <pt x="255" y="584" on="1"/>
        <pt x="204" y="193" on="1"/>
        <pt x="203" y="186" on="0"/>
        <pt x="203" y="172" on="1"/>
        <pt x="203" y="133" on="0"/>
        <pt x="239" y="85" on="0"/>
        <pt x="276" y="85" on="1"/>
        <pt x="365" y="85" on="0"/>
        <pt x="381" y="223" on="1"/>
        <pt x="441" y="738" on="1"/>
      </contour>
      <contour>
        <pt x="98" y="669" on="1"/>
        <pt x="64" y="669" on="0"/>
        <pt x="64" y="586" on="0"/>
        <pt x="110" y="546" on="1"/>
        <pt x="113" y="572" on="1"/>
        <pt x="119" y="624" on="0"/>
        <pt x="120" y="637" on="1"/>
        <pt x="120" y="669" on="0"/>
      </contour>
    </TTGlyph>
    <TTGlyph name="Ucircumflex" xMin="0" yMin="-6" xMax="742" yMax="980">
      <contour>
        <pt x="343" y="980" on="1"/>
        <pt x="517" y="859" on="1"/>
        <pt x="496" y="820" on="0"/>
        <pt x="484" y="801" on="1"/>
        <pt x="343" y="874" on="1"/>
        <pt x="202" y="801" on="1"/>
        <pt x="190" y="820" on="0"/>
        <pt x="169" y="859" on="1"/>
      </contour>
      <contour>
        <pt x="447" y="746" on="0"/>
        <pt x="512" y="761" on="0"/>
        <pt x="570" y="761" on="0"/>
        <pt x="589" y="753" on="1"/>
        <pt x="516" y="169" on="0"/>
        <pt x="516" y="129" on="0"/>
        <pt x="541" y="98" on="0"/>
        <pt x="565" y="98" on="1"/>
        <pt x="631" y="98" on="0"/>
        <pt x="683" y="279" on="1"/>
        <pt x="683" y="281" on="0"/>
        <pt x="685" y="287" on="0"/>
        <pt x="685" y="288" on="1"/>
        <pt x="729" y="260" on="0"/>
        <pt x="742" y="253" on="1"/>
        <pt x="709" y="127" on="0"/>
        <pt x="611" y="-6" on="0"/>
        <pt x="457" y="-6" on="0"/>
        <pt x="430" y="67" on="1"/>
        <pt x="427" y="67" on="1"/>
        <pt x="396" y="28" on="0"/>
        <pt x="320" y="-6" on="0"/>
        <pt x="263" y="-6" on="1"/>
        <pt x="169" y="-6" on="0"/>
        <pt x="68" y="92" on="0"/>
        <pt x="68" y="183" on="1"/>
        <pt x="68" y="202" on="0"/>
        <pt x="71" y="225" on="1"/>
        <pt x="99" y="459" on="1"/>
        <pt x="0" y="529" on="0"/>
        <pt x="0" y="624" on="1"/>
        <pt x="0" y="687" on="0"/>
        <pt x="76" y="761" on="0"/>
        <pt x="135" y="761" on="1"/>
        <pt x="258" y="761" on="0"/>
        <pt x="258" y="631" on="1"/>
        <pt x="258" y="610" on="0"/>
        <pt x="255" y="584" on="1"/>
        <pt x="204" y="193" on="1"/>
        <pt x="203" y="186" on="0"/>
        <pt x="203" y="172" on="1"/>
        <pt x="203" y="133" on="0"/>
        <pt x="239" y="85" on="0"/>
        <pt x="276" y="85" on="1"/>
        <pt x="365" y="85" on="0"/>
        <pt x="381" y="223" on="1"/>
        <pt x="441" y="738" on="1"/>
      </contour>
      <contour>
        <pt x="98" y="669" on="1"/>
        <pt x="64" y="669" on="0"/>
        <pt x="64" y="586" on="0"/>
        <pt x="110" y="546" on="1"/>
        <pt x="113" y="572" on="1"/>
        <pt x="119" y="624" on="0"/>
        <pt x="120" y="637" on="1"/>
        <pt x="120" y="669" on="0"/>
      </contour>
    </TTGlyph>
    <TTGlyph name="Udieresis" xMin="0" yMin="-6" xMax="742" yMax="957">
      <contour>
        <pt x="149" y="914" on="0"/>
        <pt x="190" y="957" on="0"/>
        <pt x="250" y="957" on="0"/>
        <pt x="292" y="914" on="0"/>
        <pt x="292" y="854" on="0"/>
        <pt x="250" y="812" on="0"/>
        <pt x="190" y="812" on="0"/>
        <pt x="149" y="854" on="0"/>
      </contour>
      <contour>
        <pt x="431" y="957" on="0"/>
        <pt x="491" y="957" on="0"/>
        <pt x="533" y="914" on="0"/>
        <pt x="533" y="854" on="0"/>
        <pt x="492" y="812" on="0"/>
        <pt x="431" y="812" on="0"/>
        <pt x="388" y="854" on="0"/>
        <pt x="388" y="914" on="0"/>
      </contour>
      <contour>
        <pt x="447" y="746" on="0"/>
        <pt x="512" y="761" on="0"/>
        <pt x="570" y="761" on="0"/>
        <pt x="589" y="753" on="1"/>
        <pt x="516" y="169" on="0"/>
        <pt x="516" y="129" on="0"/>
        <pt x="541" y="98" on="0"/>
        <pt x="565" y="98" on="1"/>
        <pt x="631" y="98" on="0"/>
        <pt x="683" y="279" on="1"/>
        <pt x="683" y="281" on="0"/>
        <pt x="685" y="287" on="0"/>
        <pt x="685" y="288" on="1"/>
        <pt x="729" y="260" on="0"/>
        <pt x="742" y="253" on="1"/>
        <pt x="709" y="127" on="0"/>
        <pt x="611" y="-6" on="0"/>
        <pt x="457" y="-6" on="0"/>
        <pt x="430" y="67" on="1"/>
        <pt x="427" y="67" on="1"/>
        <pt x="396" y="28" on="0"/>
        <pt x="320" y="-6" on="0"/>
        <pt x="263" y="-6" on="1"/>
        <pt x="169" y="-6" on="0"/>
        <pt x="68" y="92" on="0"/>
        <pt x="68" y="183" on="1"/>
        <pt x="68" y="202" on="0"/>
        <pt x="71" y="225" on="1"/>
        <pt x="99" y="459" on="1"/>
        <pt x="0" y="529" on="0"/>
        <pt x="0" y="624" on="1"/>
        <pt x="0" y="687" on="0"/>
        <pt x="76" y="761" on="0"/>
        <pt x="135" y="761" on="1"/>
        <pt x="258" y="761" on="0"/>
        <pt x="258" y="631" on="1"/>
        <pt x="258" y="610" on="0"/>
        <pt x="255" y="584" on="1"/>
        <pt x="204" y="193" on="1"/>
        <pt x="203" y="186" on="0"/>
        <pt x="203" y="172" on="1"/>
        <pt x="203" y="133" on="0"/>
        <pt x="239" y="85" on="0"/>
        <pt x="276" y="85" on="1"/>
        <pt x="365" y="85" on="0"/>
        <pt x="381" y="223" on="1"/>
        <pt x="441" y="738" on="1"/>
      </contour>
      <contour>
        <pt x="98" y="669" on="1"/>
        <pt x="64" y="669" on="0"/>
        <pt x="64" y="586" on="0"/>
        <pt x="110" y="546" on="1"/>
        <pt x="113" y="572" on="1"/>
        <pt x="119" y="624" on="0"/>
        <pt x="120" y="637" on="1"/>
        <pt x="120" y="669" on="0"/>
      </contour>
    </TTGlyph>
    <TTGlyph name="Ugrave" xMin="0" yMin="-6" xMax="742" yMax="1017">
      <contour>
        <pt x="313" y="1017" on="1"/>
        <pt x="440" y="830" on="1"/>
        <pt x="414" y="800" on="0"/>
        <pt x="402" y="793" on="1"/>
        <pt x="222" y="926" on="1"/>
        <pt x="239" y="950" on="0"/>
        <pt x="293" y="1007" on="0"/>
      </contour>
      <contour>
        <pt x="447" y="746" on="0"/>
        <pt x="512" y="761" on="0"/>
        <pt x="570" y="761" on="0"/>
        <pt x="589" y="753" on="1"/>
        <pt x="516" y="169" on="0"/>
        <pt x="516" y="129" on="0"/>
        <pt x="541" y="98" on="0"/>
        <pt x="565" y="98" on="1"/>
        <pt x="631" y="98" on="0"/>
        <pt x="683" y="279" on="1"/>
        <pt x="683" y="281" on="0"/>
        <pt x="685" y="287" on="0"/>
        <pt x="685" y="288" on="1"/>
        <pt x="729" y="260" on="0"/>
        <pt x="742" y="253" on="1"/>
        <pt x="709" y="127" on="0"/>
        <pt x="611" y="-6" on="0"/>
        <pt x="457" y="-6" on="0"/>
        <pt x="430" y="67" on="1"/>
        <pt x="427" y="67" on="1"/>
        <pt x="396" y="28" on="0"/>
        <pt x="320" y="-6" on="0"/>
        <pt x="263" y="-6" on="1"/>
        <pt x="169" y="-6" on="0"/>
        <pt x="68" y="92" on="0"/>
        <pt x="68" y="183" on="1"/>
        <pt x="68" y="202" on="0"/>
        <pt x="71" y="225" on="1"/>
        <pt x="99" y="459" on="1"/>
        <pt x="0" y="529" on="0"/>
        <pt x="0" y="624" on="1"/>
        <pt x="0" y="687" on="0"/>
        <pt x="76" y="761" on="0"/>
        <pt x="135" y="761" on="1"/>
        <pt x="258" y="761" on="0"/>
        <pt x="258" y="631" on="1"/>
        <pt x="258" y="610" on="0"/>
        <pt x="255" y="584" on="1"/>
        <pt x="204" y="193" on="1"/>
        <pt x="203" y="186" on="0"/>
        <pt x="203" y="172" on="1"/>
        <pt x="203" y="133" on="0"/>
        <pt x="239" y="85" on="0"/>
        <pt x="276" y="85" on="1"/>
        <pt x="365" y="85" on="0"/>
        <pt x="381" y="223" on="1"/>
        <pt x="441" y="738" on="1"/>
      </contour>
      <contour>
        <pt x="98" y="669" on="1"/>
        <pt x="64" y="669" on="0"/>
        <pt x="64" y="586" on="0"/>
        <pt x="110" y="546" on="1"/>
        <pt x="113" y="572" on="1"/>
        <pt x="119" y="624" on="0"/>
        <pt x="120" y="637" on="1"/>
        <pt x="120" y="669" on="0"/>
      </contour>
    </TTGlyph>
    <TTGlyph name="V" xMin="8" yMin="0" xMax="803" yMax="766">
      <contour>
        <pt x="700" y="761" on="1"/>
        <pt x="747" y="761" on="0"/>
        <pt x="802" y="706" on="0"/>
        <pt x="802" y="664" on="1"/>
        <pt x="802" y="588" on="0"/>
        <pt x="694" y="492" on="0"/>
        <pt x="605" y="450" on="1"/>
        <pt x="533" y="264" on="0"/>
        <pt x="433" y="0" on="1"/>
        <pt x="267" y="0" on="1"/>
        <pt x="233" y="476" on="0"/>
        <pt x="220" y="631" on="0"/>
        <pt x="205" y="659" on="0"/>
        <pt x="184" y="659" on="1"/>
        <pt x="131" y="659" on="0"/>
        <pt x="75" y="472" on="1"/>
        <pt x="27" y="495" on="0"/>
        <pt x="8" y="506" on="1"/>
        <pt x="59" y="671" on="0"/>
        <pt x="124" y="727" on="1"/>
        <pt x="168" y="765" on="0"/>
        <pt x="229" y="765" on="1"/>
        <pt x="284" y="765" on="0"/>
        <pt x="344" y="693" on="0"/>
        <pt x="354" y="589" on="1"/>
        <pt x="359" y="534" on="0"/>
        <pt x="378" y="213" on="0"/>
        <pt x="382" y="161" on="1"/>
        <pt x="388" y="161" on="1"/>
        <pt x="541" y="586" on="1"/>
        <pt x="574" y="679" on="0"/>
        <pt x="597" y="709" on="1"/>
        <pt x="635" y="761" on="0"/>
      </contour>
      <contour>
        <pt x="734" y="635" on="1"/>
        <pt x="734" y="648" on="0"/>
        <pt x="718" y="664" on="0"/>
        <pt x="691" y="664" on="0"/>
        <pt x="672" y="622" on="0"/>
        <pt x="640" y="541" on="1"/>
        <pt x="734" y="590" on="0"/>
      </contour>
    </TTGlyph>
    <TTGlyph name="W" xMin="0" yMin="-6" xMax="839" yMax="762">
      <contour>
        <pt x="558" y="693" on="1"/>
        <pt x="557" y="680" on="1"/>
        <pt x="519" y="388" on="0"/>
        <pt x="507" y="320" on="1"/>
        <pt x="487" y="208" on="0"/>
        <pt x="487" y="91" on="0"/>
        <pt x="537" y="91" on="1"/>
        <pt x="579" y="91" on="0"/>
        <pt x="645" y="212" on="0"/>
        <pt x="662" y="302" on="1"/>
        <pt x="697" y="490" on="0"/>
        <pt x="697" y="627" on="1"/>
        <pt x="697" y="691" on="0"/>
        <pt x="686" y="738" on="1"/>
        <pt x="726" y="762" on="0"/>
        <pt x="838" y="762" on="0"/>
        <pt x="838" y="696" on="1"/>
        <pt x="838" y="593" on="0"/>
        <pt x="806" y="383" on="1"/>
        <pt x="780" y="208" on="0"/>
        <pt x="734" y="126" on="1"/>
        <pt x="713" y="91" on="0"/>
        <pt x="686" y="59" on="1"/>
        <pt x="630" y="-6" on="0"/>
        <pt x="429" y="-6" on="0"/>
        <pt x="386" y="80" on="1"/>
        <pt x="331" y="-6" on="0"/>
        <pt x="219" y="-6" on="1"/>
        <pt x="147" y="-6" on="0"/>
        <pt x="68" y="77" on="0"/>
        <pt x="68" y="146" on="1"/>
        <pt x="68" y="155" on="0"/>
        <pt x="70" y="173" on="1"/>
        <pt x="107" y="455" on="1"/>
        <pt x="0" y="532" on="0"/>
        <pt x="0" y="628" on="1"/>
        <pt x="0" y="689" on="0"/>
        <pt x="84" y="761" on="0"/>
        <pt x="144" y="761" on="1"/>
        <pt x="275" y="761" on="0"/>
        <pt x="275" y="631" on="1"/>
        <pt x="275" y="629" on="0"/>
        <pt x="274" y="623" on="0"/>
        <pt x="273" y="610" on="0"/>
        <pt x="270" y="593" on="0"/>
        <pt x="265" y="559" on="0"/>
        <pt x="259" y="518" on="0"/>
        <pt x="249" y="450" on="0"/>
        <pt x="238" y="371" on="0"/>
        <pt x="222" y="257" on="0"/>
        <pt x="210" y="177" on="0"/>
        <pt x="210" y="159" on="1"/>
        <pt x="210" y="92" on="0"/>
        <pt x="262" y="92" on="1"/>
        <pt x="334" y="92" on="0"/>
        <pt x="351" y="223" on="1"/>
        <pt x="415" y="728" on="1"/>
        <pt x="448" y="743" on="0"/>
        <pt x="494" y="743" on="1"/>
        <pt x="558" y="743" on="0"/>
      </contour>
      <contour>
        <pt x="105" y="681" on="1"/>
        <pt x="86" y="681" on="0"/>
        <pt x="68" y="653" on="0"/>
        <pt x="68" y="635" on="1"/>
        <pt x="68" y="590" on="0"/>
        <pt x="118" y="542" on="1"/>
        <pt x="123" y="582" on="1"/>
        <pt x="127" y="615" on="0"/>
        <pt x="128" y="681" on="0"/>
      </contour>
    </TTGlyph>
    <TTGlyph name="X" xMin="10" yMin="-6" xMax="763" yMax="774">
      <contour>
        <pt x="83" y="697" on="1"/>
        <pt x="133" y="774" on="0"/>
        <pt x="226" y="774" on="1"/>
        <pt x="265" y="774" on="0"/>
        <pt x="344" y="722" on="0"/>
        <pt x="368" y="648" on="1"/>
        <pt x="417" y="494" on="1"/>
        <pt x="486" y="612" on="1"/>
        <pt x="526" y="680" on="0"/>
        <pt x="553" y="710" on="1"/>
        <pt x="602" y="763" on="0"/>
        <pt x="700" y="763" on="0"/>
        <pt x="763" y="705" on="0"/>
        <pt x="763" y="664" on="1"/>
        <pt x="763" y="591" on="0"/>
        <pt x="704" y="542" on="1"/>
        <pt x="652" y="497" on="0"/>
        <pt x="498" y="468" on="1"/>
        <pt x="450" y="391" on="1"/>
        <pt x="492" y="262" on="0"/>
        <pt x="534" y="137" on="0"/>
        <pt x="569" y="85" on="0"/>
        <pt x="612" y="85" on="0"/>
        <pt x="644" y="99" on="0"/>
        <pt x="662" y="114" on="0"/>
        <pt x="685" y="135" on="0"/>
        <pt x="688" y="137" on="1"/>
        <pt x="701" y="63" on="1"/>
        <pt x="688" y="44" on="0"/>
        <pt x="604" y="-6" on="0"/>
        <pt x="560" y="-6" on="1"/>
        <pt x="485" y="-6" on="0"/>
        <pt x="396" y="67" on="0"/>
        <pt x="361" y="183" on="1"/>
        <pt x="340" y="253" on="1"/>
        <pt x="280" y="151" on="1"/>
        <pt x="229" y="63" on="0"/>
        <pt x="204" y="37" on="1"/>
        <pt x="164" y="-6" on="0"/>
        <pt x="76" y="-6" on="0"/>
        <pt x="10" y="50" on="0"/>
        <pt x="10" y="140" on="0"/>
        <pt x="49" y="206" on="0"/>
        <pt x="86" y="228" on="1"/>
        <pt x="152" y="265" on="0"/>
        <pt x="259" y="286" on="1"/>
        <pt x="285" y="328" on="0"/>
        <pt x="307" y="360" on="1"/>
        <pt x="240" y="584" on="1"/>
        <pt x="236" y="595" on="0"/>
        <pt x="223" y="639" on="0"/>
        <pt x="215" y="659" on="0"/>
        <pt x="208" y="671" on="1"/>
        <pt x="195" y="693" on="0"/>
        <pt x="140" y="681" on="0"/>
        <pt x="96" y="625" on="1"/>
      </contour>
      <contour>
        <pt x="687" y="632" on="1"/>
        <pt x="687" y="659" on="0"/>
        <pt x="651" y="659" on="1"/>
        <pt x="627" y="659" on="0"/>
        <pt x="590" y="616" on="0"/>
        <pt x="557" y="560" on="0"/>
        <pt x="554" y="556" on="0"/>
        <pt x="551" y="550" on="0"/>
        <pt x="549" y="547" on="1"/>
        <pt x="687" y="580" on="0"/>
      </contour>
      <contour>
        <pt x="122" y="98" on="1"/>
        <pt x="141" y="98" on="0"/>
        <pt x="159" y="122" on="1"/>
        <pt x="182" y="154" on="0"/>
        <pt x="213" y="207" on="1"/>
        <pt x="86" y="176" on="0"/>
        <pt x="86" y="125" on="1"/>
        <pt x="86" y="98" on="0"/>
      </contour>
    </TTGlyph>
    <TTGlyph name="Y" xMin="25" yMin="-274" xMax="744" yMax="762">
      <contour>
        <pt x="313" y="643" on="1"/>
        <pt x="312" y="626" on="1"/>
        <pt x="309" y="579" on="0"/>
        <pt x="284" y="394" on="1"/>
        <pt x="253" y="172" on="0"/>
        <pt x="253" y="162" on="1"/>
        <pt x="253" y="132" on="0"/>
        <pt x="291" y="91" on="0"/>
        <pt x="354" y="91" on="0"/>
        <pt x="407" y="134" on="0"/>
        <pt x="421" y="164" on="1"/>
        <pt x="477" y="675" on="1"/>
        <pt x="482" y="721" on="0"/>
        <pt x="547" y="762" on="0"/>
        <pt x="583" y="762" on="1"/>
        <pt x="607" y="762" on="0"/>
        <pt x="633" y="752" on="1"/>
        <pt x="566" y="198" on="1"/>
        <pt x="698" y="259" on="0"/>
        <pt x="729" y="270" on="1"/>
        <pt x="744" y="200" on="1"/>
        <pt x="656" y="164" on="0"/>
        <pt x="557" y="117" on="1"/>
        <pt x="532" y="-87" on="1"/>
        <pt x="526" y="-141" on="0"/>
        <pt x="485" y="-218" on="0"/>
        <pt x="456" y="-238" on="1"/>
        <pt x="403" y="-274" on="0"/>
        <pt x="278" y="-274" on="0"/>
        <pt x="195" y="-183" on="0"/>
        <pt x="195" y="-55" on="0"/>
        <pt x="237" y="-3" on="1"/>
        <pt x="184" y="6" on="0"/>
        <pt x="114" y="81" on="0"/>
        <pt x="114" y="136" on="1"/>
        <pt x="114" y="142" on="0"/>
        <pt x="116" y="158" on="1"/>
        <pt x="148" y="404" on="1"/>
        <pt x="25" y="482" on="0"/>
        <pt x="25" y="596" on="1"/>
        <pt x="25" y="702" on="0"/>
        <pt x="102" y="742" on="1"/>
        <pt x="138" y="762" on="0"/>
        <pt x="231" y="762" on="0"/>
        <pt x="313" y="703" on="0"/>
      </contour>
      <contour>
        <pt x="147" y="681" on="1"/>
        <pt x="123" y="681" on="0"/>
        <pt x="92" y="635" on="0"/>
        <pt x="92" y="603" on="1"/>
        <pt x="92" y="533" on="0"/>
        <pt x="158" y="488" on="1"/>
        <pt x="177" y="632" on="1"/>
        <pt x="177" y="673" on="0"/>
        <pt x="157" y="680" on="1"/>
        <pt x="153" y="681" on="0"/>
      </contour>
      <contour>
        <pt x="271" y="-106" on="1"/>
        <pt x="271" y="-139" on="0"/>
        <pt x="304" y="-175" on="0"/>
        <pt x="350" y="-175" on="0"/>
        <pt x="386" y="-142" on="0"/>
        <pt x="390" y="-112" on="1"/>
        <pt x="408" y="45" on="1"/>
        <pt x="271" y="-30" on="0"/>
      </contour>
    </TTGlyph>
    <TTGlyph name="Yacute" xMin="25" yMin="-274" xMax="744" yMax="1017">
      <contour>
        <pt x="335" y="830" on="1"/>
        <pt x="462" y="1017" on="1"/>
        <pt x="482" y="1007" on="0"/>
        <pt x="536" y="950" on="0"/>
        <pt x="553" y="926" on="1"/>
        <pt x="373" y="793" on="1"/>
        <pt x="361" y="800" on="0"/>
      </contour>
      <contour>
        <pt x="313" y="643" on="1"/>
        <pt x="312" y="626" on="1"/>
        <pt x="309" y="579" on="0"/>
        <pt x="284" y="394" on="1"/>
        <pt x="253" y="172" on="0"/>
        <pt x="253" y="162" on="1"/>
        <pt x="253" y="132" on="0"/>
        <pt x="291" y="91" on="0"/>
        <pt x="354" y="91" on="0"/>
        <pt x="407" y="134" on="0"/>
        <pt x="421" y="164" on="1"/>
        <pt x="477" y="675" on="1"/>
        <pt x="482" y="721" on="0"/>
        <pt x="547" y="762" on="0"/>
        <pt x="583" y="762" on="1"/>
        <pt x="607" y="762" on="0"/>
        <pt x="633" y="752" on="1"/>
        <pt x="566" y="198" on="1"/>
        <pt x="698" y="259" on="0"/>
        <pt x="729" y="270" on="1"/>
        <pt x="744" y="200" on="1"/>
        <pt x="656" y="164" on="0"/>
        <pt x="557" y="117" on="1"/>
        <pt x="532" y="-87" on="1"/>
        <pt x="526" y="-141" on="0"/>
        <pt x="485" y="-218" on="0"/>
        <pt x="456" y="-238" on="1"/>
        <pt x="403" y="-274" on="0"/>
        <pt x="278" y="-274" on="0"/>
        <pt x="195" y="-183" on="0"/>
        <pt x="195" y="-55" on="0"/>
        <pt x="237" y="-3" on="1"/>
        <pt x="184" y="6" on="0"/>
        <pt x="114" y="81" on="0"/>
        <pt x="114" y="136" on="1"/>
        <pt x="114" y="142" on="0"/>
        <pt x="116" y="158" on="1"/>
        <pt x="148" y="404" on="1"/>
        <pt x="25" y="482" on="0"/>
        <pt x="25" y="596" on="1"/>
        <pt x="25" y="702" on="0"/>
        <pt x="102" y="742" on="1"/>
        <pt x="138" y="762" on="0"/>
        <pt x="231" y="762" on="0"/>
        <pt x="313" y="703" on="0"/>
      </contour>
      <contour>
        <pt x="147" y="681" on="1"/>
        <pt x="123" y="681" on="0"/>
        <pt x="92" y="635" on="0"/>
        <pt x="92" y="603" on="1"/>
        <pt x="92" y="533" on="0"/>
        <pt x="158" y="488" on="1"/>
        <pt x="177" y="632" on="1"/>
        <pt x="177" y="673" on="0"/>
        <pt x="157" y="680" on="1"/>
        <pt x="153" y="681" on="0"/>
      </contour>
      <contour>
        <pt x="271" y="-106" on="1"/>
        <pt x="271" y="-139" on="0"/>
        <pt x="304" y="-175" on="0"/>
        <pt x="350" y="-175" on="0"/>
        <pt x="386" y="-142" on="0"/>
        <pt x="390" y="-112" on="1"/>
        <pt x="408" y="45" on="1"/>
        <pt x="271" y="-30" on="0"/>
      </contour>
    </TTGlyph>
    <TTGlyph name="Ydieresis" xMin="25" yMin="-274" xMax="744" yMax="957">
      <contour>
        <pt x="210" y="914" on="0"/>
        <pt x="251" y="957" on="0"/>
        <pt x="311" y="957" on="0"/>
        <pt x="353" y="914" on="0"/>
        <pt x="353" y="854" on="0"/>
        <pt x="311" y="812" on="0"/>
        <pt x="251" y="812" on="0"/>
        <pt x="210" y="854" on="0"/>
      </contour>
      <contour>
        <pt x="492" y="957" on="0"/>
        <pt x="552" y="957" on="0"/>
        <pt x="594" y="914" on="0"/>
        <pt x="594" y="854" on="0"/>
        <pt x="553" y="812" on="0"/>
        <pt x="492" y="812" on="0"/>
        <pt x="449" y="854" on="0"/>
        <pt x="449" y="914" on="0"/>
      </contour>
      <contour>
        <pt x="313" y="643" on="1"/>
        <pt x="312" y="626" on="1"/>
        <pt x="309" y="579" on="0"/>
        <pt x="284" y="394" on="1"/>
        <pt x="253" y="172" on="0"/>
        <pt x="253" y="162" on="1"/>
        <pt x="253" y="132" on="0"/>
        <pt x="291" y="91" on="0"/>
        <pt x="354" y="91" on="0"/>
        <pt x="407" y="134" on="0"/>
        <pt x="421" y="164" on="1"/>
        <pt x="477" y="675" on="1"/>
        <pt x="482" y="721" on="0"/>
        <pt x="547" y="762" on="0"/>
        <pt x="583" y="762" on="1"/>
        <pt x="607" y="762" on="0"/>
        <pt x="633" y="752" on="1"/>
        <pt x="566" y="198" on="1"/>
        <pt x="698" y="259" on="0"/>
        <pt x="729" y="270" on="1"/>
        <pt x="744" y="200" on="1"/>
        <pt x="656" y="164" on="0"/>
        <pt x="557" y="117" on="1"/>
        <pt x="532" y="-87" on="1"/>
        <pt x="526" y="-141" on="0"/>
        <pt x="485" y="-218" on="0"/>
        <pt x="456" y="-238" on="1"/>
        <pt x="403" y="-274" on="0"/>
        <pt x="278" y="-274" on="0"/>
        <pt x="195" y="-183" on="0"/>
        <pt x="195" y="-55" on="0"/>
        <pt x="237" y="-3" on="1"/>
        <pt x="184" y="6" on="0"/>
        <pt x="114" y="81" on="0"/>
        <pt x="114" y="136" on="1"/>
        <pt x="114" y="142" on="0"/>
        <pt x="116" y="158" on="1"/>
        <pt x="148" y="404" on="1"/>
        <pt x="25" y="482" on="0"/>
        <pt x="25" y="596" on="1"/>
        <pt x="25" y="702" on="0"/>
        <pt x="102" y="742" on="1"/>
        <pt x="138" y="762" on="0"/>
        <pt x="231" y="762" on="0"/>
        <pt x="313" y="703" on="0"/>
      </contour>
      <contour>
        <pt x="147" y="681" on="1"/>
        <pt x="123" y="681" on="0"/>
        <pt x="92" y="635" on="0"/>
        <pt x="92" y="603" on="1"/>
        <pt x="92" y="533" on="0"/>
        <pt x="158" y="488" on="1"/>
        <pt x="177" y="632" on="1"/>
        <pt x="177" y="673" on="0"/>
        <pt x="157" y="680" on="1"/>
        <pt x="153" y="681" on="0"/>
      </contour>
      <contour>
        <pt x="271" y="-106" on="1"/>
        <pt x="271" y="-139" on="0"/>
        <pt x="304" y="-175" on="0"/>
        <pt x="350" y="-175" on="0"/>
        <pt x="386" y="-142" on="0"/>
        <pt x="390" y="-112" on="1"/>
        <pt x="408" y="45" on="1"/>
        <pt x="271" y="-30" on="0"/>
      </contour>
    </TTGlyph>
    <TTGlyph name="Z" xMin="19" yMin="0" xMax="590" yMax="761">
      <contour>
        <pt x="517" y="243" on="0"/>
        <pt x="590" y="177" on="0"/>
        <pt x="590" y="77" on="0"/>
        <pt x="514" y="0" on="0"/>
        <pt x="437" y="0" on="1"/>
        <pt x="29" y="0" on="1"/>
        <pt x="19" y="25" on="0"/>
        <pt x="19" y="81" on="0"/>
        <pt x="40" y="109" on="1"/>
        <pt x="387" y="642" on="1"/>
        <pt x="353" y="642" on="1"/>
        <pt x="326" y="589" on="0"/>
        <pt x="226" y="519" on="0"/>
        <pt x="103" y="518" on="0"/>
        <pt x="30" y="584" on="0"/>
        <pt x="30" y="684" on="0"/>
        <pt x="106" y="761" on="0"/>
        <pt x="183" y="761" on="1"/>
        <pt x="581" y="761" on="1"/>
        <pt x="586" y="744" on="0"/>
        <pt x="586" y="727" on="1"/>
        <pt x="586" y="696" on="0"/>
        <pt x="567" y="670" on="1"/>
        <pt x="210" y="119" on="1"/>
        <pt x="267" y="119" on="1"/>
        <pt x="294" y="172" on="0"/>
        <pt x="394" y="242" on="0"/>
      </contour>
      <contour>
        <pt x="182" y="642" on="1"/>
        <pt x="117" y="642" on="0"/>
        <pt x="117" y="580" on="0"/>
        <pt x="239" y="580" on="0"/>
        <pt x="283" y="642" on="1"/>
      </contour>
      <contour>
        <pt x="438" y="119" on="1"/>
        <pt x="503" y="119" on="0"/>
        <pt x="503" y="181" on="0"/>
        <pt x="381" y="181" on="0"/>
        <pt x="337" y="119" on="1"/>
      </contour>
    </TTGlyph>
    <TTGlyph name="Zcaron" xMin="19" yMin="0" xMax="590" yMax="980">
      <contour>
        <pt x="174" y="980" on="1"/>
        <pt x="254" y="980" on="1"/>
        <pt x="341" y="897" on="1"/>
        <pt x="428" y="980" on="1"/>
        <pt x="508" y="980" on="1"/>
        <pt x="389" y="822" on="1"/>
        <pt x="283" y="822" on="1"/>
      </contour>
      <contour>
        <pt x="517" y="243" on="0"/>
        <pt x="590" y="177" on="0"/>
        <pt x="590" y="77" on="0"/>
        <pt x="514" y="0" on="0"/>
        <pt x="437" y="0" on="1"/>
        <pt x="29" y="0" on="1"/>
        <pt x="19" y="25" on="0"/>
        <pt x="19" y="81" on="0"/>
        <pt x="40" y="109" on="1"/>
        <pt x="387" y="642" on="1"/>
        <pt x="353" y="642" on="1"/>
        <pt x="326" y="589" on="0"/>
        <pt x="226" y="519" on="0"/>
        <pt x="103" y="518" on="0"/>
        <pt x="30" y="584" on="0"/>
        <pt x="30" y="684" on="0"/>
        <pt x="106" y="761" on="0"/>
        <pt x="183" y="761" on="1"/>
        <pt x="581" y="761" on="1"/>
        <pt x="586" y="744" on="0"/>
        <pt x="586" y="727" on="1"/>
        <pt x="586" y="696" on="0"/>
        <pt x="567" y="670" on="1"/>
        <pt x="210" y="119" on="1"/>
        <pt x="267" y="119" on="1"/>
        <pt x="294" y="172" on="0"/>
        <pt x="394" y="242" on="0"/>
      </contour>
      <contour>
        <pt x="182" y="642" on="1"/>
        <pt x="117" y="642" on="0"/>
        <pt x="117" y="580" on="0"/>
        <pt x="239" y="580" on="0"/>
        <pt x="283" y="642" on="1"/>
      </contour>
      <contour>
        <pt x="438" y="119" on="1"/>
        <pt x="503" y="119" on="0"/>
        <pt x="503" y="181" on="0"/>
        <pt x="381" y="181" on="0"/>
        <pt x="337" y="119" on="1"/>
      </contour>
    </TTGlyph>
    <TTGlyph name="_0001" xMin="30" yMin="123" xMax="455" yMax="585">
      <contour>
        <pt x="97" y="482" on="1"/>
        <pt x="97" y="528" on="0"/>
        <pt x="150" y="584" on="0"/>
        <pt x="219" y="584" on="0"/>
        <pt x="219" y="570" on="1"/>
        <pt x="219" y="566" on="0"/>
        <pt x="214" y="564" on="1"/>
        <pt x="182" y="548" on="0"/>
        <pt x="182" y="518" on="1"/>
        <pt x="182" y="513" on="0"/>
        <pt x="183" y="509" on="1"/>
        <pt x="190" y="479" on="0"/>
        <pt x="224" y="460" on="1"/>
        <pt x="245" y="524" on="0"/>
        <pt x="309" y="584" on="0"/>
        <pt x="359" y="584" on="1"/>
        <pt x="362" y="584" on="0"/>
        <pt x="365" y="584" on="1"/>
        <pt x="407" y="584" on="0"/>
        <pt x="455" y="529" on="0"/>
        <pt x="455" y="492" on="1"/>
        <pt x="455" y="436" on="0"/>
        <pt x="365" y="354" on="0"/>
        <pt x="287" y="354" on="1"/>
        <pt x="287" y="350" on="0"/>
        <pt x="285" y="344" on="1"/>
        <pt x="388" y="315" on="0"/>
        <pt x="388" y="229" on="1"/>
        <pt x="388" y="180" on="0"/>
        <pt x="334" y="124" on="0"/>
        <pt x="265" y="124" on="0"/>
        <pt x="265" y="139" on="1"/>
        <pt x="265" y="142" on="0"/>
        <pt x="276" y="149" on="1"/>
        <pt x="303" y="165" on="0"/>
        <pt x="303" y="189" on="1"/>
        <pt x="303" y="226" on="0"/>
        <pt x="260" y="249" on="1"/>
        <pt x="240" y="185" on="0"/>
        <pt x="175" y="124" on="0"/>
        <pt x="122" y="124" on="1"/>
        <pt x="121" y="124" on="0"/>
        <pt x="119" y="124" on="1"/>
        <pt x="77" y="124" on="0"/>
        <pt x="30" y="179" on="0"/>
        <pt x="30" y="217" on="1"/>
        <pt x="30" y="273" on="0"/>
        <pt x="119" y="355" on="0"/>
        <pt x="197" y="355" on="1"/>
        <pt x="199" y="365" on="1"/>
        <pt x="97" y="396" on="0"/>
      </contour>
      <contour>
        <pt x="316" y="440" on="1"/>
        <pt x="351" y="440" on="0"/>
        <pt x="392" y="471" on="0"/>
        <pt x="392" y="489" on="1"/>
        <pt x="392" y="525" on="0"/>
        <pt x="360" y="525" on="1"/>
        <pt x="342" y="525" on="0"/>
        <pt x="318" y="491" on="0"/>
        <pt x="305" y="440" on="1"/>
      </contour>
      <contour>
        <pt x="169" y="269" on="1"/>
        <pt x="133" y="269" on="0"/>
        <pt x="93" y="238" on="0"/>
        <pt x="93" y="202" on="0"/>
        <pt x="110" y="184" on="0"/>
        <pt x="143" y="184" on="0"/>
        <pt x="167" y="217" on="0"/>
        <pt x="179" y="269" on="1"/>
      </contour>
    </TTGlyph>
    <TTGlyph name="a" xMin="30" yMin="-6" xMax="653" yMax="482">
      <contour>
        <pt x="478" y="-5" on="1"/>
        <pt x="386" y="-5" on="0"/>
        <pt x="356" y="59" on="1"/>
        <pt x="304" y="-6" on="0"/>
        <pt x="141" y="-6" on="0"/>
        <pt x="30" y="104" on="0"/>
        <pt x="30" y="194" on="1"/>
        <pt x="30" y="325" on="0"/>
        <pt x="184" y="481" on="0"/>
        <pt x="302" y="481" on="1"/>
        <pt x="305" y="481" on="0"/>
        <pt x="308" y="481" on="1"/>
        <pt x="358" y="481" on="0"/>
        <pt x="400" y="464" on="1"/>
        <pt x="427" y="481" on="0"/>
        <pt x="504" y="481" on="0"/>
        <pt x="521" y="471" on="1"/>
        <pt x="512" y="397" on="0"/>
        <pt x="492" y="254" on="0"/>
        <pt x="488" y="224" on="1"/>
        <pt x="479" y="156" on="0"/>
        <pt x="479" y="126" on="1"/>
        <pt x="479" y="86" on="0"/>
        <pt x="511" y="86" on="1"/>
        <pt x="536" y="86" on="0"/>
        <pt x="592" y="153" on="0"/>
        <pt x="613" y="225" on="1"/>
        <pt x="642" y="199" on="0"/>
        <pt x="653" y="167" on="1"/>
        <pt x="624" y="72" on="0"/>
        <pt x="526" y="-5" on="0"/>
      </contour>
      <contour>
        <pt x="317" y="403" on="1"/>
        <pt x="253" y="403" on="0"/>
        <pt x="178" y="306" on="0"/>
        <pt x="171" y="210" on="1"/>
        <pt x="170" y="201" on="0"/>
        <pt x="170" y="193" on="1"/>
        <pt x="170" y="144" on="0"/>
        <pt x="217" y="86" on="0"/>
        <pt x="254" y="86" on="1"/>
        <pt x="317" y="86" on="0"/>
        <pt x="349" y="175" on="1"/>
        <pt x="373" y="391" on="1"/>
        <pt x="344" y="403" on="0"/>
      </contour>
    </TTGlyph>
    <TTGlyph name="aacute" xMin="30" yMin="-6" xMax="653" yMax="737">
      <contour>
        <pt x="267" y="550" on="1"/>
        <pt x="394" y="737" on="1"/>
        <pt x="414" y="727" on="0"/>
        <pt x="468" y="670" on="0"/>
        <pt x="485" y="646" on="1"/>
        <pt x="305" y="513" on="1"/>
        <pt x="293" y="520" on="0"/>
      </contour>
      <contour>
        <pt x="478" y="-5" on="1"/>
        <pt x="386" y="-5" on="0"/>
        <pt x="356" y="59" on="1"/>
        <pt x="304" y="-6" on="0"/>
        <pt x="141" y="-6" on="0"/>
        <pt x="30" y="104" on="0"/>
        <pt x="30" y="194" on="1"/>
        <pt x="30" y="325" on="0"/>
        <pt x="184" y="481" on="0"/>
        <pt x="302" y="481" on="1"/>
        <pt x="305" y="481" on="0"/>
        <pt x="308" y="481" on="1"/>
        <pt x="358" y="481" on="0"/>
        <pt x="400" y="464" on="1"/>
        <pt x="427" y="481" on="0"/>
        <pt x="504" y="481" on="0"/>
        <pt x="521" y="471" on="1"/>
        <pt x="512" y="397" on="0"/>
        <pt x="492" y="254" on="0"/>
        <pt x="488" y="224" on="1"/>
        <pt x="479" y="156" on="0"/>
        <pt x="479" y="126" on="1"/>
        <pt x="479" y="86" on="0"/>
        <pt x="511" y="86" on="1"/>
        <pt x="536" y="86" on="0"/>
        <pt x="592" y="153" on="0"/>
        <pt x="613" y="225" on="1"/>
        <pt x="642" y="199" on="0"/>
        <pt x="653" y="167" on="1"/>
        <pt x="624" y="72" on="0"/>
        <pt x="526" y="-5" on="0"/>
      </contour>
      <contour>
        <pt x="317" y="403" on="1"/>
        <pt x="253" y="403" on="0"/>
        <pt x="178" y="306" on="0"/>
        <pt x="171" y="210" on="1"/>
        <pt x="170" y="201" on="0"/>
        <pt x="170" y="193" on="1"/>
        <pt x="170" y="144" on="0"/>
        <pt x="217" y="86" on="0"/>
        <pt x="254" y="86" on="1"/>
        <pt x="317" y="86" on="0"/>
        <pt x="349" y="175" on="1"/>
        <pt x="373" y="391" on="1"/>
        <pt x="344" y="403" on="0"/>
      </contour>
    </TTGlyph>
    <TTGlyph name="acircumflex" xMin="30" yMin="-6" xMax="653" yMax="700">
      <contour>
        <pt x="336" y="700" on="1"/>
        <pt x="510" y="579" on="1"/>
        <pt x="489" y="540" on="0"/>
        <pt x="477" y="521" on="1"/>
        <pt x="336" y="594" on="1"/>
        <pt x="195" y="521" on="1"/>
        <pt x="183" y="540" on="0"/>
        <pt x="162" y="579" on="1"/>
      </contour>
      <contour>
        <pt x="478" y="-5" on="1"/>
        <pt x="386" y="-5" on="0"/>
        <pt x="356" y="59" on="1"/>
        <pt x="304" y="-6" on="0"/>
        <pt x="141" y="-6" on="0"/>
        <pt x="30" y="104" on="0"/>
        <pt x="30" y="194" on="1"/>
        <pt x="30" y="325" on="0"/>
        <pt x="184" y="481" on="0"/>
        <pt x="302" y="481" on="1"/>
        <pt x="305" y="481" on="0"/>
        <pt x="308" y="481" on="1"/>
        <pt x="358" y="481" on="0"/>
        <pt x="400" y="464" on="1"/>
        <pt x="427" y="481" on="0"/>
        <pt x="504" y="481" on="0"/>
        <pt x="521" y="471" on="1"/>
        <pt x="512" y="397" on="0"/>
        <pt x="492" y="254" on="0"/>
        <pt x="488" y="224" on="1"/>
        <pt x="479" y="156" on="0"/>
        <pt x="479" y="126" on="1"/>
        <pt x="479" y="86" on="0"/>
        <pt x="511" y="86" on="1"/>
        <pt x="536" y="86" on="0"/>
        <pt x="592" y="153" on="0"/>
        <pt x="613" y="225" on="1"/>
        <pt x="642" y="199" on="0"/>
        <pt x="653" y="167" on="1"/>
        <pt x="624" y="72" on="0"/>
        <pt x="526" y="-5" on="0"/>
      </contour>
      <contour>
        <pt x="317" y="403" on="1"/>
        <pt x="253" y="403" on="0"/>
        <pt x="178" y="306" on="0"/>
        <pt x="171" y="210" on="1"/>
        <pt x="170" y="201" on="0"/>
        <pt x="170" y="193" on="1"/>
        <pt x="170" y="144" on="0"/>
        <pt x="217" y="86" on="0"/>
        <pt x="254" y="86" on="1"/>
        <pt x="317" y="86" on="0"/>
        <pt x="349" y="175" on="1"/>
        <pt x="373" y="391" on="1"/>
        <pt x="344" y="403" on="0"/>
      </contour>
    </TTGlyph>
    <TTGlyph name="acute" xMin="52" yMin="513" xMax="270" yMax="737">
      <contour>
        <pt x="52" y="550" on="1"/>
        <pt x="179" y="737" on="1"/>
        <pt x="199" y="727" on="0"/>
        <pt x="253" y="670" on="0"/>
        <pt x="270" y="646" on="1"/>
        <pt x="90" y="513" on="1"/>
        <pt x="78" y="520" on="0"/>
      </contour>
    </TTGlyph>
    <TTGlyph name="adieresis" xMin="30" yMin="-6" xMax="653" yMax="677">
      <contour>
        <pt x="285" y="574" on="0"/>
        <pt x="243" y="532" on="0"/>
        <pt x="183" y="532" on="0"/>
        <pt x="142" y="574" on="0"/>
        <pt x="142" y="634" on="0"/>
        <pt x="183" y="677" on="0"/>
        <pt x="243" y="677" on="0"/>
        <pt x="285" y="634" on="0"/>
      </contour>
      <contour>
        <pt x="526" y="574" on="0"/>
        <pt x="485" y="532" on="0"/>
        <pt x="424" y="532" on="0"/>
        <pt x="381" y="574" on="0"/>
        <pt x="381" y="634" on="0"/>
        <pt x="424" y="677" on="0"/>
        <pt x="484" y="677" on="0"/>
        <pt x="526" y="634" on="0"/>
      </contour>
      <contour>
        <pt x="478" y="-5" on="1"/>
        <pt x="386" y="-5" on="0"/>
        <pt x="356" y="59" on="1"/>
        <pt x="304" y="-6" on="0"/>
        <pt x="141" y="-6" on="0"/>
        <pt x="30" y="104" on="0"/>
        <pt x="30" y="194" on="1"/>
        <pt x="30" y="325" on="0"/>
        <pt x="184" y="481" on="0"/>
        <pt x="302" y="481" on="1"/>
        <pt x="305" y="481" on="0"/>
        <pt x="308" y="481" on="1"/>
        <pt x="358" y="481" on="0"/>
        <pt x="400" y="464" on="1"/>
        <pt x="427" y="481" on="0"/>
        <pt x="504" y="481" on="0"/>
        <pt x="521" y="471" on="1"/>
        <pt x="512" y="397" on="0"/>
        <pt x="492" y="254" on="0"/>
        <pt x="488" y="224" on="1"/>
        <pt x="479" y="156" on="0"/>
        <pt x="479" y="126" on="1"/>
        <pt x="479" y="86" on="0"/>
        <pt x="511" y="86" on="1"/>
        <pt x="536" y="86" on="0"/>
        <pt x="592" y="153" on="0"/>
        <pt x="613" y="225" on="1"/>
        <pt x="642" y="199" on="0"/>
        <pt x="653" y="167" on="1"/>
        <pt x="624" y="72" on="0"/>
        <pt x="526" y="-5" on="0"/>
      </contour>
      <contour>
        <pt x="317" y="403" on="1"/>
        <pt x="253" y="403" on="0"/>
        <pt x="178" y="306" on="0"/>
        <pt x="171" y="210" on="1"/>
        <pt x="170" y="201" on="0"/>
        <pt x="170" y="193" on="1"/>
        <pt x="170" y="144" on="0"/>
        <pt x="217" y="86" on="0"/>
        <pt x="254" y="86" on="1"/>
        <pt x="317" y="86" on="0"/>
        <pt x="349" y="175" on="1"/>
        <pt x="373" y="391" on="1"/>
        <pt x="344" y="403" on="0"/>
      </contour>
    </TTGlyph>
    <TTGlyph name="ae" xMin="40" yMin="-6" xMax="920" yMax="482">
      <contour>
        <pt x="620" y="237" on="0"/>
        <pt x="681" y="311" on="0"/>
        <pt x="681" y="380" on="0"/>
        <pt x="644" y="405" on="0"/>
        <pt x="622" y="405" on="1"/>
        <pt x="575" y="405" on="0"/>
        <pt x="504" y="300" on="0"/>
        <pt x="504" y="155" on="0"/>
        <pt x="573" y="84" on="0"/>
        <pt x="624" y="84" on="1"/>
        <pt x="699" y="84" on="0"/>
        <pt x="837" y="188" on="0"/>
        <pt x="880" y="272" on="1"/>
        <pt x="902" y="251" on="0"/>
        <pt x="920" y="220" on="1"/>
        <pt x="887" y="145" on="0"/>
        <pt x="802" y="73" on="1"/>
        <pt x="761" y="38" on="0"/>
        <pt x="646" y="-6" on="0"/>
        <pt x="585" y="-6" on="1"/>
        <pt x="451" y="-6" on="0"/>
        <pt x="393" y="102" on="1"/>
        <pt x="338" y="-6" on="0"/>
        <pt x="225" y="-6" on="1"/>
        <pt x="151" y="-6" on="0"/>
        <pt x="40" y="104" on="0"/>
        <pt x="40" y="194" on="1"/>
        <pt x="40" y="325" on="0"/>
        <pt x="194" y="481" on="0"/>
        <pt x="312" y="481" on="1"/>
        <pt x="315" y="481" on="0"/>
        <pt x="318" y="481" on="1"/>
        <pt x="368" y="481" on="0"/>
        <pt x="410" y="464" on="1"/>
        <pt x="437" y="481" on="0"/>
        <pt x="514" y="481" on="0"/>
        <pt x="531" y="471" on="1"/>
        <pt x="530" y="462" on="1"/>
        <pt x="579" y="481" on="0"/>
        <pt x="628" y="481" on="1"/>
        <pt x="705" y="481" on="0"/>
        <pt x="801" y="414" on="0"/>
        <pt x="802" y="357" on="1"/>
        <pt x="802" y="280" on="0"/>
        <pt x="679" y="184" on="0"/>
        <pt x="572" y="165" on="1"/>
        <pt x="558" y="224" on="1"/>
      </contour>
      <contour>
        <pt x="327" y="403" on="1"/>
        <pt x="263" y="403" on="0"/>
        <pt x="188" y="306" on="0"/>
        <pt x="181" y="210" on="1"/>
        <pt x="180" y="201" on="0"/>
        <pt x="180" y="193" on="1"/>
        <pt x="180" y="144" on="0"/>
        <pt x="227" y="86" on="0"/>
        <pt x="264" y="86" on="1"/>
        <pt x="327" y="86" on="0"/>
        <pt x="359" y="175" on="1"/>
        <pt x="365" y="227" on="1"/>
        <pt x="365" y="242" on="0"/>
        <pt x="369" y="268" on="1"/>
        <pt x="383" y="391" on="1"/>
        <pt x="354" y="403" on="0"/>
      </contour>
    </TTGlyph>
    <TTGlyph name="agrave" xMin="30" yMin="-6" xMax="653" yMax="737">
      <contour>
        <pt x="306" y="737" on="1"/>
        <pt x="433" y="550" on="1"/>
        <pt x="407" y="520" on="0"/>
        <pt x="395" y="513" on="1"/>
        <pt x="215" y="646" on="1"/>
        <pt x="232" y="670" on="0"/>
        <pt x="286" y="727" on="0"/>
      </contour>
      <contour>
        <pt x="478" y="-5" on="1"/>
        <pt x="386" y="-5" on="0"/>
        <pt x="356" y="59" on="1"/>
        <pt x="304" y="-6" on="0"/>
        <pt x="141" y="-6" on="0"/>
        <pt x="30" y="104" on="0"/>
        <pt x="30" y="194" on="1"/>
        <pt x="30" y="325" on="0"/>
        <pt x="184" y="481" on="0"/>
        <pt x="302" y="481" on="1"/>
        <pt x="305" y="481" on="0"/>
        <pt x="308" y="481" on="1"/>
        <pt x="358" y="481" on="0"/>
        <pt x="400" y="464" on="1"/>
        <pt x="427" y="481" on="0"/>
        <pt x="504" y="481" on="0"/>
        <pt x="521" y="471" on="1"/>
        <pt x="512" y="397" on="0"/>
        <pt x="492" y="254" on="0"/>
        <pt x="488" y="224" on="1"/>
        <pt x="479" y="156" on="0"/>
        <pt x="479" y="126" on="1"/>
        <pt x="479" y="86" on="0"/>
        <pt x="511" y="86" on="1"/>
        <pt x="536" y="86" on="0"/>
        <pt x="592" y="153" on="0"/>
        <pt x="613" y="225" on="1"/>
        <pt x="642" y="199" on="0"/>
        <pt x="653" y="167" on="1"/>
        <pt x="624" y="72" on="0"/>
        <pt x="526" y="-5" on="0"/>
      </contour>
      <contour>
        <pt x="317" y="403" on="1"/>
        <pt x="253" y="403" on="0"/>
        <pt x="178" y="306" on="0"/>
        <pt x="171" y="210" on="1"/>
        <pt x="170" y="201" on="0"/>
        <pt x="170" y="193" on="1"/>
        <pt x="170" y="144" on="0"/>
        <pt x="217" y="86" on="0"/>
        <pt x="254" y="86" on="1"/>
        <pt x="317" y="86" on="0"/>
        <pt x="349" y="175" on="1"/>
        <pt x="373" y="391" on="1"/>
        <pt x="344" y="403" on="0"/>
      </contour>
    </TTGlyph>
    <TTGlyph name="ampersand" xMin="40" yMin="-172" xMax="639" yMax="764">
      <contour>
        <pt x="450" y="-13" on="1"/>
        <pt x="450" y="11" on="0"/>
        <pt x="438" y="53" on="1"/>
        <pt x="349" y="-9" on="0"/>
        <pt x="152" y="-9" on="0"/>
        <pt x="40" y="102" on="0"/>
        <pt x="40" y="178" on="1"/>
        <pt x="40" y="260" on="0"/>
        <pt x="93" y="322" on="1"/>
        <pt x="133" y="368" on="0"/>
        <pt x="224" y="422" on="1"/>
        <pt x="177" y="513" on="0"/>
        <pt x="177" y="657" on="0"/>
        <pt x="285" y="764" on="0"/>
        <pt x="381" y="764" on="1"/>
        <pt x="448" y="764" on="0"/>
        <pt x="533" y="694" on="0"/>
        <pt x="533" y="641" on="1"/>
        <pt x="533" y="540" on="0"/>
        <pt x="389" y="423" on="1"/>
        <pt x="399" y="407" on="0"/>
        <pt x="487" y="281" on="0"/>
        <pt x="509" y="245" on="1"/>
        <pt x="529" y="286" on="0"/>
        <pt x="529" y="320" on="1"/>
        <pt x="529" y="389" on="0"/>
        <pt x="483" y="391" on="1"/>
        <pt x="483" y="398" on="0"/>
        <pt x="493" y="430" on="0"/>
        <pt x="507" y="450" on="0"/>
        <pt x="537" y="466" on="0"/>
        <pt x="556" y="466" on="1"/>
        <pt x="592" y="466" on="0"/>
        <pt x="639" y="411" on="0"/>
        <pt x="639" y="369" on="1"/>
        <pt x="639" y="354" on="0"/>
        <pt x="636" y="338" on="1"/>
        <pt x="619" y="255" on="0"/>
        <pt x="553" y="165" on="1"/>
        <pt x="591" y="81" on="0"/>
        <pt x="591" y="-40" on="0"/>
        <pt x="572" y="-78" on="1"/>
        <pt x="539" y="-142" on="0"/>
        <pt x="456" y="-164" on="1"/>
        <pt x="428" y="-171" on="0"/>
        <pt x="400" y="-171" on="1"/>
        <pt x="388" y="-171" on="1"/>
        <pt x="388" y="-110" on="1"/>
        <pt x="450" y="-79" on="0"/>
      </contour>
      <contour>
        <pt x="351" y="676" on="0"/>
        <pt x="312" y="639" on="0"/>
        <pt x="310" y="604" on="1"/>
        <pt x="310" y="560" on="0"/>
        <pt x="347" y="491" on="1"/>
        <pt x="388" y="523" on="0"/>
        <pt x="414" y="551" on="1"/>
        <pt x="444" y="585" on="0"/>
        <pt x="444" y="642" on="0"/>
        <pt x="429" y="658" on="1"/>
        <pt x="412" y="676" on="0"/>
      </contour>
      <contour>
        <pt x="181" y="200" on="1"/>
        <pt x="180" y="188" on="1"/>
        <pt x="180" y="146" on="0"/>
        <pt x="236" y="81" on="0"/>
        <pt x="351" y="81" on="0"/>
        <pt x="407" y="124" on="1"/>
        <pt x="378" y="179" on="0"/>
        <pt x="300" y="297" on="0"/>
        <pt x="287" y="317" on="1"/>
        <pt x="276" y="335" on="1"/>
        <pt x="223" y="294" on="0"/>
        <pt x="185" y="234" on="0"/>
      </contour>
    </TTGlyph>
    <TTGlyph name="approxequal" xMin="54" yMin="116" xMax="544" yMax="491">
      <contour>
        <pt x="179" y="491" on="1"/>
        <pt x="188" y="491" on="0"/>
        <pt x="232" y="483" on="0"/>
        <pt x="394" y="409" on="0"/>
        <pt x="420" y="409" on="1"/>
        <pt x="472" y="409" on="0"/>
        <pt x="500" y="480" on="1"/>
        <pt x="544" y="480" on="1"/>
        <pt x="534" y="393" on="0"/>
        <pt x="454" y="311" on="0"/>
        <pt x="354" y="311" on="0"/>
        <pt x="274" y="350" on="1"/>
        <pt x="192" y="389" on="0"/>
        <pt x="144" y="389" on="0"/>
        <pt x="101" y="364" on="0"/>
        <pt x="98" y="333" on="1"/>
        <pt x="54" y="333" on="1"/>
        <pt x="58" y="412" on="0"/>
        <pt x="136" y="491" on="0"/>
      </contour>
      <contour>
        <pt x="179" y="296" on="1"/>
        <pt x="188" y="296" on="0"/>
        <pt x="232" y="288" on="0"/>
        <pt x="394" y="214" on="0"/>
        <pt x="420" y="214" on="1"/>
        <pt x="472" y="214" on="0"/>
        <pt x="500" y="285" on="1"/>
        <pt x="544" y="285" on="1"/>
        <pt x="534" y="198" on="0"/>
        <pt x="454" y="116" on="0"/>
        <pt x="354" y="116" on="0"/>
        <pt x="274" y="154" on="1"/>
        <pt x="192" y="194" on="0"/>
        <pt x="144" y="194" on="0"/>
        <pt x="101" y="169" on="0"/>
        <pt x="98" y="138" on="1"/>
        <pt x="54" y="138" on="1"/>
        <pt x="58" y="217" on="0"/>
        <pt x="136" y="296" on="0"/>
      </contour>
    </TTGlyph>
    <TTGlyph name="aring" xMin="30" yMin="-6" xMax="653" yMax="665">
      <contour>
        <pt x="377" y="471" on="1"/>
        <pt x="400" y="464" on="1"/>
        <pt x="427" y="481" on="0"/>
        <pt x="504" y="481" on="0"/>
        <pt x="521" y="471" on="1"/>
        <pt x="512" y="397" on="0"/>
        <pt x="492" y="254" on="0"/>
        <pt x="488" y="224" on="1"/>
        <pt x="479" y="156" on="0"/>
        <pt x="479" y="126" on="1"/>
        <pt x="479" y="86" on="0"/>
        <pt x="511" y="86" on="1"/>
        <pt x="536" y="86" on="0"/>
        <pt x="592" y="153" on="0"/>
        <pt x="613" y="225" on="1"/>
        <pt x="642" y="199" on="0"/>
        <pt x="653" y="167" on="1"/>
        <pt x="624" y="72" on="0"/>
        <pt x="526" y="-5" on="0"/>
        <pt x="478" y="-5" on="1"/>
        <pt x="386" y="-5" on="0"/>
        <pt x="356" y="59" on="1"/>
        <pt x="304" y="-6" on="0"/>
        <pt x="141" y="-6" on="0"/>
        <pt x="30" y="104" on="0"/>
        <pt x="30" y="194" on="1"/>
        <pt x="30" y="310" on="0"/>
        <pt x="154" y="462" on="0"/>
        <pt x="256" y="478" on="1"/>
        <pt x="216" y="510" on="0"/>
        <pt x="216" y="604" on="0"/>
        <pt x="278" y="665" on="0"/>
        <pt x="364" y="665" on="0"/>
        <pt x="426" y="604" on="0"/>
        <pt x="426" y="560" on="1"/>
        <pt x="426" y="502" on="0"/>
      </contour>
      <contour>
        <pt x="341" y="609" on="0"/>
        <pt x="301" y="609" on="0"/>
        <pt x="272" y="580" on="0"/>
        <pt x="272" y="540" on="0"/>
        <pt x="301" y="511" on="0"/>
        <pt x="341" y="511" on="0"/>
        <pt x="370" y="540" on="0"/>
        <pt x="370" y="580" on="0"/>
      </contour>
      <contour>
        <pt x="317" y="403" on="1"/>
        <pt x="253" y="403" on="0"/>
        <pt x="178" y="306" on="0"/>
        <pt x="171" y="210" on="1"/>
        <pt x="170" y="201" on="0"/>
        <pt x="170" y="193" on="1"/>
        <pt x="170" y="144" on="0"/>
        <pt x="217" y="86" on="0"/>
        <pt x="254" y="86" on="1"/>
        <pt x="317" y="86" on="0"/>
        <pt x="349" y="175" on="1"/>
        <pt x="373" y="391" on="1"/>
        <pt x="344" y="403" on="0"/>
      </contour>
    </TTGlyph>
    <TTGlyph name="asciicircum" xMin="60" yMin="207" xMax="570" yMax="720">
      <contour>
        <pt x="330" y="527" on="1"/>
        <pt x="157" y="207" on="1"/>
        <pt x="60" y="207" on="1"/>
        <pt x="352" y="720" on="1"/>
        <pt x="570" y="207" on="1"/>
        <pt x="473" y="207" on="1"/>
      </contour>
    </TTGlyph>
    <TTGlyph name="asciitilde" xMin="-26" yMin="311" xMax="464" yMax="491">
      <contour>
        <pt x="99" y="491" on="1"/>
        <pt x="108" y="491" on="0"/>
        <pt x="152" y="483" on="0"/>
        <pt x="314" y="409" on="0"/>
        <pt x="340" y="409" on="1"/>
        <pt x="392" y="409" on="0"/>
        <pt x="420" y="480" on="1"/>
        <pt x="464" y="480" on="1"/>
        <pt x="454" y="393" on="0"/>
        <pt x="374" y="311" on="0"/>
        <pt x="274" y="311" on="0"/>
        <pt x="194" y="350" on="1"/>
        <pt x="112" y="389" on="0"/>
        <pt x="64" y="389" on="0"/>
        <pt x="21" y="364" on="0"/>
        <pt x="18" y="333" on="1"/>
        <pt x="-26" y="333" on="1"/>
        <pt x="-22" y="412" on="0"/>
        <pt x="56" y="491" on="0"/>
      </contour>
    </TTGlyph>
    <TTGlyph name="asterisk" xMin="45" yMin="461" xMax="346" yMax="764">
      <contour>
        <pt x="138" y="698" on="1"/>
        <pt x="129" y="709" on="0"/>
        <pt x="129" y="718" on="1"/>
        <pt x="129" y="749" on="0"/>
        <pt x="155" y="760" on="1"/>
        <pt x="165" y="763" on="0"/>
        <pt x="184" y="763" on="0"/>
        <pt x="210" y="747" on="0"/>
        <pt x="209" y="723" on="1"/>
        <pt x="204" y="615" on="1"/>
      </contour>
      <contour>
        <pt x="314" y="731" on="0"/>
        <pt x="336" y="707" on="0"/>
        <pt x="336" y="697" on="1"/>
        <pt x="336" y="665" on="0"/>
        <pt x="310" y="653" on="1"/>
        <pt x="208" y="615" on="1"/>
        <pt x="260" y="711" on="1"/>
        <pt x="273" y="731" on="0"/>
      </contour>
      <contour>
        <pt x="98" y="578" on="1"/>
        <pt x="90" y="576" on="0"/>
        <pt x="71" y="576" on="0"/>
        <pt x="46" y="597" on="0"/>
        <pt x="45" y="619" on="1"/>
        <pt x="47" y="640" on="0"/>
        <pt x="77" y="657" on="0"/>
        <pt x="97" y="657" on="0"/>
        <pt x="105" y="654" on="1"/>
        <pt x="200" y="612" on="1"/>
      </contour>
      <contour>
        <pt x="342" y="570" on="1"/>
        <pt x="345" y="562" on="0"/>
        <pt x="345" y="544" on="0"/>
        <pt x="338" y="534" on="1"/>
        <pt x="326" y="514" on="0"/>
        <pt x="286" y="514" on="0"/>
        <pt x="273" y="528" on="1"/>
        <pt x="207" y="611" on="1"/>
        <pt x="312" y="592" on="1"/>
        <pt x="333" y="590" on="0"/>
      </contour>
      <contour>
        <pt x="208" y="504" on="1"/>
        <pt x="208" y="482" on="0"/>
        <pt x="179" y="462" on="0"/>
        <pt x="160" y="462" on="0"/>
        <pt x="154" y="463" on="1"/>
        <pt x="126" y="473" on="0"/>
        <pt x="126" y="500" on="1"/>
        <pt x="126" y="513" on="0"/>
        <pt x="136" y="526" on="1"/>
        <pt x="204" y="610" on="1"/>
      </contour>
    </TTGlyph>
    <TTGlyph name="at" xMin="45" yMin="-76" xMax="721" yMax="567">
      <contour>
        <pt x="211" y="523" on="0"/>
        <pt x="335" y="567" on="0"/>
        <pt x="459" y="567" on="0"/>
        <pt x="568" y="534" on="0"/>
        <pt x="663" y="469" on="0"/>
        <pt x="721" y="356" on="0"/>
        <pt x="721" y="283" on="1"/>
        <pt x="721" y="180" on="0"/>
        <pt x="630" y="48" on="0"/>
        <pt x="560" y="48" on="1"/>
        <pt x="477" y="48" on="0"/>
        <pt x="464" y="137" on="1"/>
        <pt x="445" y="96" on="0"/>
        <pt x="377" y="45" on="0"/>
        <pt x="332" y="45" on="1"/>
        <pt x="263" y="45" on="0"/>
        <pt x="184" y="134" on="0"/>
        <pt x="184" y="209" on="1"/>
        <pt x="184" y="284" on="0"/>
        <pt x="231" y="354" on="1"/>
        <pt x="254" y="389" on="0"/>
        <pt x="341" y="433" on="0"/>
        <pt x="446" y="433" on="0"/>
        <pt x="493" y="418" on="1"/>
        <pt x="510" y="424" on="0"/>
        <pt x="553" y="424" on="0"/>
        <pt x="570" y="414" on="1"/>
        <pt x="538" y="200" on="0"/>
        <pt x="538" y="151" on="1"/>
        <pt x="538" y="114" on="0"/>
        <pt x="573" y="114" on="1"/>
        <pt x="604" y="114" on="0"/>
        <pt x="646" y="203" on="0"/>
        <pt x="646" y="276" on="1"/>
        <pt x="646" y="381" on="0"/>
        <pt x="515" y="497" on="0"/>
        <pt x="280" y="497" on="0"/>
        <pt x="122" y="351" on="0"/>
        <pt x="122" y="216" on="1"/>
        <pt x="122" y="118" on="0"/>
        <pt x="258" y="-11" on="0"/>
        <pt x="357" y="-11" on="1"/>
        <pt x="403" y="-11" on="0"/>
        <pt x="442" y="1" on="0"/>
        <pt x="454" y="5" on="1"/>
        <pt x="469" y="10" on="1"/>
        <pt x="473" y="8" on="0"/>
        <pt x="481" y="-28" on="0"/>
        <pt x="481" y="-49" on="0"/>
        <pt x="479" y="-53" on="1"/>
        <pt x="416" y="-76" on="0"/>
        <pt x="352" y="-76" on="1"/>
        <pt x="228" y="-76" on="0"/>
        <pt x="45" y="74" on="0"/>
        <pt x="45" y="209" on="1"/>
        <pt x="45" y="298" on="0"/>
        <pt x="107" y="439" on="0"/>
      </contour>
      <contour>
        <pt x="413" y="364" on="1"/>
        <pt x="353" y="364" on="0"/>
        <pt x="278" y="281" on="0"/>
        <pt x="278" y="215" on="1"/>
        <pt x="278" y="169" on="0"/>
        <pt x="320" y="124" on="0"/>
        <pt x="385" y="124" on="0"/>
        <pt x="435" y="175" on="0"/>
        <pt x="445" y="225" on="1"/>
        <pt x="463" y="358" on="1"/>
        <pt x="431" y="364" on="0"/>
      </contour>
    </TTGlyph>
    <TTGlyph name="atilde" xMin="30" yMin="-6" xMax="653" yMax="700">
      <contour>
        <pt x="553" y="607" on="0"/>
        <pt x="484" y="524" on="0"/>
        <pt x="390" y="524" on="0"/>
        <pt x="338" y="561" on="1"/>
        <pt x="283" y="599" on="0"/>
        <pt x="239" y="599" on="0"/>
        <pt x="207" y="574" on="0"/>
        <pt x="191" y="540" on="1"/>
        <pt x="147" y="566" on="1"/>
        <pt x="160" y="624" on="0"/>
        <pt x="224" y="699" on="0"/>
        <pt x="270" y="699" on="1"/>
        <pt x="311" y="699" on="0"/>
        <pt x="421" y="629" on="0"/>
        <pt x="444" y="629" on="1"/>
        <pt x="490" y="629" on="0"/>
        <pt x="518" y="697" on="1"/>
        <pt x="562" y="672" on="1"/>
      </contour>
      <contour>
        <pt x="478" y="-5" on="1"/>
        <pt x="386" y="-5" on="0"/>
        <pt x="356" y="59" on="1"/>
        <pt x="304" y="-6" on="0"/>
        <pt x="141" y="-6" on="0"/>
        <pt x="30" y="104" on="0"/>
        <pt x="30" y="194" on="1"/>
        <pt x="30" y="325" on="0"/>
        <pt x="184" y="481" on="0"/>
        <pt x="302" y="481" on="1"/>
        <pt x="305" y="481" on="0"/>
        <pt x="308" y="481" on="1"/>
        <pt x="358" y="481" on="0"/>
        <pt x="400" y="464" on="1"/>
        <pt x="427" y="481" on="0"/>
        <pt x="504" y="481" on="0"/>
        <pt x="521" y="471" on="1"/>
        <pt x="512" y="397" on="0"/>
        <pt x="492" y="254" on="0"/>
        <pt x="488" y="224" on="1"/>
        <pt x="479" y="156" on="0"/>
        <pt x="479" y="126" on="1"/>
        <pt x="479" y="86" on="0"/>
        <pt x="511" y="86" on="1"/>
        <pt x="536" y="86" on="0"/>
        <pt x="592" y="153" on="0"/>
        <pt x="613" y="225" on="1"/>
        <pt x="642" y="199" on="0"/>
        <pt x="653" y="167" on="1"/>
        <pt x="624" y="72" on="0"/>
        <pt x="526" y="-5" on="0"/>
      </contour>
      <contour>
        <pt x="317" y="403" on="1"/>
        <pt x="253" y="403" on="0"/>
        <pt x="178" y="306" on="0"/>
        <pt x="171" y="210" on="1"/>
        <pt x="170" y="201" on="0"/>
        <pt x="170" y="193" on="1"/>
        <pt x="170" y="144" on="0"/>
        <pt x="217" y="86" on="0"/>
        <pt x="254" y="86" on="1"/>
        <pt x="317" y="86" on="0"/>
        <pt x="349" y="175" on="1"/>
        <pt x="373" y="391" on="1"/>
        <pt x="344" y="403" on="0"/>
      </contour>
    </TTGlyph>
    <TTGlyph name="b" xMin="35" yMin="-6" xMax="503" yMax="761">
      <contour>
        <pt x="398" y="482" on="0"/>
        <pt x="502" y="364" on="0"/>
        <pt x="502" y="285" on="1"/>
        <pt x="502" y="274" on="0"/>
        <pt x="501" y="262" on="1"/>
        <pt x="490" y="131" on="0"/>
        <pt x="336" y="-6" on="0"/>
        <pt x="212" y="-6" on="1"/>
        <pt x="162" y="-4" on="0"/>
        <pt x="88" y="28" on="0"/>
        <pt x="70" y="52" on="1"/>
        <pt x="36" y="96" on="0"/>
        <pt x="36" y="165" on="0"/>
        <pt x="46" y="242" on="1"/>
        <pt x="67" y="400" on="0"/>
        <pt x="106" y="753" on="1"/>
        <pt x="127" y="761" on="0"/>
        <pt x="162" y="761" on="1"/>
        <pt x="242" y="761" on="0"/>
        <pt x="242" y="715" on="1"/>
        <pt x="208" y="449" on="1"/>
        <pt x="255" y="482" on="0"/>
      </contour>
      <contour>
        <pt x="171" y="114" on="0"/>
        <pt x="206" y="83" on="0"/>
        <pt x="237" y="83" on="1"/>
        <pt x="288" y="83" on="0"/>
        <pt x="321" y="130" on="1"/>
        <pt x="361" y="187" on="0"/>
        <pt x="361" y="278" on="1"/>
        <pt x="361" y="322" on="0"/>
        <pt x="321" y="390" on="0"/>
        <pt x="279" y="390" on="1"/>
        <pt x="222" y="390" on="0"/>
        <pt x="192" y="322" on="1"/>
        <pt x="184" y="262" on="1"/>
        <pt x="171" y="161" on="0"/>
      </contour>
    </TTGlyph>
    <TTGlyph name="backslash" xMin="20" yMin="-100" xMax="500" yMax="761">
      <contour>
        <pt x="20" y="761" on="1"/>
        <pt x="103" y="761" on="1"/>
        <pt x="500" y="-100" on="1"/>
        <pt x="417" y="-100" on="1"/>
      </contour>
    </TTGlyph>
    <TTGlyph name="bar" xMin="25" yMin="-100" xMax="209" yMax="761">
      <contour>
        <pt x="123" y="761" on="1"/>
        <pt x="209" y="761" on="1"/>
        <pt x="107" y="-100" on="1"/>
        <pt x="25" y="-100" on="1"/>
      </contour>
    </TTGlyph>
    <TTGlyph name="braceleft" xMin="20" yMin="-166" xMax="379" yMax="762">
      <contour>
        <pt x="102" y="358" on="1"/>
        <pt x="126" y="358" on="0"/>
        <pt x="135" y="442" on="1"/>
        <pt x="153" y="626" on="0"/>
        <pt x="165" y="713" on="0"/>
        <pt x="228" y="762" on="0"/>
        <pt x="273" y="762" on="1"/>
        <pt x="334" y="762" on="0"/>
        <pt x="379" y="725" on="1"/>
        <pt x="368" y="681" on="1"/>
        <pt x="356" y="689" on="0"/>
        <pt x="345" y="689" on="1"/>
        <pt x="305" y="689" on="0"/>
        <pt x="283" y="659" on="0"/>
        <pt x="277" y="600" on="0"/>
        <pt x="268" y="524" on="0"/>
        <pt x="254" y="416" on="0"/>
        <pt x="250" y="381" on="1"/>
        <pt x="242" y="311" on="0"/>
        <pt x="184" y="296" on="1"/>
        <pt x="227" y="278" on="0"/>
        <pt x="227" y="226" on="1"/>
        <pt x="194" y="-46" on="1"/>
        <pt x="194" y="-49" on="0"/>
        <pt x="194" y="-61" on="1"/>
        <pt x="194" y="-91" on="0"/>
        <pt x="233" y="-94" on="1"/>
        <pt x="258" y="-94" on="0"/>
        <pt x="274" y="-86" on="1"/>
        <pt x="274" y="-130" on="1"/>
        <pt x="214" y="-166" on="0"/>
        <pt x="119" y="-166" on="0"/>
        <pt x="64" y="-116" on="0"/>
        <pt x="67" y="-37" on="0"/>
        <pt x="82" y="73" on="1"/>
        <pt x="99" y="192" on="0"/>
        <pt x="99" y="203" on="1"/>
        <pt x="99" y="237" on="0"/>
        <pt x="83" y="237" on="1"/>
        <pt x="76" y="237" on="0"/>
        <pt x="69" y="235" on="0"/>
        <pt x="52" y="218" on="0"/>
        <pt x="43" y="199" on="1"/>
        <pt x="20" y="210" on="1"/>
        <pt x="32" y="240" on="0"/>
        <pt x="83" y="289" on="0"/>
        <pt x="115" y="298" on="1"/>
        <pt x="58" y="319" on="0"/>
        <pt x="46" y="385" on="1"/>
        <pt x="71" y="396" on="1"/>
        <pt x="80" y="362" on="0"/>
        <pt x="92" y="359" on="1"/>
        <pt x="95" y="358" on="0"/>
      </contour>
    </TTGlyph>
    <TTGlyph name="braceright" xMin="0" yMin="-162" xMax="355" yMax="766">
      <contour>
        <pt x="277" y="242" on="1"/>
        <pt x="253" y="242" on="0"/>
        <pt x="244" y="158" on="1"/>
        <pt x="225" y="-33" on="0"/>
        <pt x="212" y="-113" on="0"/>
        <pt x="151" y="-162" on="0"/>
        <pt x="106" y="-162" on="1"/>
        <pt x="45" y="-162" on="0"/>
        <pt x="0" y="-125" on="1"/>
        <pt x="11" y="-81" on="1"/>
        <pt x="23" y="-89" on="0"/>
        <pt x="34" y="-89" on="1"/>
        <pt x="74" y="-89" on="0"/>
        <pt x="97" y="-59" on="0"/>
        <pt x="106" y="48" on="0"/>
        <pt x="127" y="219" on="1"/>
        <pt x="136" y="284" on="0"/>
        <pt x="194" y="303" on="1"/>
        <pt x="148" y="320" on="0"/>
        <pt x="148" y="374" on="1"/>
        <pt x="181" y="646" on="1"/>
        <pt x="181" y="649" on="0"/>
        <pt x="181" y="661" on="1"/>
        <pt x="181" y="691" on="0"/>
        <pt x="142" y="694" on="1"/>
        <pt x="117" y="694" on="0"/>
        <pt x="101" y="686" on="1"/>
        <pt x="101" y="730" on="1"/>
        <pt x="161" y="766" on="0"/>
        <pt x="256" y="766" on="0"/>
        <pt x="311" y="716" on="0"/>
        <pt x="308" y="637" on="0"/>
        <pt x="292" y="527" on="1"/>
        <pt x="276" y="408" on="0"/>
        <pt x="276" y="397" on="1"/>
        <pt x="276" y="363" on="0"/>
        <pt x="292" y="363" on="1"/>
        <pt x="299" y="363" on="0"/>
        <pt x="306" y="365" on="0"/>
        <pt x="323" y="382" on="0"/>
        <pt x="332" y="401" on="1"/>
        <pt x="355" y="390" on="1"/>
        <pt x="343" y="360" on="0"/>
        <pt x="294" y="312" on="0"/>
        <pt x="263" y="302" on="1"/>
        <pt x="291" y="293" on="0"/>
        <pt x="328" y="245" on="0"/>
        <pt x="333" y="215" on="1"/>
        <pt x="308" y="204" on="1"/>
        <pt x="299" y="238" on="0"/>
        <pt x="288" y="241" on="1"/>
        <pt x="284" y="242" on="0"/>
      </contour>
    </TTGlyph>
    <TTGlyph name="bracketleft" xMin="18" yMin="-125" xMax="426" yMax="760">
      <contour>
        <pt x="19" y="-125" on="1"/>
        <pt x="19" y="-123" on="1"/>
        <pt x="18" y="-123" on="1"/>
        <pt x="134" y="759" on="1"/>
        <pt x="134" y="760" on="1"/>
        <pt x="426" y="760" on="1"/>
        <pt x="415" y="685" on="1"/>
        <pt x="206" y="685" on="1"/>
        <pt x="111" y="-50" on="1"/>
        <pt x="322" y="-50" on="1"/>
        <pt x="313" y="-125" on="1"/>
      </contour>
    </TTGlyph>
    <TTGlyph name="bracketright" xMin="18" yMin="-124" xMax="426" yMax="761">
      <contour>
        <pt x="425" y="761" on="1"/>
        <pt x="425" y="759" on="1"/>
        <pt x="426" y="759" on="1"/>
        <pt x="310" y="-123" on="1"/>
        <pt x="310" y="-124" on="1"/>
        <pt x="18" y="-124" on="1"/>
        <pt x="29" y="-49" on="1"/>
        <pt x="238" y="-49" on="1"/>
        <pt x="333" y="686" on="1"/>
        <pt x="122" y="686" on="1"/>
        <pt x="131" y="761" on="1"/>
      </contour>
    </TTGlyph>
    <TTGlyph name="breve" xMin="148" yMin="527" xMax="487" yMax="700">
      <contour>
        <pt x="480" y="615" on="0"/>
        <pt x="379" y="527" on="0"/>
        <pt x="228" y="527" on="0"/>
        <pt x="183" y="577" on="1"/>
        <pt x="148" y="616" on="0"/>
        <pt x="148" y="668" on="1"/>
        <pt x="148" y="684" on="0"/>
        <pt x="151" y="700" on="1"/>
        <pt x="208" y="700" on="1"/>
        <pt x="207" y="694" on="0"/>
        <pt x="207" y="687" on="1"/>
        <pt x="207" y="652" on="0"/>
        <pt x="261" y="604" on="0"/>
        <pt x="360" y="604" on="0"/>
        <pt x="422" y="655" on="0"/>
        <pt x="430" y="700" on="1"/>
        <pt x="487" y="700" on="1"/>
      </contour>
    </TTGlyph>
    <TTGlyph name="brokenbar" xMin="19" yMin="-99" xMax="199" yMax="761">
      <contour>
        <pt x="116" y="761" on="1"/>
        <pt x="199" y="761" on="1"/>
        <pt x="158" y="395" on="1"/>
        <pt x="75" y="395" on="1"/>
      </contour>
      <contour>
        <pt x="63" y="287" on="1"/>
        <pt x="146" y="287" on="1"/>
        <pt x="102" y="-99" on="1"/>
        <pt x="19" y="-99" on="1"/>
      </contour>
    </TTGlyph>
    <TTGlyph name="bullet" xMin="180" yMin="271" xMax="390" yMax="481">
      <contour>
        <pt x="242" y="481" on="0"/>
        <pt x="328" y="481" on="0"/>
        <pt x="390" y="420" on="0"/>
        <pt x="390" y="332" on="0"/>
        <pt x="328" y="271" on="0"/>
        <pt x="242" y="271" on="0"/>
        <pt x="180" y="332" on="0"/>
        <pt x="180" y="420" on="0"/>
      </contour>
    </TTGlyph>
    <TTGlyph name="c" xMin="36" yMin="-7" xMax="590" yMax="481">
      <contour>
        <pt x="346" y="339" on="1"/>
        <pt x="346" y="404" on="0"/>
        <pt x="288" y="404" on="1"/>
        <pt x="245" y="404" on="0"/>
        <pt x="211" y="355" on="1"/>
        <pt x="175" y="302" on="0"/>
        <pt x="175" y="160" on="0"/>
        <pt x="238" y="83" on="0"/>
        <pt x="293" y="83" on="1"/>
        <pt x="359" y="83" on="0"/>
        <pt x="506" y="191" on="0"/>
        <pt x="551" y="271" on="1"/>
        <pt x="571" y="256" on="0"/>
        <pt x="590" y="216" on="1"/>
        <pt x="561" y="158" on="0"/>
        <pt x="482" y="86" on="1"/>
        <pt x="441" y="48" on="0"/>
        <pt x="380" y="22" on="1"/>
        <pt x="314" y="-6" on="0"/>
        <pt x="248" y="-6" on="1"/>
        <pt x="159" y="-6" on="0"/>
        <pt x="36" y="116" on="0"/>
        <pt x="36" y="214" on="1"/>
        <pt x="36" y="333" on="0"/>
        <pt x="196" y="481" on="0"/>
        <pt x="295" y="481" on="1"/>
        <pt x="372" y="481" on="0"/>
        <pt x="462" y="417" on="0"/>
        <pt x="462" y="365" on="1"/>
        <pt x="462" y="331" on="0"/>
        <pt x="438" y="306" on="1"/>
        <pt x="394" y="262" on="0"/>
        <pt x="331" y="262" on="1"/>
        <pt x="346" y="312" on="0"/>
      </contour>
    </TTGlyph>
    <TTGlyph name="caron" xMin="145" yMin="542" xMax="479" yMax="700">
      <contour>
        <pt x="145" y="700" on="1"/>
        <pt x="225" y="700" on="1"/>
        <pt x="312" y="617" on="1"/>
        <pt x="399" y="700" on="1"/>
        <pt x="479" y="700" on="1"/>
        <pt x="360" y="542" on="1"/>
        <pt x="254" y="542" on="1"/>
      </contour>
    </TTGlyph>
    <TTGlyph name="ccedilla" xMin="36" yMin="-230" xMax="590" yMax="481">
      <contour>
        <pt x="346" y="339" on="1"/>
        <pt x="346" y="404" on="0"/>
        <pt x="288" y="404" on="1"/>
        <pt x="245" y="404" on="0"/>
        <pt x="211" y="355" on="1"/>
        <pt x="175" y="302" on="0"/>
        <pt x="175" y="160" on="0"/>
        <pt x="238" y="83" on="0"/>
        <pt x="293" y="83" on="1"/>
        <pt x="359" y="83" on="0"/>
        <pt x="506" y="191" on="0"/>
        <pt x="551" y="271" on="1"/>
        <pt x="571" y="256" on="0"/>
        <pt x="590" y="216" on="1"/>
        <pt x="565" y="164" on="0"/>
        <pt x="490" y="92" on="1"/>
        <pt x="451" y="56" on="0"/>
        <pt x="338" y="1" on="0"/>
        <pt x="278" y="-5" on="1"/>
        <pt x="267" y="-33" on="1"/>
        <pt x="273" y="-32" on="1"/>
        <pt x="310" y="-32" on="0"/>
        <pt x="369" y="-80" on="0"/>
        <pt x="369" y="-172" on="0"/>
        <pt x="300" y="-230" on="0"/>
        <pt x="256" y="-230" on="1"/>
        <pt x="185" y="-230" on="0"/>
        <pt x="151" y="-182" on="1"/>
        <pt x="169" y="-144" on="1"/>
        <pt x="178" y="-158" on="0"/>
        <pt x="223" y="-184" on="0"/>
        <pt x="267" y="-184" on="0"/>
        <pt x="296" y="-151" on="0"/>
        <pt x="296" y="-100" on="0"/>
        <pt x="257" y="-70" on="0"/>
        <pt x="201" y="-70" on="0"/>
        <pt x="196" y="-71" on="1"/>
        <pt x="221" y="-5" on="1"/>
        <pt x="140" y="5" on="0"/>
        <pt x="36" y="125" on="0"/>
        <pt x="36" y="214" on="1"/>
        <pt x="36" y="333" on="0"/>
        <pt x="196" y="481" on="0"/>
        <pt x="295" y="481" on="1"/>
        <pt x="372" y="481" on="0"/>
        <pt x="462" y="417" on="0"/>
        <pt x="462" y="365" on="1"/>
        <pt x="462" y="331" on="0"/>
        <pt x="438" y="306" on="1"/>
        <pt x="394" y="262" on="0"/>
        <pt x="331" y="262" on="1"/>
        <pt x="346" y="312" on="0"/>
      </contour>
    </TTGlyph>
    <TTGlyph name="cedilla" xMin="191" yMin="-230" xMax="409" yMax="37">
      <contour>
        <pt x="350" y="-32" on="0"/>
        <pt x="409" y="-80" on="0"/>
        <pt x="409" y="-172" on="0"/>
        <pt x="340" y="-230" on="0"/>
        <pt x="296" y="-230" on="1"/>
        <pt x="225" y="-230" on="0"/>
        <pt x="191" y="-182" on="1"/>
        <pt x="209" y="-144" on="1"/>
        <pt x="218" y="-158" on="0"/>
        <pt x="263" y="-184" on="0"/>
        <pt x="307" y="-184" on="0"/>
        <pt x="336" y="-151" on="0"/>
        <pt x="336" y="-100" on="0"/>
        <pt x="297" y="-70" on="0"/>
        <pt x="241" y="-70" on="0"/>
        <pt x="236" y="-71" on="1"/>
        <pt x="277" y="37" on="1"/>
        <pt x="333" y="37" on="1"/>
        <pt x="307" y="-33" on="1"/>
        <pt x="313" y="-32" on="1"/>
      </contour>
    </TTGlyph>
    <TTGlyph name="cent" xMin="20" yMin="-284" xMax="537" yMax="761">
      <contour>
        <pt x="20" y="214" on="1"/>
        <pt x="20" y="320" on="0"/>
        <pt x="155" y="462" on="0"/>
        <pt x="246" y="478" on="1"/>
        <pt x="278" y="761" on="1"/>
        <pt x="354" y="761" on="1"/>
        <pt x="322" y="479" on="1"/>
        <pt x="384" y="472" on="0"/>
        <pt x="455" y="410" on="0"/>
        <pt x="455" y="331" on="0"/>
        <pt x="430" y="306" on="1"/>
        <pt x="386" y="262" on="0"/>
        <pt x="322" y="262" on="1"/>
        <pt x="332" y="297" on="0"/>
        <pt x="332" y="369" on="0"/>
        <pt x="312" y="388" on="1"/>
        <pt x="279" y="96" on="1"/>
        <pt x="289" y="95" on="1"/>
        <pt x="292" y="95" on="0"/>
        <pt x="295" y="95" on="1"/>
        <pt x="347" y="95" on="0"/>
        <pt x="461" y="162" on="0"/>
        <pt x="497" y="230" on="1"/>
        <pt x="537" y="186" on="1"/>
        <pt x="481" y="57" on="0"/>
        <pt x="357" y="13" on="1"/>
        <pt x="315" y="-2" on="0"/>
        <pt x="267" y="-5" on="1"/>
        <pt x="236" y="-284" on="1"/>
        <pt x="160" y="-284" on="1"/>
        <pt x="192" y="0" on="1"/>
        <pt x="120" y="17" on="0"/>
        <pt x="20" y="134" on="0"/>
      </contour>
      <contour>
        <pt x="158" y="238" on="1"/>
        <pt x="158" y="159" on="0"/>
        <pt x="206" y="123" on="1"/>
        <pt x="237" y="396" on="1"/>
        <pt x="203" y="381" on="0"/>
        <pt x="158" y="297" on="0"/>
      </contour>
    </TTGlyph>
    <TTGlyph name="circumflex" xMin="116" yMin="521" xMax="464" yMax="700">
      <contour>
        <pt x="290" y="700" on="1"/>
        <pt x="464" y="579" on="1"/>
        <pt x="443" y="540" on="0"/>
        <pt x="431" y="521" on="1"/>
        <pt x="290" y="594" on="1"/>
        <pt x="149" y="521" on="1"/>
        <pt x="137" y="540" on="0"/>
        <pt x="116" y="579" on="1"/>
      </contour>
    </TTGlyph>
    <TTGlyph name="colon" xMin="49" yMin="-19" xMax="253" yMax="494">
      <contour>
        <pt x="137" y="494" on="0"/>
        <pt x="205" y="494" on="0"/>
        <pt x="253" y="446" on="0"/>
        <pt x="253" y="378" on="0"/>
        <pt x="205" y="331" on="0"/>
        <pt x="137" y="331" on="0"/>
        <pt x="90" y="378" on="0"/>
        <pt x="90" y="446" on="0"/>
      </contour>
      <contour>
        <pt x="96" y="144" on="0"/>
        <pt x="164" y="144" on="0"/>
        <pt x="212" y="96" on="0"/>
        <pt x="212" y="28" on="0"/>
        <pt x="164" y="-19" on="0"/>
        <pt x="96" y="-19" on="0"/>
        <pt x="49" y="28" on="0"/>
        <pt x="49" y="96" on="0"/>
      </contour>
    </TTGlyph>
    <TTGlyph name="comma" xMin="100" yMin="-128" xMax="284" yMax="154">
      <contour>
        <pt x="116" y="106" on="0"/>
        <pt x="163" y="154" on="0"/>
        <pt x="233" y="154" on="0"/>
        <pt x="284" y="110" on="0"/>
        <pt x="284" y="23" on="0"/>
        <pt x="196" y="-92" on="0"/>
        <pt x="154" y="-126" on="1"/>
        <pt x="152" y="-127" on="0"/>
        <pt x="140" y="-127" on="0"/>
        <pt x="104" y="-115" on="0"/>
        <pt x="100" y="-111" on="1"/>
        <pt x="147" y="-57" on="0"/>
        <pt x="182" y="-7" on="1"/>
        <pt x="154" y="-2" on="0"/>
        <pt x="116" y="43" on="0"/>
      </contour>
    </TTGlyph>
    <TTGlyph name="copyright" xMin="30" yMin="21" xMax="680" yMax="671">
      <contour>
        <pt x="30" y="481" on="0"/>
        <pt x="211" y="671" on="0"/>
        <pt x="498" y="671" on="0"/>
        <pt x="680" y="482" on="0"/>
        <pt x="680" y="211" on="0"/>
        <pt x="498" y="21" on="0"/>
        <pt x="210" y="21" on="0"/>
        <pt x="30" y="209" on="0"/>
      </contour>
      <contour>
        <pt x="462" y="603" on="0"/>
        <pt x="246" y="603" on="0"/>
        <pt x="98" y="453" on="0"/>
        <pt x="98" y="237" on="0"/>
        <pt x="246" y="89" on="0"/>
        <pt x="462" y="89" on="0"/>
        <pt x="612" y="237" on="0"/>
        <pt x="612" y="453" on="0"/>
      </contour>
      <contour>
        <pt x="377" y="238" on="1"/>
        <pt x="459" y="238" on="0"/>
        <pt x="527" y="308" on="1"/>
        <pt x="549" y="258" on="1"/>
        <pt x="532" y="223" on="0"/>
        <pt x="476" y="188" on="1"/>
        <pt x="419" y="151" on="0"/>
        <pt x="273" y="151" on="0"/>
        <pt x="152" y="251" on="0"/>
        <pt x="152" y="432" on="0"/>
        <pt x="271" y="550" on="0"/>
        <pt x="430" y="550" on="0"/>
        <pt x="518" y="487" on="0"/>
        <pt x="518" y="439" on="1"/>
        <pt x="518" y="388" on="0"/>
        <pt x="476" y="371" on="1"/>
        <pt x="436" y="355" on="0"/>
        <pt x="404" y="355" on="1"/>
        <pt x="418" y="383" on="0"/>
        <pt x="418" y="403" on="1"/>
        <pt x="418" y="478" on="0"/>
        <pt x="352" y="478" on="1"/>
        <pt x="311" y="478" on="0"/>
        <pt x="258" y="412" on="0"/>
        <pt x="258" y="298" on="0"/>
        <pt x="330" y="238" on="0"/>
      </contour>
    </TTGlyph>
</ttFont>
